<svg xmlns="http://www.w3.org/2000/svg" xmlns:xlink="http://www.w3.org/1999/xlink" preserveAspectRatio="xMidYMid" width="22" height="14" viewBox="0 0 22 14">
  <path d="M20.000,8.000 L20.000,10.000 L18.000,10.000 L18.000,8.000 L16.000,8.000 L16.000,6.000 L18.000,6.000 L18.000,4.000 L20.000,4.000 L20.000,6.000 L22.000,6.000 L22.000,8.000 L20.000,8.000 ZM7.000,14.000 C3.130,14.000 -0.000,10.870 -0.000,7.000 C-0.000,3.130 3.130,-0.000 7.000,-0.000 C8.890,-0.000 10.470,0.690 11.690,1.830 L9.790,3.660 C9.270,3.160 8.360,2.580 7.000,2.580 C4.610,2.580 2.660,4.560 2.660,7.000 C2.660,9.440 4.610,11.420 7.000,11.420 C9.770,11.420 10.810,9.430 10.970,8.400 L7.000,8.400 L7.000,6.000 L13.610,6.000 C13.670,6.350 13.720,6.700 13.720,7.160 C13.720,11.160 11.040,14.000 7.000,14.000 Z"/>
</svg>
