<svg xmlns="http://www.w3.org/2000/svg" xmlns:xlink="http://www.w3.org/1999/xlink" preserveAspectRatio="xMidYMid" width="150" height="36" viewBox="0 0 150 36">
  <defs>
    <style>
      .cls-1 {
        fill: #000;
        fill-rule: evenodd;
      }
    </style>
  </defs>
  <path d="M146.551,26.700 C146.000,26.700 145.550,26.251 145.550,25.699 C145.550,25.146 146.000,24.696 146.551,24.696 C147.103,24.696 147.553,25.146 147.553,25.699 C147.553,26.251 147.103,26.700 146.551,26.700 ZM146.551,24.842 C146.078,24.842 145.696,25.225 145.696,25.699 C145.696,26.173 146.078,26.555 146.551,26.555 C147.025,26.555 147.407,26.173 147.407,25.699 C147.407,25.225 147.025,24.842 146.551,24.842 ZM147.049,26.272 L146.885,26.272 L146.541,25.766 L146.334,25.766 L146.334,26.272 L146.188,26.272 L146.188,25.117 L146.632,25.117 C146.893,25.117 146.995,25.230 146.995,25.437 C146.995,25.650 146.861,25.739 146.705,25.766 L147.049,26.272 ZM146.850,25.437 C146.850,25.289 146.715,25.246 146.592,25.246 L146.334,25.246 L146.334,25.636 L146.519,25.636 C146.678,25.636 146.850,25.629 146.850,25.437 ZM140.760,26.326 L140.711,26.326 C139.686,26.317 138.667,25.996 137.763,25.396 L137.502,25.222 L137.583,25.526 C138.291,28.181 138.641,30.279 138.623,31.763 C138.579,35.384 136.310,35.775 135.336,35.775 L135.306,35.775 C133.516,35.761 132.372,34.117 132.392,31.587 C132.406,29.666 133.431,26.070 134.883,22.842 L134.901,22.802 L134.889,22.760 C134.560,21.648 134.206,20.716 133.934,20.028 L133.815,19.728 L133.711,20.034 C132.211,24.413 130.498,26.634 128.601,26.634 C127.139,26.623 126.300,25.772 126.239,24.239 C126.213,23.584 126.282,22.881 126.349,22.201 C126.421,21.469 126.496,20.711 126.457,19.986 C126.439,19.648 126.383,18.619 125.386,18.612 C124.221,18.612 123.286,20.211 122.157,24.130 C122.078,24.403 122.011,24.656 121.949,24.886 C121.627,26.095 121.471,26.586 120.847,26.586 C120.024,26.580 119.976,25.993 119.948,24.668 L119.942,24.402 C119.848,20.611 119.738,18.467 118.566,18.457 C117.369,18.457 116.160,20.729 114.763,25.605 C114.585,26.226 114.228,26.540 113.703,26.540 C113.659,26.540 113.618,26.534 113.579,26.534 C113.031,26.534 112.911,26.081 112.912,24.895 C112.913,23.362 113.000,21.379 113.040,19.755 L113.055,19.145 L112.812,19.705 C110.954,23.990 109.260,26.072 107.284,26.072 C105.104,26.072 104.408,23.377 104.252,22.556 L104.190,22.231 L104.031,22.521 C103.188,24.055 101.590,25.706 100.058,25.706 C98.566,25.695 97.750,24.769 97.561,22.876 C97.491,22.174 97.527,21.454 97.562,20.757 C97.618,19.640 97.667,18.676 97.224,18.205 C97.045,18.015 96.792,17.918 96.465,17.915 C94.460,17.915 93.128,22.796 92.767,24.292 L92.684,24.645 C92.393,25.879 92.247,26.379 91.513,26.379 C91.076,26.376 90.787,26.269 90.606,26.045 C90.424,25.820 90.338,25.454 90.342,24.926 C90.344,24.685 90.304,24.249 90.248,23.645 C90.161,22.705 90.043,21.419 89.974,19.786 L89.959,19.450 L89.759,19.720 C86.495,24.181 82.809,26.851 79.083,26.851 C73.832,26.851 69.956,22.574 69.956,16.386 C69.956,7.638 76.567,2.240 81.476,2.240 C84.719,2.240 86.537,4.466 86.521,6.626 C86.505,8.691 85.075,10.061 84.130,10.061 C83.805,10.058 83.538,9.946 83.434,9.768 C83.332,9.594 83.402,9.391 83.479,9.251 C83.555,9.112 83.637,8.981 83.721,8.850 C84.045,8.338 84.380,7.809 84.388,6.778 C84.394,6.006 84.102,5.351 83.544,4.884 C83.007,4.434 82.267,4.193 81.404,4.186 L81.371,4.186 C77.399,4.186 72.120,8.769 72.120,16.233 C72.120,21.801 75.228,24.955 79.123,24.955 C83.434,24.955 87.838,19.814 89.901,16.824 L89.922,16.795 L89.922,16.758 C89.938,14.885 90.046,13.006 90.242,11.173 C91.299,1.292 94.342,0.225 95.621,0.225 C97.371,0.239 98.405,1.587 98.388,3.831 C98.361,7.344 96.338,11.444 91.828,17.126 L91.801,17.161 L91.803,17.206 C91.860,18.702 91.994,19.967 92.095,20.765 L92.152,21.213 L92.324,20.796 C93.079,18.955 94.704,15.866 97.114,15.866 C98.322,15.875 99.214,16.822 99.442,18.337 C99.569,19.181 99.555,20.116 99.543,20.941 C99.521,22.467 99.503,23.671 100.314,23.809 C100.370,23.818 100.426,23.822 100.482,23.822 C102.012,23.822 103.321,20.770 104.338,17.867 C104.910,16.236 105.196,15.649 105.809,15.649 C105.881,15.649 105.959,15.657 106.042,15.672 C106.808,15.814 107.118,16.115 106.937,17.528 L106.907,17.753 C106.523,20.738 106.245,22.894 106.940,23.691 C107.130,23.910 107.391,24.023 107.720,24.025 C109.377,24.025 111.453,18.989 112.269,16.825 C112.766,15.507 113.096,15.114 113.741,15.073 C114.114,15.049 114.368,15.107 114.503,15.264 C114.645,15.432 114.681,15.724 114.613,16.159 C114.544,16.593 114.453,18.158 114.341,20.809 L114.316,21.397 L114.568,20.864 C115.504,18.877 117.040,16.509 119.056,16.509 C120.784,16.522 121.332,18.472 121.486,20.104 L121.527,20.538 L121.712,20.144 C122.332,18.825 123.678,16.612 125.754,16.613 C127.388,16.625 128.404,17.742 128.472,19.600 C128.507,20.567 128.422,21.479 128.347,22.283 C128.244,23.379 128.171,24.170 128.471,24.503 C128.569,24.611 128.699,24.666 128.866,24.668 C130.014,24.668 131.370,22.175 133.014,17.043 L133.025,17.010 C133.067,16.793 133.184,16.630 133.393,16.497 C133.604,16.362 133.827,16.291 134.037,16.291 C134.378,16.291 134.639,16.481 134.718,16.786 C134.734,16.847 134.803,17.035 134.957,17.456 C135.178,18.058 135.547,19.064 135.962,20.273 L136.046,20.519 L136.177,20.294 C137.820,17.474 139.495,16.104 141.300,16.104 L141.327,16.104 C142.664,16.114 143.799,16.653 144.610,17.662 C145.377,18.616 145.793,19.936 145.782,21.379 C145.760,24.291 143.694,26.326 140.760,26.326 ZM92.025,14.120 C95.040,9.687 96.579,6.208 96.598,3.777 C96.605,2.788 96.271,2.284 95.605,2.279 L95.599,2.279 C94.201,2.279 92.736,6.038 92.034,11.421 C91.925,12.256 91.849,13.140 91.808,14.047 L91.789,14.467 L92.025,14.120 ZM135.656,25.590 L135.550,25.222 L135.429,25.586 C135.287,26.013 135.152,26.451 135.028,26.885 C133.987,30.525 133.807,32.530 134.445,33.383 C134.673,33.687 135.008,33.843 135.453,33.846 C135.841,33.846 136.150,33.696 136.373,33.400 C137.110,32.419 136.869,29.791 135.656,25.590 ZM143.681,21.338 C143.696,19.343 142.619,17.942 141.063,17.930 L141.049,17.930 C139.670,17.930 138.086,19.564 136.704,22.415 L136.684,22.457 L136.728,22.596 L136.750,22.637 C137.482,23.514 138.732,24.563 140.553,24.577 C141.292,24.577 142.036,24.310 142.595,23.843 C143.084,23.435 143.670,22.669 143.681,21.338 ZM106.631,12.352 L106.631,12.471 L106.620,12.352 C105.810,12.346 105.156,11.693 105.162,10.898 C105.168,10.107 105.827,9.465 106.642,9.465 C107.452,9.471 108.105,10.124 108.099,10.920 C108.093,11.710 107.435,12.352 106.631,12.352 ZM65.638,26.491 C64.223,26.563 62.894,25.682 61.903,24.023 L61.825,23.892 L61.717,24.001 C60.245,25.487 58.789,26.273 57.505,26.273 L57.480,26.273 C54.513,26.250 53.564,23.317 53.263,21.572 L53.201,21.218 L53.039,21.538 C52.411,22.779 50.718,25.683 48.584,25.855 C46.627,26.013 45.712,24.642 45.289,23.504 L45.178,23.204 L45.066,23.504 C44.497,25.038 42.965,26.664 41.141,26.806 C39.951,26.898 38.849,26.404 38.166,25.486 L38.088,25.380 L37.991,25.468 C36.954,26.410 35.930,26.888 34.948,26.888 L34.925,26.888 C33.886,26.880 33.004,26.489 32.373,25.756 C31.758,25.043 31.433,24.027 31.433,22.896 C31.433,19.738 33.007,13.509 33.007,10.286 C33.007,8.889 32.322,8.174 31.441,8.174 C28.505,8.174 26.318,15.261 23.359,23.430 C23.269,23.678 23.188,23.915 23.112,24.136 C22.682,25.393 22.423,26.150 21.559,26.150 C21.309,26.149 21.120,26.076 20.981,25.929 C20.535,25.456 20.595,24.223 20.672,22.660 C20.684,22.412 20.696,22.155 20.708,21.890 C20.788,20.002 20.892,18.267 20.969,16.736 C21.335,9.513 21.186,6.089 19.194,6.089 C17.470,6.089 16.123,8.312 14.339,14.422 C12.480,20.789 11.519,24.273 11.091,25.548 C10.803,26.407 10.238,26.760 9.371,26.624 C8.704,26.521 8.794,25.131 8.906,23.372 C8.932,22.973 8.959,22.553 8.979,22.119 C9.097,19.586 9.237,17.359 9.360,15.394 C9.742,9.296 9.953,5.937 8.794,4.693 C8.451,4.325 7.994,4.144 7.379,4.139 C5.896,4.139 4.741,5.575 3.848,8.529 C3.790,8.720 3.658,9.040 3.418,9.040 C3.050,9.040 2.564,8.335 2.543,7.543 C2.508,6.240 3.134,4.731 4.138,3.699 C4.764,3.055 5.834,2.289 7.375,2.289 L7.410,2.289 C10.296,2.311 11.604,4.074 11.653,8.006 C11.692,11.224 11.167,16.820 10.877,19.965 C11.352,18.096 11.889,16.033 12.198,14.977 C13.546,10.375 15.397,3.853 19.260,3.853 L19.288,3.853 C20.318,3.861 21.108,4.168 21.706,4.791 C22.814,5.946 23.295,8.240 23.178,11.806 C23.101,14.168 22.950,16.668 22.732,19.239 L22.634,20.392 L22.964,19.282 C23.165,18.607 23.400,17.827 23.616,17.151 C25.970,9.774 28.431,6.187 31.588,6.187 L31.621,6.188 C33.783,6.204 35.029,7.727 35.029,10.524 C35.029,13.152 33.398,20.412 33.398,22.821 C33.398,24.251 34.061,25.110 35.215,25.119 C35.963,25.119 36.718,24.709 37.459,23.901 L37.498,23.859 L37.489,23.803 C37.474,23.701 37.459,23.599 37.450,23.493 C37.285,21.485 37.877,19.527 39.116,17.980 C40.176,16.655 41.626,15.767 42.899,15.663 C43.011,15.654 43.119,15.649 43.224,15.649 C44.416,15.649 45.059,16.230 45.389,16.717 L45.564,16.929 L45.611,16.631 C45.844,15.194 46.327,14.878 47.081,14.817 C47.566,14.779 47.933,14.871 48.116,15.100 C48.300,15.329 48.335,15.708 48.221,16.227 C48.144,16.576 48.054,16.954 47.960,17.348 C47.439,19.537 46.789,22.261 47.644,23.353 C47.899,23.679 48.272,23.846 48.761,23.850 C50.523,23.850 52.275,19.532 53.162,16.959 C53.589,15.721 53.764,15.549 54.597,15.549 L54.640,15.549 C55.001,15.552 55.250,15.642 55.399,15.824 C55.606,16.079 55.547,16.527 55.507,17.230 C55.322,20.491 55.243,24.423 57.586,24.423 C58.560,24.423 59.773,23.630 61.003,22.192 L61.047,22.140 L61.025,22.076 C60.642,20.931 60.406,19.659 60.324,18.299 C59.929,11.753 61.018,6.017 63.099,3.687 C63.781,2.923 64.562,2.513 65.421,2.469 C65.478,2.466 65.534,2.465 65.588,2.465 C67.831,2.465 68.428,4.915 68.534,6.971 C68.764,11.412 66.437,18.033 63.123,22.373 L63.082,22.426 L63.106,22.488 C63.682,23.977 64.574,24.698 65.779,24.639 C66.764,24.588 67.667,23.719 68.152,23.253 L68.247,23.163 C68.448,22.971 68.719,22.996 68.907,23.205 C69.056,23.371 69.125,23.617 69.097,23.879 C68.985,24.905 67.721,26.383 65.638,26.491 ZM45.145,18.819 C44.845,18.119 44.190,17.368 43.256,17.361 L43.241,17.361 C42.502,17.361 41.705,17.783 40.999,18.551 C39.891,19.755 39.252,21.490 39.374,22.972 C39.471,24.156 39.984,24.757 40.900,24.757 C40.958,24.757 41.018,24.753 41.080,24.749 C43.288,24.571 44.513,21.467 45.151,18.894 L45.161,18.855 L45.145,18.819 ZM65.464,13.451 C66.710,9.379 66.699,5.801 65.974,4.820 C65.822,4.613 65.639,4.509 65.431,4.509 L65.399,4.509 C63.779,4.594 61.918,10.725 62.236,16.880 C62.282,17.753 62.345,18.778 62.475,19.763 L62.519,20.100 L62.695,19.809 C63.794,17.977 64.751,15.779 65.464,13.451 ZM55.383,12.352 L55.383,12.471 L55.371,12.352 C54.561,12.346 53.907,11.693 53.914,10.898 C53.919,10.107 54.578,9.465 55.393,9.465 C56.203,9.471 56.857,10.124 56.850,10.920 C56.844,11.710 56.186,12.352 55.383,12.352 Z" class="cls-1"/>
</svg>
