<svg xmlns="http://www.w3.org/2000/svg" xmlns:xlink="http://www.w3.org/1999/xlink" preserveAspectRatio="xMidYMid" width="145" height="43" viewBox="0 0 145 43">
  <defs>
    <style>
      .cls-1, .cls-2 {
        fill: #000;
      }

      .cls-1 {
        fill-rule: evenodd;
      }

      .cls-2 {
        stroke: #000;
        stroke-width: 2px;
        fill-opacity: 0;
      }
    </style>
  </defs>
  <path d="M93.951,25.168 L90.882,20.301 L90.882,25.168 L89.613,25.168 L89.613,18.082 L90.982,18.082 L94.010,22.879 L94.010,18.082 L95.280,18.082 L95.280,25.168 L93.951,25.168 ZM83.922,25.298 C83.162,25.298 82.422,25.038 81.883,24.498 C81.113,23.729 80.983,22.789 80.983,21.630 C80.983,20.470 81.113,19.521 81.883,18.751 C82.422,18.212 83.162,17.952 83.922,17.952 C84.681,17.952 85.421,18.212 85.960,18.751 C86.730,19.521 86.860,20.470 86.860,21.630 C86.860,22.789 86.730,23.729 85.960,24.498 C85.421,25.038 84.681,25.298 83.922,25.298 ZM85.041,19.591 C84.761,19.291 84.331,19.121 83.922,19.121 C83.512,19.121 83.082,19.291 82.802,19.591 C82.312,20.101 82.292,20.980 82.292,21.630 C82.292,22.279 82.312,23.149 82.802,23.659 C83.082,23.959 83.512,24.128 83.922,24.128 C84.331,24.128 84.761,23.959 85.041,23.659 C85.531,23.149 85.551,22.279 85.551,21.630 C85.551,20.980 85.531,20.101 85.041,19.591 ZM77.152,25.168 L75.862,25.168 L75.862,19.281 L73.763,19.281 L73.763,18.082 L79.250,18.082 L79.250,19.281 L77.152,19.281 L77.152,25.168 ZM69.792,25.168 L68.502,25.168 L68.502,19.281 L66.404,19.281 L66.404,18.082 L71.891,18.082 L71.891,19.281 L69.792,19.281 L69.792,25.168 ZM61.432,25.298 C59.603,25.298 58.653,24.138 58.653,22.449 L58.653,18.082 L59.943,18.082 L59.943,22.429 C59.943,23.439 60.402,24.128 61.432,24.128 C62.461,24.128 62.921,23.439 62.921,22.429 L62.921,18.082 L64.210,18.082 L64.210,22.449 C64.210,24.138 63.261,25.298 61.432,25.298 ZM55.421,24.698 C54.871,25.118 54.211,25.178 53.532,25.178 L50.713,25.178 L50.713,18.082 L53.532,18.082 C54.102,18.082 54.691,18.162 55.171,18.472 C55.691,18.811 55.990,19.401 55.990,20.011 C55.990,20.590 55.721,21.240 55.121,21.510 C55.791,21.820 56.140,22.449 56.140,23.109 C56.140,23.739 55.930,24.308 55.421,24.698 ZM53.582,19.191 L51.993,19.191 L51.993,20.970 L53.612,20.970 C54.191,20.970 54.681,20.760 54.681,20.091 C54.681,19.411 54.161,19.191 53.582,19.191 ZM53.622,22.050 L51.993,22.050 L51.993,24.019 L53.582,24.019 C54.181,24.019 54.831,23.799 54.831,23.079 C54.831,22.319 54.301,22.050 53.622,22.050 Z" class="cls-1"/>
  <rect width="145" height="43" class="cls-2"/>
</svg>
