<svg xmlns="http://www.w3.org/2000/svg" xmlns:xlink="http://www.w3.org/1999/xlink" preserveAspectRatio="xMidYMid" width="125" height="31" viewBox="0 0 125 31">
  <defs>
    <style>
      .cls-1 {
        fill: #000;
        fill-rule: evenodd;
      }
    </style>
  </defs>
  <path d="M124.806,23.685 C119.583,32.386 111.310,29.862 108.826,27.885 C107.768,28.590 105.914,30.134 103.442,29.956 C98.176,29.577 96.291,22.184 96.291,22.184 C96.329,22.213 94.723,22.728 93.854,22.719 C93.843,24.887 91.936,30.066 86.788,30.000 C81.012,29.926 79.837,21.470 79.837,21.470 C79.837,21.470 79.262,22.254 77.077,23.036 C77.187,21.370 77.106,29.746 70.183,29.869 C64.710,29.967 63.232,21.340 63.232,21.340 C63.232,21.340 62.283,22.309 60.442,22.645 C60.559,20.952 60.369,29.898 53.445,29.869 C48.766,29.850 47.167,24.555 47.291,23.820 C47.450,22.883 45.710,30.001 41.164,29.890 C39.289,29.836 37.891,28.502 37.013,26.723 C35.838,28.043 34.133,29.890 32.219,29.890 C28.785,29.890 27.272,27.068 27.528,19.007 C27.550,18.051 27.480,17.675 26.512,17.532 C25.932,17.437 25.337,17.257 24.708,17.162 C24.507,17.823 22.796,29.675 16.915,29.900 C14.943,29.975 13.864,28.296 12.978,27.050 C11.620,28.815 9.827,29.956 7.273,29.956 C2.947,29.956 -0.000,26.520 -0.000,22.282 C-0.000,18.043 2.947,14.607 7.273,14.607 C8.038,14.607 8.253,14.715 8.952,14.915 C7.515,2.060 10.908,0.051 13.877,0.051 C16.727,0.051 21.596,6.550 14.745,23.037 C16.266,27.954 19.545,27.676 21.121,17.553 C21.442,15.495 20.584,12.719 21.919,12.331 C24.357,11.623 24.615,13.748 25.759,14.102 C26.967,14.476 27.673,14.440 28.834,14.678 C30.817,15.058 31.591,16.105 31.349,18.436 C31.059,21.386 30.551,25.679 32.099,26.202 C33.215,26.582 35.252,24.309 35.610,23.065 C35.967,21.820 36.042,21.395 36.074,20.482 C36.122,18.531 36.183,17.102 36.521,15.627 C36.666,15.056 36.831,14.678 37.488,14.652 C38.029,14.639 39.018,14.479 39.454,14.812 C40.034,15.240 39.961,15.675 39.895,16.819 C39.220,33.130 44.414,24.987 45.963,18.467 C45.411,11.095 45.790,0.186 50.492,0.003 C52.937,-0.093 54.018,1.832 54.137,3.269 C54.473,7.327 52.589,14.048 50.112,18.569 C48.695,27.792 56.303,29.615 57.520,22.253 C55.530,21.324 53.378,17.560 55.129,15.726 C56.111,14.697 60.200,16.175 60.267,19.400 C62.272,18.873 62.540,17.761 62.568,17.945 C62.017,10.573 62.528,0.186 67.230,0.003 C69.675,-0.093 70.756,1.832 70.875,3.269 C71.211,7.327 69.327,14.048 66.850,18.569 C65.433,27.792 73.041,29.615 74.258,22.253 C72.784,21.974 69.673,17.971 71.468,15.726 C72.427,14.526 76.501,17.021 76.957,19.507 C78.884,18.971 79.146,17.894 79.173,18.076 C78.622,10.703 79.133,0.316 83.835,0.133 C86.280,0.038 87.361,1.963 87.480,3.399 C87.817,7.457 85.932,14.179 83.455,18.699 C82.039,27.922 89.647,29.746 90.863,22.384 C88.838,22.052 85.960,17.826 88.276,15.663 C89.202,14.799 92.738,17.042 93.566,19.601 C94.716,19.557 95.432,19.168 95.586,19.128 C93.749,10.474 95.116,0.089 100.175,0.003 C102.909,-0.044 105.582,1.455 104.408,9.689 C103.289,17.545 99.263,20.842 99.272,20.892 C99.507,21.833 101.572,29.710 106.774,25.554 C106.505,24.955 106.235,24.343 106.084,23.601 C105.222,19.282 106.916,14.404 111.519,13.616 C114.156,13.164 116.640,14.426 117.033,17.270 C117.679,21.923 113.402,25.294 111.776,26.025 C111.047,25.618 118.379,30.238 122.730,20.980 C122.982,20.451 123.286,20.496 123.680,20.768 C123.958,20.961 125.544,22.436 124.806,23.685 ZM10.420,21.138 C10.199,20.488 9.744,19.055 9.584,18.434 C8.699,17.678 8.067,17.555 6.932,17.555 C4.408,17.555 2.922,19.848 2.922,22.320 C2.922,24.793 4.540,27.086 7.064,27.086 C9.252,27.086 10.916,25.624 11.424,23.556 C11.069,22.749 10.716,22.009 10.420,21.138 ZM13.815,3.453 C12.042,3.453 11.440,7.610 11.557,11.156 C11.660,14.291 12.552,17.052 13.014,18.288 C13.132,18.443 13.110,18.342 13.215,18.507 C16.294,11.878 15.017,3.453 13.815,3.453 ZM50.745,3.584 C48.453,3.326 48.468,12.707 48.752,14.812 C49.943,12.941 52.011,4.088 50.745,3.584 ZM67.483,3.584 C65.191,3.326 65.206,12.707 65.490,14.812 C66.681,12.941 68.749,4.088 67.483,3.584 ZM84.088,3.715 C81.796,3.456 81.811,12.838 82.096,14.942 C83.286,13.071 85.354,4.218 84.088,3.715 ZM100.428,3.035 C96.856,3.739 97.688,15.439 98.230,17.490 C102.437,11.814 102.523,2.822 100.428,3.035 ZM113.812,17.655 C113.630,16.909 112.722,16.510 112.096,16.608 C110.303,16.849 108.563,19.043 109.236,22.384 C109.386,23.128 109.761,23.813 109.755,23.790 C113.768,21.145 114.109,19.060 113.812,17.655 ZM38.192,12.070 C36.761,12.070 35.601,10.930 35.601,9.524 C35.601,8.118 36.761,6.978 38.192,6.978 C39.622,6.978 40.782,8.118 40.782,9.524 C40.782,10.930 39.622,12.070 38.192,12.070 Z" class="cls-1"/>
</svg>
