<svg xmlns="http://www.w3.org/2000/svg" xmlns:xlink="http://www.w3.org/1999/xlink" preserveAspectRatio="xMidYMid" width="136" height="45" viewBox="0 0 136 45">
  <defs>
    <style>
      .cls-1 {
        fill: #000;
        fill-rule: evenodd;
      }
    </style>
  </defs>
  <path d="M7.793,6.000 C6.549,6.000 4.936,7.339 3.985,8.231 C1.894,10.116 -0.000,13.582 -0.000,16.365 C-0.000,20.318 3.311,21.810 4.148,21.810 C4.424,21.810 4.659,21.666 4.659,21.285 C4.659,20.987 4.473,20.739 4.288,20.484 C3.521,19.294 3.275,18.158 3.275,16.625 C3.275,13.430 4.726,10.502 5.929,9.162 C6.151,8.920 6.653,8.396 6.802,8.396 C6.951,8.396 6.988,8.519 6.988,8.900 L6.848,29.810 C6.848,33.079 5.920,34.377 5.920,35.147 C5.920,35.485 6.064,35.573 6.339,35.573 C7.642,35.573 8.941,33.960 9.309,33.371 C10.450,31.370 10.730,29.807 10.730,25.300 L10.730,7.729 C10.730,7.253 10.599,7.048 10.154,6.755 C9.504,6.335 8.758,6.000 7.793,6.000 L7.793,6.000 ZM45.059,6.058 C44.446,6.058 44.184,6.384 44.155,7.391 L44.019,11.561 L40.428,11.434 C40.210,11.428 40.112,11.498 40.016,11.693 C39.711,12.274 39.551,12.729 39.551,13.486 C39.551,14.103 39.826,14.169 40.072,14.169 L43.808,14.278 L43.797,22.244 C43.797,23.934 42.747,26.126 40.884,27.949 C40.884,27.949 41.044,27.398 41.035,26.821 C41.035,25.186 39.999,23.705 38.618,22.657 L35.248,20.081 C35.954,19.251 37.151,17.605 37.151,16.215 C37.151,15.137 36.484,14.684 35.240,14.684 C33.484,14.684 31.448,16.317 31.448,18.739 C31.448,19.622 31.835,20.417 32.423,21.025 C31.611,22.589 30.462,24.647 29.610,26.113 C28.965,27.235 27.875,28.954 27.231,28.954 C26.756,28.954 26.536,28.195 26.536,25.276 C26.536,22.852 26.705,20.216 26.791,17.685 C26.791,17.105 26.697,16.570 25.956,16.046 C25.274,15.602 24.431,14.982 23.564,14.982 C21.635,14.982 20.321,16.784 19.419,18.547 C18.487,20.373 17.982,21.913 17.270,24.146 L17.349,16.460 C17.373,15.912 17.237,15.699 16.805,15.513 C16.245,15.271 15.420,14.993 14.689,14.993 C14.078,14.993 14.003,15.261 14.003,15.913 L13.921,25.136 L13.911,28.694 C13.911,31.901 14.307,32.436 16.181,32.436 C17.218,32.436 17.551,32.312 17.571,31.436 C17.600,30.857 17.872,29.453 18.242,28.046 C19.321,23.892 20.600,20.606 22.805,18.101 C23.035,17.859 23.213,17.945 23.177,18.290 C23.177,18.290 22.828,23.912 22.828,26.212 C22.828,30.302 23.448,32.436 25.452,32.436 C27.419,32.436 29.350,29.870 30.404,28.137 L33.786,22.392 C35.978,24.289 37.508,25.759 37.508,27.548 C37.508,28.660 36.817,29.748 35.765,29.748 C34.450,29.748 33.610,28.340 32.722,28.340 C31.984,28.340 31.038,29.785 31.038,30.606 C31.038,31.380 32.703,32.477 35.690,32.477 C40.100,32.477 42.465,29.403 43.885,26.000 C44.157,30.039 45.741,32.399 48.213,32.399 C49.834,32.399 51.708,30.319 52.560,27.778 C52.560,27.778 52.645,28.437 53.292,29.789 C54.183,31.553 55.537,32.364 57.220,32.364 C59.313,32.364 61.102,31.075 62.195,28.913 C62.361,30.552 63.715,32.356 65.893,32.356 C67.261,32.356 68.507,31.292 69.325,29.540 C69.325,29.540 70.385,32.434 73.450,32.434 C75.172,32.434 77.211,30.814 77.698,29.637 L77.752,31.348 L73.203,35.608 C71.883,36.910 70.478,38.781 70.478,40.851 C70.478,43.485 72.927,45.000 75.082,45.000 C77.322,45.000 78.809,43.559 79.623,42.351 C80.648,40.788 81.080,37.843 81.080,34.964 L80.979,30.635 C84.044,27.213 86.443,22.483 87.511,19.136 L89.838,19.074 C90.289,19.043 90.266,19.223 90.204,19.490 C89.795,21.245 89.438,23.233 89.438,25.212 C89.438,28.482 90.180,29.905 91.246,31.068 C92.172,32.043 93.094,32.372 94.065,32.372 C95.962,32.372 97.153,30.780 97.531,29.777 C98.422,31.542 99.734,32.364 101.417,32.364 C103.509,32.364 105.299,31.075 106.392,28.913 C106.558,30.552 107.912,32.356 110.090,32.356 C111.718,32.356 112.661,31.402 113.403,29.606 C113.419,30.184 113.441,30.800 113.457,31.378 C113.477,31.677 113.712,31.866 113.922,31.944 C114.614,32.209 115.221,32.342 115.767,32.342 C117.189,32.342 117.498,32.046 117.498,31.101 C117.498,29.544 117.543,27.083 117.979,25.107 C118.441,23.140 119.139,20.913 120.103,19.364 C120.189,19.204 120.402,19.246 120.411,19.440 C120.549,22.755 120.768,28.367 121.625,29.820 C122.048,30.513 122.703,31.018 123.682,31.018 C124.141,31.018 124.704,30.819 124.848,30.695 C124.994,30.579 125.068,30.451 125.059,30.213 C125.059,25.975 126.360,21.872 127.663,19.113 C127.699,19.031 127.801,19.025 127.797,19.132 L127.725,22.186 C127.725,27.201 128.081,30.370 130.548,31.893 C130.925,32.106 131.456,32.311 132.135,32.311 C133.397,32.311 134.542,31.595 135.107,30.444 C135.568,29.550 136.000,27.828 136.000,26.852 C136.000,26.474 136.004,25.860 135.395,25.860 C135.060,25.860 134.860,26.110 134.780,26.488 C134.586,27.307 134.426,28.010 134.125,28.820 C133.837,29.593 133.407,30.044 132.897,30.044 C132.299,30.044 131.995,29.565 131.821,29.269 C131.057,28.086 130.996,25.367 130.996,23.098 L131.180,17.257 C131.180,16.774 130.981,16.196 130.247,15.770 C129.754,15.482 128.507,14.939 127.744,14.939 C127.036,14.939 126.693,15.347 126.438,15.945 C125.958,17.019 124.357,21.231 123.927,24.656 C123.912,24.746 123.801,24.765 123.793,24.650 C123.570,22.228 123.455,19.310 123.458,17.341 C123.458,16.746 123.314,15.895 122.071,15.344 C121.467,15.089 120.967,14.933 120.357,14.933 C119.600,14.933 119.437,15.310 119.166,15.809 C118.308,17.418 117.715,19.517 116.826,22.165 L116.839,16.106 C116.839,15.823 116.668,15.451 116.178,15.351 C114.964,15.068 114.401,14.939 113.922,14.939 C113.574,14.939 113.382,15.221 113.382,15.527 L113.317,25.856 C113.082,27.121 112.130,30.139 110.780,30.139 C109.671,30.139 109.154,28.998 109.154,24.230 L109.355,16.481 C109.355,15.992 109.038,15.786 108.577,15.579 C107.918,15.313 107.394,15.208 106.724,15.208 C105.883,15.208 105.594,15.616 105.764,16.598 C104.840,15.328 103.915,14.626 102.282,14.626 C99.004,14.626 96.533,18.631 96.533,24.450 C96.501,26.082 96.889,27.704 96.889,27.704 C96.593,29.058 95.896,30.162 94.932,30.162 C93.717,30.162 92.942,28.417 92.942,25.393 C92.942,22.360 94.080,18.939 94.080,18.012 C94.080,16.934 93.384,16.252 92.153,16.252 C91.536,16.252 89.249,16.779 88.076,16.952 C88.076,16.952 88.208,16.385 88.199,15.939 C88.199,14.876 87.707,14.210 86.488,14.210 C84.998,14.210 83.905,15.290 83.905,17.133 C83.905,17.960 84.374,18.725 84.995,19.136 C84.189,22.550 82.879,25.088 80.948,27.924 L81.111,16.441 C81.111,16.067 81.013,15.835 80.293,15.552 C79.912,15.385 79.292,15.192 78.510,15.192 C77.377,15.192 77.452,16.014 77.512,16.629 C76.994,15.695 75.858,14.587 74.107,14.587 C69.335,14.587 67.869,21.978 68.588,27.227 C68.588,27.867 67.973,30.139 66.583,30.139 C65.474,30.139 64.957,28.998 64.957,24.230 L65.160,16.481 C65.160,15.992 64.841,15.786 64.380,15.579 C63.721,15.313 63.199,15.208 62.529,15.208 C61.688,15.208 61.399,15.616 61.569,16.598 C60.644,15.328 59.718,14.626 58.085,14.626 C54.807,14.626 52.304,18.288 52.304,24.108 C52.304,26.329 50.420,29.719 49.100,29.719 C48.366,29.719 47.585,28.351 47.585,24.856 C47.589,22.474 47.909,14.365 47.909,14.365 L52.518,14.290 C52.738,14.287 52.866,14.043 52.947,13.893 C53.159,13.457 53.261,13.166 53.261,12.644 C53.261,12.173 53.168,12.001 52.574,11.967 L47.979,11.687 L48.175,7.340 C48.188,7.066 48.025,6.887 47.730,6.753 C46.840,6.400 45.750,6.059 45.059,6.059 L45.059,6.058 ZM59.010,17.448 C60.239,17.448 61.487,18.586 61.487,22.625 C61.487,27.711 59.662,30.076 58.260,30.076 C56.945,30.076 55.946,28.191 55.946,24.489 C55.946,20.746 56.921,17.448 59.010,17.448 L59.010,17.448 ZM103.272,17.448 C104.502,17.448 105.749,18.586 105.749,22.625 C105.749,27.711 103.924,30.076 102.522,30.076 C101.207,30.076 100.208,28.191 100.208,24.489 C100.208,20.746 101.183,17.448 103.272,17.448 L103.272,17.448 ZM75.199,17.471 C76.803,17.471 77.512,19.150 77.512,22.406 C77.512,27.313 76.076,30.108 74.331,30.108 C73.218,30.108 71.937,28.250 72.004,24.598 C72.004,22.262 72.754,17.471 75.199,17.471 L75.199,17.471 ZM77.914,33.889 L77.914,35.822 C77.914,42.236 76.231,43.331 74.879,43.331 C74.367,43.331 73.111,42.938 73.111,41.351 C73.111,39.133 75.395,36.609 76.105,35.830 L77.914,33.889 Z" class="cls-1"/>
</svg>
