<svg xmlns="http://www.w3.org/2000/svg" xmlns:xlink="http://www.w3.org/1999/xlink" preserveAspectRatio="xMidYMid" width="119" height="27" viewBox="0 0 119 27">
  <defs>
    <style>
      .cls-1 {
        fill: #000;
        fill-rule: evenodd;
      }
    </style>
  </defs>
  <path d="M106.982,25.807 L104.567,23.427 L113.458,14.536 L104.567,5.680 L107.017,3.230 L118.253,14.501 L106.982,25.807 ZM89.937,18.071 C89.902,19.472 90.392,20.802 91.268,21.642 C91.898,22.237 92.773,22.762 93.963,22.762 C95.223,22.762 95.993,22.517 96.623,21.887 C97.008,21.502 97.323,21.012 97.498,20.347 L101.699,20.347 C101.594,21.432 100.859,22.867 100.158,23.707 C98.618,25.527 96.343,26.262 94.033,26.262 C91.548,26.262 89.727,25.387 88.292,24.022 C86.472,22.272 85.492,19.717 85.492,16.741 C85.492,13.836 86.367,11.246 88.117,9.460 C89.482,8.060 91.443,7.150 93.928,7.150 C96.623,7.150 99.073,8.235 100.578,10.511 C101.909,12.506 102.224,14.571 102.154,16.846 C102.154,16.846 102.119,17.686 102.119,18.071 L89.937,18.071 ZM96.658,11.701 C96.063,11.071 95.153,10.651 93.893,10.651 C92.563,10.651 91.478,11.211 90.847,12.051 C90.217,12.856 89.937,13.696 89.902,14.886 L97.778,14.886 C97.743,13.521 97.358,12.471 96.658,11.701 ZM77.758,23.812 C76.673,25.492 74.643,26.227 72.648,26.227 C70.828,26.227 69.322,25.597 68.202,24.687 C66.032,22.902 64.982,20.172 64.982,16.741 C64.982,13.171 66.067,10.406 68.237,8.620 C69.357,7.710 70.828,7.150 72.683,7.150 C74.993,7.150 76.673,7.920 77.443,8.865 L77.443,0.535 L81.819,0.535 L81.819,25.807 L78.038,25.807 L77.758,23.812 ZM73.523,10.826 C72.158,10.826 71.213,11.456 70.583,12.261 C69.672,13.451 69.427,15.096 69.427,16.671 C69.427,18.246 69.672,19.927 70.583,21.117 C71.213,21.922 72.158,22.552 73.523,22.552 C76.953,22.552 77.653,19.296 77.653,16.671 C77.653,14.046 76.953,10.826 73.523,10.826 ZM54.063,26.262 C51.298,26.262 48.953,24.967 47.692,23.427 C46.327,21.712 45.557,19.787 45.557,16.706 C45.557,13.626 46.327,11.701 47.692,9.986 C48.953,8.445 51.298,7.150 54.063,7.150 C56.828,7.150 59.174,8.445 60.434,9.986 C61.799,11.701 62.569,13.626 62.569,16.706 C62.569,19.787 61.799,21.712 60.434,23.427 C59.174,24.967 56.828,26.262 54.063,26.262 ZM56.828,12.121 C56.233,11.491 55.253,10.966 54.063,10.966 C52.873,10.966 51.893,11.491 51.298,12.121 C50.248,13.276 50.003,14.991 50.003,16.706 C50.003,18.421 50.248,20.137 51.298,21.292 C51.893,21.922 52.873,22.447 54.063,22.447 C55.253,22.447 56.233,21.922 56.828,21.292 C57.879,20.137 58.124,18.421 58.124,16.706 C58.124,14.991 57.879,13.276 56.828,12.121 ZM35.828,22.412 C37.159,22.412 38.104,21.852 38.629,21.047 C38.909,20.592 39.119,20.032 39.154,19.367 L43.459,19.367 C43.389,20.802 42.899,22.237 42.059,23.322 C40.799,24.897 38.594,26.192 35.828,26.192 C33.063,26.192 30.753,24.862 29.493,23.322 C28.128,21.607 27.498,19.331 27.498,16.671 C27.498,14.011 28.128,11.736 29.493,10.021 C30.753,8.480 33.063,7.150 35.828,7.150 C38.594,7.150 40.799,8.445 42.059,10.021 C42.899,11.106 43.389,12.541 43.459,13.976 L39.154,13.976 C39.119,13.311 38.909,12.751 38.629,12.296 C38.104,11.491 37.159,10.931 35.828,10.931 C34.638,10.931 33.763,11.421 33.168,12.051 C32.118,13.206 31.943,14.956 31.943,16.671 C31.943,18.386 32.118,20.102 33.168,21.257 C33.763,21.887 34.638,22.412 35.828,22.412 ZM14.513,26.262 L25.259,0.535 L28.479,0.535 L17.733,26.262 L14.513,26.262 ZM11.049,25.807 L-0.222,14.501 L11.014,3.230 L13.465,5.680 L4.574,14.536 L13.465,23.427 L11.049,25.807 Z" class="cls-1"/>
</svg>
