<svg xmlns="http://www.w3.org/2000/svg" xmlns:xlink="http://www.w3.org/1999/xlink" preserveAspectRatio="xMidYMid" width="91" height="9" viewBox="0 0 91 9">
  <defs>
    <style>
      .cls-1, .cls-2 {
        fill: #469c00;
      }

      .cls-1 {
        fill-rule: evenodd;
      }
    </style>
  </defs>
  <g>
    <path d="M90.730,9.121 L89.137,9.121 L87.086,5.699 L85.703,5.699 L85.703,9.121 L84.303,9.121 L84.303,0.555 L86.722,0.555 C87.828,0.555 88.646,0.762 89.178,1.176 C89.709,1.590 89.974,2.215 89.974,3.051 C89.974,4.117 89.420,4.877 88.310,5.330 L90.730,9.121 ZM88.533,3.098 C88.533,2.613 88.375,2.266 88.058,2.055 C87.742,1.844 87.265,1.738 86.629,1.738 L85.703,1.738 L85.703,4.539 L86.676,4.539 C87.328,4.539 87.801,4.418 88.094,4.176 C88.387,3.934 88.533,3.574 88.533,3.098 ZM77.605,0.555 L82.451,0.555 L82.451,1.738 L79.006,1.738 L79.006,4.070 L82.234,4.070 L82.234,5.242 L79.006,5.242 L79.006,7.932 L82.451,7.932 L82.451,9.121 L77.605,9.121 L77.605,0.555 ZM73.621,9.121 L72.215,9.121 L72.215,5.846 L69.373,0.555 L70.896,0.555 L72.924,4.463 L74.951,0.555 L76.474,0.555 L73.621,5.799 L73.621,9.121 ZM67.885,9.121 L67.029,6.742 L63.754,6.742 L62.916,9.121 L61.439,9.121 L64.644,0.520 L66.168,0.520 L69.373,9.121 L67.885,9.121 ZM65.857,3.203 C65.799,3.047 65.718,2.801 65.614,2.465 C65.511,2.129 65.439,1.883 65.400,1.727 C65.295,2.207 65.140,2.733 64.937,3.303 L64.164,5.535 L66.660,5.535 L65.857,3.203 ZM56.066,0.555 L57.467,0.555 L57.467,7.920 L61.094,7.920 L61.094,9.121 L56.066,9.121 L56.066,0.555 ZM46.252,0.555 L51.097,0.555 L51.097,1.738 L47.652,1.738 L47.652,4.070 L50.881,4.070 L50.881,5.242 L47.652,5.242 L47.652,7.932 L51.097,7.932 L51.097,9.121 L46.252,9.121 L46.252,0.555 ZM40.644,9.121 L37.656,0.555 L39.097,0.555 L40.885,5.881 C40.978,6.135 41.078,6.462 41.183,6.862 C41.289,7.263 41.357,7.561 41.388,7.756 C41.439,7.459 41.517,7.115 41.623,6.725 C41.728,6.334 41.814,6.045 41.881,5.858 L43.668,0.555 L45.121,0.555 L42.121,9.121 L40.644,9.121 ZM35.125,0.555 L36.525,0.555 L36.525,9.121 L35.125,9.121 L35.125,0.555 ZM31.293,9.121 L29.892,9.121 L29.892,1.756 L27.373,1.756 L27.373,0.555 L33.812,0.555 L33.812,1.756 L31.293,1.756 L31.293,9.121 ZM25.389,1.788 C25.067,1.685 24.728,1.633 24.373,1.633 C23.568,1.633 22.935,1.918 22.474,2.488 C22.013,3.059 21.783,3.846 21.783,4.850 C21.783,5.901 22.005,6.695 22.448,7.234 C22.891,7.774 23.533,8.043 24.373,8.043 C24.736,8.043 25.088,8.007 25.428,7.935 C25.767,7.862 26.121,7.770 26.488,7.656 L26.488,8.858 C25.816,9.112 25.054,9.238 24.203,9.238 C22.949,9.238 21.986,8.859 21.314,8.099 C20.642,7.339 20.306,6.252 20.306,4.838 C20.306,3.947 20.469,3.168 20.796,2.500 C21.122,1.832 21.593,1.320 22.211,0.965 C22.828,0.610 23.553,0.432 24.385,0.432 C25.260,0.432 26.068,0.615 26.810,0.983 L26.306,2.149 C26.017,2.012 25.712,1.892 25.389,1.788 ZM17.254,6.742 L13.978,6.742 L13.140,9.121 L11.664,9.121 L14.869,0.520 L16.392,0.520 L19.597,9.121 L18.109,9.121 L17.254,6.742 ZM16.082,3.203 C16.023,3.047 15.942,2.801 15.839,2.465 C15.735,2.129 15.664,1.883 15.625,1.727 C15.519,2.207 15.365,2.733 15.162,3.303 L14.388,5.535 L16.885,5.535 L16.082,3.203 Z" class="cls-1"/>
    <circle cx="3.5" cy="4.5" r="3.5" class="cls-2"/>
  </g>
</svg>
