<svg xmlns="http://www.w3.org/2000/svg" xmlns:xlink="http://www.w3.org/1999/xlink" preserveAspectRatio="xMidYMid" width="36" height="46" viewBox="0 0 36 46">
  <defs>
    <style>
      .cls-1 {
        fill: #fff;
        fill-rule: evenodd;
      }
    </style>
  </defs>
  <path d="M28.194,38.234 C24.442,38.234 21.389,35.195 21.389,31.459 C21.389,27.724 24.442,24.685 28.194,24.685 L33.056,24.685 L33.056,9.674 L13.611,17.592 L13.611,32.427 L13.611,35.331 L13.611,39.202 C13.611,42.811 10.431,45.977 6.806,45.977 C3.053,45.977 -0.000,42.937 -0.000,39.202 C-0.000,35.467 3.053,32.427 6.806,32.427 L11.667,32.427 L11.667,9.517 L35.000,0.015 L35.000,24.685 L35.000,29.524 L35.000,31.459 C35.000,35.068 31.819,38.234 28.194,38.234 ZM11.667,35.331 L11.667,34.363 L6.806,34.363 C4.125,34.363 1.944,36.533 1.944,39.202 C1.944,41.871 4.125,44.041 6.806,44.041 C9.587,44.041 11.667,41.485 11.667,39.202 L11.667,35.331 ZM28.194,26.620 C25.514,26.620 23.333,28.790 23.333,31.459 C23.333,34.128 25.514,36.298 28.194,36.298 C30.976,36.298 33.056,33.743 33.056,31.459 L33.056,29.524 L33.056,26.620 L28.194,26.620 ZM13.611,10.817 L13.611,15.500 L33.056,7.582 L33.056,2.899 L13.611,10.817 Z" class="cls-1"/>
</svg>
