<svg xmlns="http://www.w3.org/2000/svg" xmlns:xlink="http://www.w3.org/1999/xlink" preserveAspectRatio="xMidYMid" width="325" height="72" viewBox="0 0 325 72">
  <defs>
    <style>
      .cls-1 {
        fill: #fff;
        fill-rule: evenodd;
      }
    </style>
  </defs>
  <path d="M294.089,70.691 L287.463,64.035 L311.855,39.171 L287.463,14.406 L294.185,7.554 L325.009,39.073 L294.089,70.691 ZM247.328,49.057 C247.232,52.975 248.576,56.694 250.979,59.043 C252.708,60.707 255.108,62.175 258.373,62.175 C261.829,62.175 263.942,61.490 265.670,59.728 C266.726,58.652 267.590,57.281 268.071,55.422 L279.595,55.422 C279.307,58.456 277.291,62.469 275.368,64.818 C271.143,69.908 264.902,71.963 258.565,71.963 C251.747,71.963 246.752,69.516 242.815,65.699 C237.822,60.805 235.134,53.660 235.134,45.338 C235.134,37.214 237.534,29.971 242.335,24.976 C246.080,21.061 251.459,18.516 258.277,18.516 C265.670,18.516 272.391,21.551 276.520,27.915 C280.172,33.494 281.036,39.269 280.844,45.631 C280.844,45.631 280.748,47.980 280.748,49.057 L247.328,49.057 ZM265.766,31.243 C264.134,29.481 261.637,28.307 258.181,28.307 C254.532,28.307 251.555,29.873 249.824,32.222 C248.096,34.473 247.328,36.822 247.232,40.150 L268.839,40.150 C268.743,36.333 267.686,33.397 265.766,31.243 ZM213.916,65.112 C210.940,69.810 205.371,71.865 199.898,71.865 C194.905,71.865 190.773,70.103 187.701,67.559 C181.747,62.567 178.867,54.932 178.867,45.338 C178.867,35.354 181.843,27.622 187.797,22.627 C190.869,20.082 194.905,18.516 199.994,18.516 C206.331,18.516 210.940,20.670 213.052,23.312 L213.052,0.018 L225.057,0.018 L225.057,70.691 L214.684,70.691 L213.916,65.112 ZM202.298,28.796 C198.553,28.796 195.961,30.558 194.232,32.809 C191.733,36.137 191.061,40.737 191.061,45.142 C191.061,49.546 191.733,54.247 194.232,57.575 C195.961,59.826 198.553,61.588 202.298,61.588 C211.708,61.588 213.628,52.483 213.628,45.142 C213.628,37.801 211.708,28.796 202.298,28.796 ZM148.912,71.963 C141.326,71.963 134.893,68.342 131.434,64.035 C127.689,59.239 125.577,53.856 125.577,45.240 C125.577,36.627 127.689,31.243 131.434,26.447 C134.893,22.138 141.326,18.516 148.912,18.516 C156.497,18.516 162.933,22.138 166.390,26.447 C170.135,31.243 172.247,36.627 172.247,45.240 C172.247,53.856 170.135,59.239 166.390,64.035 C162.933,68.342 156.497,71.963 148.912,71.963 ZM156.497,32.418 C154.865,30.656 152.177,29.188 148.912,29.188 C145.647,29.188 142.959,30.656 141.326,32.418 C138.446,35.648 137.774,40.444 137.774,45.240 C137.774,50.036 138.446,54.835 141.326,58.064 C142.959,59.826 145.647,61.294 148.912,61.294 C152.177,61.294 154.865,59.826 156.497,58.064 C159.381,54.835 160.053,50.036 160.053,45.240 C160.053,40.444 159.381,35.648 156.497,32.418 ZM98.886,61.197 C102.538,61.197 105.130,59.631 106.571,57.379 C107.339,56.107 107.915,54.541 108.011,52.681 L119.821,52.681 C119.629,56.694 118.285,60.707 115.980,63.741 C112.524,68.146 106.475,71.767 98.886,71.767 C91.301,71.767 84.964,68.048 81.507,63.741 C77.762,58.945 76.034,52.581 76.034,45.142 C76.034,37.703 77.762,31.341 81.507,26.545 C84.964,22.236 91.301,18.516 98.886,18.516 C106.475,18.516 112.524,22.138 115.980,26.545 C118.285,29.579 119.629,33.592 119.821,37.605 L108.011,37.605 C107.915,35.746 107.339,34.180 106.571,32.907 C105.130,30.656 102.538,29.090 98.886,29.090 C95.622,29.090 93.221,30.460 91.589,32.222 C88.708,35.452 88.228,40.346 88.228,45.142 C88.228,49.938 88.708,54.737 91.589,57.967 C93.221,59.728 95.622,61.197 98.886,61.197 ZM40.411,71.963 L69.892,0.018 L78.725,0.018 L49.245,71.963 L40.411,71.963 ZM30.908,70.691 L-0.012,39.073 L30.812,7.554 L37.536,14.406 L13.145,39.171 L37.536,64.035 L30.908,70.691 Z" class="cls-1"/>
</svg>
