<svg xmlns="http://www.w3.org/2000/svg" xmlns:xlink="http://www.w3.org/1999/xlink" preserveAspectRatio="xMidYMid" width="123" height="78" viewBox="0 0 123 78">
  <defs>
    <style>
      .cls-1 {
        fill: #fff;
      }

      .cls-1, .cls-2 {
        opacity: 0.1;
      }

      .cls-2, .cls-4 {
        fill: #000;
      }

      .cls-3 {
        fill: #dfdfdf;
      }

      .cls-3, .cls-4, .cls-5 {
        fill-rule: evenodd;
      }

      .cls-5 {
        fill: #010000;
      }
    </style>
  </defs>
  <rect x="33" width="1" height="39" class="cls-1"/>
  <rect x="33" y="39" width="1" height="39" class="cls-2"/>
  <path d="M22.000,29.000 L22.000,10.000 L23.000,10.000 L23.000,29.000 L22.000,29.000 ZM18.000,10.000 L19.000,10.000 L19.000,29.000 L18.000,29.000 L18.000,10.000 ZM14.000,10.000 L15.000,10.000 L15.000,29.000 L14.000,29.000 L14.000,10.000 ZM10.000,10.000 L11.000,10.000 L11.000,29.000 L10.000,29.000 L10.000,10.000 Z" class="cls-3"/>
  <path d="M22.000,68.000 L22.000,49.000 L23.000,49.000 L23.000,68.000 L22.000,68.000 ZM18.000,49.000 L19.000,49.000 L19.000,68.000 L18.000,68.000 L18.000,49.000 ZM14.000,49.000 L15.000,49.000 L15.000,68.000 L14.000,68.000 L14.000,49.000 ZM10.000,49.000 L11.000,49.000 L11.000,68.000 L10.000,68.000 L10.000,49.000 Z" class="cls-4"/>
  <path d="M110.713,22.833 C110.897,23.040 111.149,23.144 111.469,23.144 C111.641,23.144 111.807,23.131 111.967,23.106 C112.127,23.080 112.254,23.054 112.348,23.027 L112.348,23.771 C112.243,23.821 112.087,23.863 111.882,23.897 C111.677,23.930 111.493,23.946 111.329,23.946 C110.086,23.946 109.465,23.292 109.465,21.984 L109.465,18.163 L108.545,18.163 L108.545,17.695 L109.465,17.290 L109.875,15.919 L110.438,15.919 L110.438,17.407 L112.301,17.407 L112.301,18.163 L110.438,18.163 L110.438,21.943 C110.438,22.329 110.530,22.626 110.713,22.833 ZM106.732,16.318 C106.568,16.318 106.431,16.264 106.322,16.156 C106.212,16.049 106.158,15.886 106.158,15.667 C106.158,15.445 106.212,15.281 106.322,15.178 C106.431,15.074 106.568,15.023 106.732,15.023 C106.888,15.023 107.023,15.075 107.136,15.181 C107.249,15.286 107.306,15.448 107.306,15.667 C107.306,15.886 107.249,16.049 107.136,16.156 C107.023,16.264 106.888,16.318 106.732,16.318 ZM103.137,22.968 L103.085,22.968 C102.635,23.620 101.963,23.946 101.069,23.946 C100.229,23.946 99.576,23.659 99.109,23.085 C98.642,22.511 98.409,21.695 98.409,20.636 C98.409,19.577 98.643,18.755 99.112,18.169 C99.581,17.583 100.233,17.290 101.069,17.290 C101.940,17.290 102.608,17.607 103.073,18.239 L103.149,18.239 L103.108,17.777 L103.085,17.325 L103.085,14.712 L104.057,14.712 L104.057,23.829 L103.266,23.829 L103.137,22.968 ZM103.085,20.636 C103.085,19.726 102.933,19.076 102.631,18.688 C102.328,18.299 101.844,18.105 101.180,18.105 C100.610,18.105 100.173,18.326 99.871,18.770 C99.568,19.213 99.417,19.839 99.417,20.648 C99.417,21.468 99.567,22.087 99.868,22.505 C100.169,22.923 100.610,23.132 101.192,23.132 C101.856,23.132 102.338,22.951 102.636,22.590 C102.935,22.229 103.085,21.646 103.085,20.841 L103.085,20.636 ZM92.119,15.263 L96.894,15.263 L96.894,16.148 L93.115,16.148 L93.115,18.907 L96.666,18.907 L96.666,19.786 L93.115,19.786 L93.115,22.939 L96.894,22.939 L96.894,23.829 L92.119,23.829 L92.119,15.263 ZM85.645,19.675 C85.645,19.152 85.525,18.761 85.287,18.503 C85.049,18.245 84.676,18.116 84.168,18.116 C83.496,18.116 83.004,18.298 82.691,18.661 C82.379,19.025 82.223,19.624 82.223,20.460 L82.223,23.829 L81.250,23.829 L81.250,17.407 L82.041,17.407 L82.199,18.286 L82.246,18.286 C82.445,17.970 82.725,17.725 83.084,17.551 C83.443,17.377 83.844,17.290 84.285,17.290 C85.059,17.290 85.641,17.477 86.031,17.850 C86.422,18.223 86.617,18.820 86.617,19.640 L86.617,23.829 L85.645,23.829 L85.645,19.675 ZM78.153,19.652 C78.153,19.140 78.044,18.756 77.825,18.500 C77.606,18.244 77.267,18.116 76.806,18.116 C76.200,18.116 75.753,18.290 75.464,18.638 C75.175,18.986 75.030,19.521 75.030,20.243 L75.030,23.829 L74.058,23.829 L74.058,19.652 C74.058,19.140 73.948,18.756 73.730,18.500 C73.511,18.244 73.169,18.116 72.704,18.116 C72.095,18.116 71.649,18.299 71.365,18.664 C71.082,19.030 70.941,19.628 70.941,20.460 L70.941,23.829 L69.968,23.829 L69.968,17.407 L70.759,17.407 L70.917,18.286 L70.964,18.286 C71.148,17.974 71.406,17.730 71.740,17.554 C72.074,17.378 72.448,17.290 72.862,17.290 C73.866,17.290 74.523,17.653 74.831,18.380 L74.878,18.380 C75.069,18.044 75.347,17.779 75.710,17.583 C76.073,17.388 76.487,17.290 76.952,17.290 C77.679,17.290 78.223,17.477 78.584,17.850 C78.945,18.223 79.126,18.820 79.126,19.640 L79.126,23.829 L78.153,23.829 L78.153,19.652 ZM66.842,22.968 L66.789,22.968 C66.590,23.284 66.314,23.527 65.960,23.695 C65.607,23.862 65.203,23.946 64.750,23.946 C63.969,23.946 63.384,23.761 62.995,23.390 C62.607,23.019 62.412,22.425 62.412,21.609 L62.412,17.407 L63.397,17.407 L63.397,21.573 C63.397,22.097 63.516,22.487 63.754,22.745 C63.992,23.003 64.365,23.132 64.873,23.132 C65.545,23.132 66.036,22.948 66.347,22.581 C66.657,22.214 66.813,21.614 66.813,20.782 L66.813,17.407 L67.785,17.407 L67.785,23.829 L66.983,23.829 L66.842,22.968 ZM59.328,14.712 L60.300,14.712 L60.300,23.829 L59.328,23.829 L59.328,14.712 ZM54.526,23.946 C53.952,23.946 53.442,23.812 52.997,23.542 C52.551,23.273 52.207,22.886 51.965,22.382 C51.723,21.878 51.602,21.288 51.602,20.612 C51.602,19.566 51.864,18.750 52.387,18.166 C52.911,17.582 53.637,17.290 54.567,17.290 C55.465,17.290 56.179,17.589 56.708,18.187 C57.238,18.784 57.502,19.593 57.502,20.612 C57.502,21.659 57.239,22.477 56.711,23.065 C56.184,23.653 55.455,23.946 54.526,23.946 ZM55.999,18.752 C55.669,18.328 55.182,18.116 54.538,18.116 C53.901,18.116 53.420,18.325 53.096,18.743 C52.772,19.161 52.610,19.784 52.610,20.612 C52.610,21.433 52.774,22.058 53.102,22.487 C53.430,22.917 53.913,23.132 54.549,23.132 C55.186,23.132 55.669,22.918 55.999,22.490 C56.330,22.063 56.495,21.437 56.495,20.612 C56.495,19.796 56.330,19.176 55.999,18.752 ZM48.084,16.030 C47.142,16.030 46.399,16.344 45.854,16.971 C45.309,17.598 45.037,18.456 45.037,19.546 C45.037,20.667 45.299,21.533 45.825,22.145 C46.350,22.756 47.099,23.062 48.072,23.062 C48.670,23.062 49.351,22.954 50.117,22.739 L50.117,23.612 C49.523,23.835 48.791,23.946 47.920,23.946 C46.658,23.946 45.684,23.564 44.999,22.798 C44.313,22.032 43.970,20.945 43.970,19.534 C43.970,18.652 44.135,17.878 44.465,17.214 C44.795,16.550 45.272,16.038 45.895,15.679 C46.518,15.320 47.252,15.140 48.095,15.140 C48.994,15.140 49.779,15.304 50.451,15.632 L50.029,16.487 C49.380,16.183 48.732,16.030 48.084,16.030 ZM107.212,23.829 L106.240,23.829 L106.240,17.407 L107.212,17.407 L107.212,23.829 Z" class="cls-3"/>
  <path d="M110.713,61.833 C110.897,62.040 111.149,62.144 111.469,62.144 C111.641,62.144 111.807,62.131 111.967,62.106 C112.127,62.080 112.254,62.054 112.348,62.027 L112.348,62.771 C112.243,62.821 112.087,62.863 111.882,62.897 C111.677,62.930 111.493,62.946 111.329,62.946 C110.086,62.946 109.465,62.292 109.465,60.984 L109.465,57.163 L108.545,57.163 L108.545,56.695 L109.465,56.290 L109.875,54.919 L110.438,54.919 L110.438,56.407 L112.301,56.407 L112.301,57.163 L110.438,57.163 L110.438,60.943 C110.438,61.329 110.530,61.626 110.713,61.833 ZM106.732,55.318 C106.568,55.318 106.431,55.264 106.322,55.156 C106.212,55.049 106.158,54.886 106.158,54.667 C106.158,54.445 106.212,54.281 106.322,54.178 C106.431,54.074 106.568,54.023 106.732,54.023 C106.888,54.023 107.023,54.075 107.136,54.181 C107.249,54.286 107.306,54.448 107.306,54.667 C107.306,54.886 107.249,55.049 107.136,55.156 C107.023,55.264 106.888,55.318 106.732,55.318 ZM103.137,61.968 L103.085,61.968 C102.635,62.620 101.963,62.946 101.069,62.946 C100.229,62.946 99.576,62.659 99.109,62.085 C98.642,61.511 98.409,60.695 98.409,59.636 C98.409,58.577 98.643,57.755 99.112,57.169 C99.581,56.583 100.233,56.290 101.069,56.290 C101.940,56.290 102.608,56.607 103.073,57.239 L103.149,57.239 L103.108,56.777 L103.085,56.325 L103.085,53.712 L104.057,53.712 L104.057,62.829 L103.266,62.829 L103.137,61.968 ZM103.085,59.636 C103.085,58.726 102.933,58.076 102.631,57.688 C102.328,57.299 101.844,57.105 101.180,57.105 C100.610,57.105 100.173,57.326 99.871,57.770 C99.568,58.213 99.417,58.839 99.417,59.648 C99.417,60.468 99.567,61.087 99.868,61.505 C100.169,61.923 100.610,62.132 101.192,62.132 C101.856,62.132 102.338,61.951 102.636,61.590 C102.935,61.229 103.085,60.646 103.085,59.841 L103.085,59.636 ZM92.119,54.263 L96.894,54.263 L96.894,55.148 L93.115,55.148 L93.115,57.907 L96.666,57.907 L96.666,58.786 L93.115,58.786 L93.115,61.939 L96.894,61.939 L96.894,62.829 L92.119,62.829 L92.119,54.263 ZM85.645,58.675 C85.645,58.152 85.525,57.761 85.287,57.503 C85.049,57.245 84.676,57.116 84.168,57.116 C83.496,57.116 83.004,57.298 82.691,57.661 C82.379,58.025 82.223,58.624 82.223,59.460 L82.223,62.829 L81.250,62.829 L81.250,56.407 L82.041,56.407 L82.199,57.286 L82.246,57.286 C82.445,56.970 82.725,56.725 83.084,56.551 C83.443,56.377 83.844,56.290 84.285,56.290 C85.059,56.290 85.641,56.477 86.031,56.850 C86.422,57.223 86.617,57.820 86.617,58.640 L86.617,62.829 L85.645,62.829 L85.645,58.675 ZM78.153,58.652 C78.153,58.140 78.044,57.756 77.825,57.500 C77.606,57.244 77.267,57.116 76.806,57.116 C76.200,57.116 75.753,57.290 75.464,57.638 C75.175,57.986 75.030,58.521 75.030,59.243 L75.030,62.829 L74.058,62.829 L74.058,58.652 C74.058,58.140 73.948,57.756 73.730,57.500 C73.511,57.244 73.169,57.116 72.704,57.116 C72.095,57.116 71.649,57.299 71.365,57.664 C71.082,58.030 70.941,58.628 70.941,59.460 L70.941,62.829 L69.968,62.829 L69.968,56.407 L70.759,56.407 L70.917,57.286 L70.964,57.286 C71.148,56.974 71.406,56.730 71.740,56.554 C72.074,56.378 72.448,56.290 72.862,56.290 C73.866,56.290 74.523,56.653 74.831,57.380 L74.878,57.380 C75.069,57.044 75.347,56.779 75.710,56.583 C76.073,56.388 76.487,56.290 76.952,56.290 C77.679,56.290 78.223,56.477 78.584,56.850 C78.945,57.223 79.126,57.820 79.126,58.640 L79.126,62.829 L78.153,62.829 L78.153,58.652 ZM66.842,61.968 L66.789,61.968 C66.590,62.284 66.314,62.527 65.960,62.695 C65.607,62.862 65.203,62.946 64.750,62.946 C63.969,62.946 63.384,62.761 62.995,62.390 C62.607,62.019 62.412,61.425 62.412,60.609 L62.412,56.407 L63.397,56.407 L63.397,60.573 C63.397,61.097 63.516,61.487 63.754,61.745 C63.992,62.003 64.365,62.132 64.873,62.132 C65.545,62.132 66.036,61.948 66.347,61.581 C66.657,61.214 66.813,60.614 66.813,59.782 L66.813,56.407 L67.785,56.407 L67.785,62.829 L66.983,62.829 L66.842,61.968 ZM59.328,53.712 L60.300,53.712 L60.300,62.829 L59.328,62.829 L59.328,53.712 ZM54.526,62.946 C53.952,62.946 53.442,62.812 52.997,62.542 C52.551,62.273 52.207,61.886 51.965,61.382 C51.723,60.878 51.602,60.288 51.602,59.612 C51.602,58.566 51.864,57.750 52.387,57.166 C52.911,56.582 53.637,56.290 54.567,56.290 C55.465,56.290 56.179,56.589 56.708,57.187 C57.238,57.784 57.502,58.593 57.502,59.612 C57.502,60.659 57.239,61.477 56.711,62.065 C56.184,62.653 55.455,62.946 54.526,62.946 ZM55.999,57.752 C55.669,57.328 55.182,57.116 54.538,57.116 C53.901,57.116 53.420,57.325 53.096,57.743 C52.772,58.161 52.610,58.784 52.610,59.612 C52.610,60.433 52.774,61.058 53.102,61.487 C53.430,61.917 53.913,62.132 54.549,62.132 C55.186,62.132 55.669,61.918 55.999,61.490 C56.330,61.063 56.495,60.437 56.495,59.612 C56.495,58.796 56.330,58.176 55.999,57.752 ZM48.084,55.030 C47.142,55.030 46.399,55.344 45.854,55.971 C45.309,56.598 45.037,57.456 45.037,58.546 C45.037,59.667 45.299,60.533 45.825,61.145 C46.350,61.756 47.099,62.062 48.072,62.062 C48.670,62.062 49.351,61.954 50.117,61.739 L50.117,62.612 C49.523,62.835 48.791,62.946 47.920,62.946 C46.658,62.946 45.684,62.564 44.999,61.798 C44.313,61.032 43.970,59.945 43.970,58.534 C43.970,57.652 44.135,56.878 44.465,56.214 C44.795,55.550 45.272,55.038 45.895,54.679 C46.518,54.320 47.252,54.140 48.095,54.140 C48.994,54.140 49.779,54.304 50.451,54.632 L50.029,55.487 C49.380,55.183 48.732,55.030 48.084,55.030 ZM107.212,62.829 L106.240,62.829 L106.240,56.407 L107.212,56.407 L107.212,62.829 Z" class="cls-5"/>
</svg>
