<svg xmlns="http://www.w3.org/2000/svg" xmlns:xlink="http://www.w3.org/1999/xlink" preserveAspectRatio="xMidYMid" width="171" height="17" viewBox="0 0 171 17">
  <defs>
    <style>
      .cls-1 {
        fill: #fff;
        fill-rule: evenodd;
      }
    </style>
  </defs>
  <path d="M164.671,16.696 C161.503,16.696 159.259,14.298 159.259,11.063 C159.259,7.851 161.503,5.452 164.671,5.452 C167.840,5.452 170.084,7.851 170.084,11.063 C170.084,14.298 167.840,16.696 164.671,16.696 ZM164.671,7.301 C162.911,7.301 161.371,8.621 161.371,11.063 C161.371,13.527 162.911,14.848 164.671,14.848 C166.432,14.848 167.972,13.527 167.972,11.063 C167.972,8.621 166.432,7.301 164.671,7.301 ZM155.585,3.252 C154.771,3.252 154.111,2.592 154.111,1.778 C154.111,0.942 154.771,0.282 155.585,0.282 C156.421,0.282 157.081,0.942 157.081,1.778 C157.081,2.592 156.421,3.252 155.585,3.252 ZM149.052,14.936 L149.052,14.760 C148.546,15.772 147.424,16.652 145.774,16.652 C142.671,16.652 140.757,14.188 140.757,11.041 C140.757,8.049 142.781,5.496 145.774,5.496 C147.644,5.496 148.656,6.420 149.008,7.279 L149.008,0.436 L151.054,0.436 L151.054,14.408 C151.054,15.420 151.142,16.190 151.164,16.366 L149.162,16.366 C149.118,16.124 149.052,15.574 149.052,14.936 ZM145.994,7.323 C144.101,7.323 142.869,8.863 142.869,11.041 C142.869,13.219 143.991,14.826 145.972,14.826 C147.864,14.826 149.030,13.175 149.030,10.997 C149.030,8.819 147.886,7.323 145.994,7.323 ZM136.270,15.090 C135.698,16.190 134.378,16.696 133.145,16.696 C130.681,16.696 129.185,14.848 129.185,12.449 L129.185,5.782 L131.253,5.782 L131.253,12.141 C131.253,13.593 131.913,14.870 133.652,14.870 C135.324,14.870 136.160,13.769 136.160,12.163 L136.160,5.782 L138.228,5.782 L138.228,14.408 C138.228,15.244 138.294,15.992 138.338,16.366 L136.358,16.366 C136.314,16.124 136.270,15.530 136.270,15.090 ZM124.302,14.936 C123.840,15.684 122.784,16.696 120.891,16.696 C118.735,16.696 117.349,15.200 117.349,13.527 C117.349,11.635 118.735,10.579 120.561,10.315 L123.422,9.897 C124.060,9.809 124.236,9.479 124.236,9.105 C124.236,8.071 123.554,7.213 121.947,7.213 C120.495,7.213 119.681,8.115 119.549,9.347 L117.569,8.885 C117.789,6.860 119.615,5.452 121.903,5.452 C125.072,5.452 126.304,7.257 126.304,9.325 L126.304,14.628 C126.304,15.552 126.392,16.102 126.436,16.366 L124.412,16.366 C124.368,16.102 124.302,15.706 124.302,14.936 ZM124.236,11.349 L121.001,11.833 C120.121,11.965 119.461,12.471 119.461,13.417 C119.461,14.210 120.121,14.958 121.177,14.958 C122.872,14.958 124.236,14.144 124.236,11.833 L124.236,11.349 ZM106.988,14.936 L106.988,14.760 C106.482,15.772 105.360,16.652 103.710,16.652 C100.607,16.652 98.693,14.188 98.693,11.041 C98.693,8.049 100.717,5.496 103.710,5.496 C105.580,5.496 106.592,6.420 106.944,7.279 L106.944,0.436 L108.990,0.436 L108.990,14.408 C108.990,15.420 109.078,16.190 109.100,16.366 L107.098,16.366 C107.054,16.124 106.988,15.574 106.988,14.936 ZM103.930,7.323 C102.037,7.323 100.805,8.863 100.805,11.041 C100.805,13.219 101.927,14.826 103.908,14.826 C105.800,14.826 106.966,13.175 106.966,10.997 C106.966,8.819 105.822,7.323 103.930,7.323 ZM88.925,11.657 C88.969,13.549 90.334,14.870 92.116,14.870 C93.832,14.870 94.690,13.924 95.086,12.735 L96.868,13.351 C96.274,15.222 94.580,16.696 92.116,16.696 C89.277,16.696 86.791,14.628 86.791,11.041 C86.791,7.719 89.189,5.452 91.852,5.452 C95.108,5.452 96.934,7.697 96.934,10.997 C96.934,11.261 96.912,11.525 96.890,11.657 L88.925,11.657 ZM91.874,7.279 C90.135,7.279 89.079,8.621 88.991,9.985 L94.778,9.985 C94.734,8.467 93.744,7.279 91.874,7.279 ZM83.602,16.476 C81.797,16.476 80.653,15.376 80.653,13.461 L80.653,7.653 L78.629,7.653 L78.629,5.782 L79.201,5.782 C80.345,5.782 80.829,5.078 80.829,4.154 L80.829,2.438 L82.721,2.438 L82.721,5.782 L85.010,5.782 L85.010,7.653 L82.721,7.653 L82.721,13.153 C82.721,14.122 83.117,14.606 84.196,14.606 C84.460,14.606 84.834,14.562 85.010,14.518 L85.010,16.278 C84.834,16.344 84.306,16.476 83.602,16.476 ZM74.274,10.271 C76.188,10.689 77.200,11.855 77.200,13.417 C77.200,14.914 75.946,16.696 73.328,16.696 C70.423,16.696 69.191,14.826 69.015,13.615 L70.885,12.955 C71.017,14.056 71.853,14.936 73.350,14.936 C74.516,14.936 75.154,14.276 75.154,13.527 C75.154,12.867 74.670,12.361 73.790,12.163 L71.985,11.767 C70.335,11.415 69.345,10.293 69.345,8.797 C69.345,6.993 71.039,5.452 73.108,5.452 C76.012,5.452 76.914,7.345 77.134,8.291 L75.308,8.973 C75.220,8.423 74.780,7.213 73.108,7.213 C72.051,7.213 71.347,7.895 71.347,8.621 C71.347,9.259 71.743,9.721 72.557,9.897 L74.274,10.271 ZM61.954,16.696 C58.785,16.696 56.541,14.298 56.541,11.063 C56.541,7.851 58.785,5.452 61.954,5.452 C65.122,5.452 67.367,7.851 67.367,11.063 C67.367,14.298 65.122,16.696 61.954,16.696 ZM61.954,7.301 C60.194,7.301 58.653,8.621 58.653,11.063 C58.653,13.527 60.194,14.848 61.954,14.848 C63.714,14.848 65.254,13.527 65.254,11.063 C65.254,8.621 63.714,7.301 61.954,7.301 ZM52.054,10.007 C52.054,8.533 51.438,7.345 49.590,7.345 C48.006,7.345 47.170,8.577 47.126,10.139 L47.126,16.366 L45.057,16.366 L45.057,0.436 L47.126,0.436 L47.126,7.015 C47.896,5.892 49.128,5.474 50.338,5.474 C52.868,5.474 54.123,7.301 54.123,9.655 L54.123,16.366 L52.054,16.366 L52.054,10.007 ZM36.456,2.306 C35.730,2.306 34.784,2.658 34.784,4.110 L34.784,5.782 L37.336,5.782 L37.336,7.653 L34.784,7.653 L34.784,16.366 L32.650,16.366 L32.650,7.653 L30.691,7.653 L30.691,5.782 L32.650,5.782 L32.650,4.000 C32.650,1.646 34.212,0.370 36.126,0.370 C36.830,0.370 37.270,0.524 37.358,0.590 L37.358,2.438 C37.248,2.394 36.984,2.306 36.456,2.306 ZM26.424,0.436 L28.492,0.436 L28.492,16.366 L26.424,16.366 L26.424,0.436 ZM15.776,11.657 C15.820,13.549 17.184,14.870 18.967,14.870 C20.683,14.870 21.541,13.924 21.937,12.735 L23.719,13.351 C23.125,15.222 21.431,16.696 18.967,16.696 C16.128,16.696 13.642,14.628 13.642,11.041 C13.642,7.719 16.040,5.452 18.702,5.452 C21.959,5.452 23.785,7.697 23.785,10.997 C23.785,11.261 23.763,11.525 23.741,11.657 L15.776,11.657 ZM18.724,7.279 C16.986,7.279 15.930,8.621 15.842,9.985 L21.629,9.985 C21.585,8.467 20.595,7.279 18.724,7.279 ZM7.923,7.697 C10.519,8.269 11.972,9.897 11.972,12.075 C11.972,14.496 9.903,16.696 6.581,16.696 C2.818,16.696 1.036,14.276 0.750,12.053 L2.818,11.393 C2.972,13.131 4.204,14.738 6.559,14.738 C8.715,14.738 9.771,13.615 9.771,12.251 C9.771,11.129 9.001,10.161 7.439,9.831 L5.217,9.347 C2.994,8.863 1.410,7.411 1.410,5.078 C1.410,2.636 3.676,0.436 6.559,0.436 C10.079,0.436 11.487,2.614 11.840,4.308 L9.903,4.990 C9.727,3.868 8.781,2.328 6.603,2.328 C4.842,2.328 3.588,3.472 3.588,4.924 C3.588,6.046 4.270,6.904 5.591,7.191 L7.923,7.697 ZM156.619,16.366 L154.573,16.366 L154.573,5.782 L156.619,5.782 L156.619,16.366 Z" class="cls-1"/>
</svg>
