<svg xmlns="http://www.w3.org/2000/svg" xmlns:xlink="http://www.w3.org/1999/xlink" preserveAspectRatio="xMidYMid" width="52" height="17" viewBox="0 0 52 17">
  <defs>
    <style>
      .cls-1 {
        fill: #fff;
        fill-rule: evenodd;
      }
    </style>
  </defs>
  <path d="M51.274,11.032 L43.309,11.032 C43.353,12.924 44.717,14.244 46.500,14.244 C48.216,14.244 49.074,13.298 49.470,12.110 L51.252,12.726 C50.658,14.596 48.964,16.070 46.500,16.070 C43.661,16.070 41.175,14.002 41.175,10.416 C41.175,7.093 43.573,4.827 46.236,4.827 C49.492,4.827 51.318,7.071 51.318,10.372 C51.318,10.636 51.296,10.900 51.274,11.032 ZM46.258,6.653 C44.519,6.653 43.463,7.995 43.375,9.360 L49.162,9.360 C49.118,7.841 48.128,6.653 46.258,6.653 ZM36.732,14.310 L36.732,14.134 C36.226,15.146 35.104,16.026 33.454,16.026 C30.351,16.026 28.437,13.562 28.437,10.416 C28.437,7.423 30.461,4.871 33.454,4.871 C35.324,4.871 36.336,5.795 36.688,6.653 L36.688,-0.190 L38.734,-0.190 L38.734,13.782 C38.734,14.794 38.822,15.564 38.844,15.740 L36.842,15.740 C36.798,15.498 36.732,14.948 36.732,14.310 ZM33.674,6.697 C31.781,6.697 30.549,8.237 30.549,10.416 C30.549,12.594 31.671,14.200 33.652,14.200 C35.544,14.200 36.710,12.550 36.710,10.372 C36.710,8.193 35.566,6.697 33.674,6.697 ZM21.486,16.070 C18.318,16.070 16.073,13.672 16.073,10.438 C16.073,7.225 18.318,4.827 21.486,4.827 C24.654,4.827 26.899,7.225 26.899,10.438 C26.899,13.672 24.654,16.070 21.486,16.070 ZM21.486,6.675 C19.726,6.675 18.185,7.995 18.185,10.438 C18.185,12.902 19.726,14.222 21.486,14.222 C23.246,14.222 24.786,12.902 24.786,10.438 C24.786,7.995 23.246,6.675 21.486,6.675 ZM8.088,14.090 C10.750,14.090 12.423,12.484 13.061,10.350 L14.975,11.054 C14.139,13.980 11.675,16.070 8.088,16.070 C4.061,16.070 0.343,13.144 0.343,7.929 C0.343,2.715 4.216,-0.190 8.088,-0.190 C11.653,-0.190 14.161,1.746 14.953,4.761 L12.951,5.465 C12.357,3.111 10.640,1.790 8.088,1.790 C5.250,1.790 2.543,3.859 2.543,7.929 C2.543,12.000 5.250,14.090 8.088,14.090 Z" class="cls-1"/>
</svg>
