<svg xmlns="http://www.w3.org/2000/svg" xmlns:xlink="http://www.w3.org/1999/xlink" preserveAspectRatio="xMidYMid" width="191" height="17" viewBox="0 0 191 17">
  <defs>
    <style>
      .cls-1 {
        fill: #fff;
        fill-rule: evenodd;
      }
    </style>
  </defs>
  <path d="M189.805,13.837 C190.069,13.837 190.443,13.793 190.619,13.749 L190.619,15.509 C190.443,15.575 189.915,15.707 189.211,15.707 C187.407,15.707 186.263,14.607 186.263,12.692 L186.263,6.884 L184.238,6.884 L184.238,5.013 L184.811,5.013 C185.955,5.013 186.439,4.309 186.439,3.385 L186.439,1.669 L188.331,1.669 L188.331,5.013 L190.619,5.013 L190.619,6.884 L188.331,6.884 L188.331,12.384 C188.331,13.352 188.727,13.837 189.805,13.837 ZM180.192,9.238 C180.192,7.764 179.576,6.575 177.727,6.575 C176.099,6.575 175.263,7.874 175.263,9.480 L175.263,15.597 L173.195,15.597 L173.195,5.013 L175.219,5.013 L175.219,6.531 C175.989,5.211 177.243,4.705 178.476,4.705 C181.006,4.705 182.260,6.531 182.260,8.886 L182.260,15.597 L180.192,15.597 L180.192,9.238 ZM162.547,10.888 C162.591,12.780 163.955,14.101 165.738,14.101 C167.454,14.101 168.312,13.154 168.708,11.966 L170.490,12.582 C169.896,14.453 168.202,15.927 165.738,15.927 C162.899,15.927 160.413,13.859 160.413,10.272 C160.413,6.950 162.811,4.683 165.474,4.683 C168.730,4.683 170.556,6.928 170.556,10.228 C170.556,10.492 170.534,10.756 170.512,10.888 L162.547,10.888 ZM165.496,6.509 C163.757,6.509 162.701,7.852 162.613,9.216 L168.400,9.216 C168.356,7.698 167.366,6.509 165.496,6.509 ZM157.223,15.707 C155.419,15.707 154.275,14.607 154.275,12.692 L154.275,6.884 L152.251,6.884 L152.251,5.013 L152.823,5.013 C153.967,5.013 154.451,4.309 154.451,3.385 L154.451,1.669 L156.343,1.669 L156.343,5.013 L158.632,5.013 L158.632,6.884 L156.343,6.884 L156.343,12.384 C156.343,13.352 156.739,13.837 157.817,13.837 C158.081,13.837 158.455,13.793 158.632,13.749 L158.632,15.509 C158.455,15.575 157.927,15.707 157.223,15.707 ZM148.204,9.238 C148.204,7.764 147.588,6.575 145.740,6.575 C144.111,6.575 143.275,7.874 143.275,9.480 L143.275,15.597 L141.207,15.597 L141.207,5.013 L143.231,5.013 L143.231,6.531 C144.001,5.211 145.255,4.705 146.488,4.705 C149.018,4.705 150.272,6.531 150.272,8.886 L150.272,15.597 L148.204,15.597 L148.204,9.238 ZM133.156,15.927 C129.987,15.927 127.743,13.528 127.743,10.294 C127.743,7.082 129.987,4.683 133.156,4.683 C136.324,4.683 138.569,7.082 138.569,10.294 C138.569,13.528 136.324,15.927 133.156,15.927 ZM133.156,6.531 C131.395,6.531 129.855,7.852 129.855,10.294 C129.855,12.758 131.395,14.079 133.156,14.079 C134.916,14.079 136.456,12.758 136.456,10.294 C136.456,7.852 134.916,6.531 133.156,6.531 ZM119.538,13.947 C122.200,13.947 123.872,12.340 124.511,10.206 L126.425,10.910 C125.589,13.837 123.124,15.927 119.538,15.927 C115.511,15.927 111.793,13.000 111.793,7.786 C111.793,2.571 115.665,-0.334 119.538,-0.334 C123.102,-0.334 125.611,1.603 126.403,4.617 L124.401,5.321 C123.806,2.967 122.090,1.647 119.538,1.647 C116.699,1.647 113.993,3.715 113.993,7.786 C113.993,11.856 116.699,13.947 119.538,13.947 ZM101.542,14.167 L101.542,13.991 C101.036,15.003 99.914,15.883 98.263,15.883 C95.161,15.883 93.247,13.418 93.247,10.272 C93.247,7.280 95.271,4.727 98.263,4.727 C100.134,4.727 101.146,5.651 101.498,6.509 L101.498,-0.334 L103.544,-0.334 L103.544,13.638 C103.544,14.651 103.632,15.421 103.654,15.597 L101.652,15.597 C101.608,15.355 101.542,14.805 101.542,14.167 ZM98.484,6.553 C96.591,6.553 95.359,8.094 95.359,10.272 C95.359,12.450 96.481,14.057 98.462,14.057 C100.354,14.057 101.520,12.406 101.520,10.228 C101.520,8.050 100.376,6.553 98.484,6.553 ZM83.479,10.888 C83.523,12.780 84.887,14.101 86.670,14.101 C88.386,14.101 89.244,13.154 89.640,11.966 L91.422,12.582 C90.828,14.453 89.134,15.927 86.670,15.927 C83.831,15.927 81.345,13.859 81.345,10.272 C81.345,6.950 83.743,4.683 86.406,4.683 C89.662,4.683 91.488,6.928 91.488,10.228 C91.488,10.492 91.466,10.756 91.444,10.888 L83.479,10.888 ZM86.428,6.509 C84.689,6.509 83.633,7.852 83.545,9.216 L89.332,9.216 C89.288,7.698 88.298,6.509 86.428,6.509 ZM76.682,14.167 L76.682,13.991 C76.176,15.003 75.054,15.883 73.404,15.883 C70.301,15.883 68.387,13.418 68.387,10.272 C68.387,7.280 70.411,4.727 73.404,4.727 C75.274,4.727 76.286,5.651 76.638,6.509 L76.638,-0.334 L78.684,-0.334 L78.684,13.638 C78.684,14.651 78.772,15.421 78.794,15.597 L76.792,15.597 C76.748,15.355 76.682,14.805 76.682,14.167 ZM73.624,6.553 C71.731,6.553 70.499,8.094 70.499,10.272 C70.499,12.450 71.621,14.057 73.602,14.057 C75.494,14.057 76.660,12.406 76.660,10.228 C76.660,8.050 75.516,6.553 73.624,6.553 ZM63.746,14.167 L63.746,13.991 C63.240,15.003 62.118,15.883 60.468,15.883 C57.365,15.883 55.451,13.418 55.451,10.272 C55.451,7.280 57.475,4.727 60.468,4.727 C62.338,4.727 63.350,5.651 63.702,6.509 L63.702,-0.334 L65.749,-0.334 L65.749,13.638 C65.749,14.651 65.837,15.421 65.859,15.597 L63.856,15.597 C63.812,15.355 63.746,14.805 63.746,14.167 ZM60.688,6.553 C58.796,6.553 57.563,8.094 57.563,10.272 C57.563,12.450 58.686,14.057 60.666,14.057 C62.558,14.057 63.724,12.406 63.724,10.228 C63.724,8.050 62.580,6.553 60.688,6.553 ZM45.684,10.888 C45.728,12.780 47.092,14.101 48.874,14.101 C50.590,14.101 51.448,13.154 51.844,11.966 L53.627,12.582 C53.033,14.453 51.338,15.927 48.874,15.927 C46.036,15.927 43.549,13.859 43.549,10.272 C43.549,6.950 45.948,4.683 48.610,4.683 C51.866,4.683 53.693,6.928 53.693,10.228 C53.693,10.492 53.671,10.756 53.649,10.888 L45.684,10.888 ZM48.632,6.509 C46.894,6.509 45.838,7.852 45.750,9.216 L51.536,9.216 C51.492,7.698 50.502,6.509 48.632,6.509 ZM36.840,15.883 C35.278,15.883 34.068,15.201 33.408,14.057 L33.408,15.597 L31.362,15.597 L31.362,-0.334 L33.408,-0.334 L33.408,6.509 C33.914,5.563 35.146,4.705 36.906,4.705 C40.119,4.705 41.769,7.170 41.769,10.250 C41.769,13.396 39.987,15.883 36.840,15.883 ZM36.532,6.531 C34.706,6.531 33.386,7.962 33.386,10.250 C33.386,12.538 34.706,14.035 36.532,14.035 C38.425,14.035 39.657,12.538 39.657,10.250 C39.657,7.962 38.447,6.531 36.532,6.531 ZM26.018,8.952 C26.018,7.566 25.336,6.531 23.773,6.531 C22.321,6.531 21.331,7.676 21.331,9.194 L21.331,15.597 L19.263,15.597 L19.263,8.952 C19.263,7.588 18.603,6.531 17.018,6.531 C15.544,6.531 14.554,7.632 14.554,9.216 L14.554,15.597 L12.508,15.597 L12.508,5.013 L14.488,5.013 L14.488,6.421 C15.148,5.255 16.468,4.705 17.700,4.705 C19.021,4.705 20.297,5.343 20.869,6.707 C21.705,5.189 23.069,4.705 24.411,4.705 C26.260,4.705 28.064,5.959 28.064,8.732 L28.064,15.597 L26.018,15.597 L26.018,8.952 ZM0.276,-0.003 L9.759,-0.003 L9.759,1.999 L2.432,1.999 L2.432,6.796 L9.077,6.796 L9.077,8.820 L2.432,8.820 L2.432,13.594 L9.759,13.594 L9.759,15.597 L0.276,15.597 L0.276,-0.003 Z" class="cls-1"/>
</svg>
