<svg xmlns="http://www.w3.org/2000/svg" xmlns:xlink="http://www.w3.org/1999/xlink" preserveAspectRatio="xMidYMid" width="130" height="17" viewBox="0 0 130 17">
  <defs>
    <style>
      .cls-1 {
        fill: #fff;
        fill-rule: evenodd;
      }
    </style>
  </defs>
  <path d="M128.089,16.374 C128.045,16.132 127.979,15.582 127.979,14.944 L127.979,14.768 C127.473,15.780 126.351,16.660 124.701,16.660 C121.598,16.660 119.684,14.196 119.684,11.049 C119.684,8.057 121.708,5.504 124.701,5.504 C126.571,5.504 127.583,6.428 127.935,7.287 L127.935,0.444 L129.982,0.444 L129.982,14.416 C129.982,15.428 130.070,16.198 130.092,16.374 L128.089,16.374 ZM124.921,7.331 C123.029,7.331 121.796,8.871 121.796,11.049 C121.796,13.227 122.918,14.834 124.899,14.834 C126.791,14.834 127.957,13.183 127.957,11.005 C127.957,8.827 126.813,7.331 124.921,7.331 ZM116.010,3.260 C115.196,3.260 114.536,2.600 114.536,1.786 C114.536,0.950 115.196,0.290 116.010,0.290 C116.847,0.290 117.507,0.950 117.507,1.786 C117.507,2.600 116.847,3.260 116.010,3.260 ZM108.993,11.071 L108.993,16.374 L106.925,16.374 L106.925,5.790 L108.949,5.790 L108.949,7.639 C109.719,6.010 111.039,5.614 112.117,5.614 C112.403,5.614 112.689,5.658 112.799,5.680 L112.799,7.881 C112.491,7.837 112.183,7.815 111.897,7.815 C110.159,7.815 108.993,8.739 108.993,11.071 ZM97.048,2.424 C94.253,2.424 91.525,4.426 91.525,8.563 C91.525,12.699 94.165,14.746 96.960,14.746 C100.436,14.746 101.690,12.281 101.778,10.675 L96.366,10.675 L96.366,8.739 L103.825,8.739 L103.825,16.374 L102.086,16.374 L101.888,14.174 C101.206,15.406 99.512,16.704 96.894,16.704 C92.977,16.704 89.324,13.843 89.324,8.563 C89.324,3.282 93.197,0.444 97.048,0.444 C100.436,0.444 103.054,2.336 103.957,5.152 L101.998,5.988 C101.294,3.744 99.468,2.424 97.048,2.424 ZM76.543,16.704 C73.375,16.704 71.131,14.306 71.131,11.071 C71.131,7.859 73.375,5.460 76.543,5.460 C79.712,5.460 81.956,7.859 81.956,11.071 C81.956,14.306 79.712,16.704 76.543,16.704 ZM76.543,7.309 C74.783,7.309 73.243,8.629 73.243,11.071 C73.243,13.535 74.783,14.856 76.543,14.856 C78.304,14.856 79.844,13.535 79.844,11.071 C79.844,8.629 78.304,7.309 76.543,7.309 ZM67.457,3.260 C66.643,3.260 65.983,2.600 65.983,1.786 C65.983,0.950 66.643,0.290 67.457,0.290 C68.293,0.290 68.953,0.950 68.953,1.786 C68.953,2.600 68.293,3.260 67.457,3.260 ZM60.857,0.444 L62.925,0.444 L62.925,16.374 L60.857,16.374 L60.857,0.444 ZM52.806,16.704 C49.637,16.704 47.393,14.306 47.393,11.071 C47.393,7.859 49.637,5.460 52.806,5.460 C55.974,5.460 58.219,7.859 58.219,11.071 C58.219,14.306 55.974,16.704 52.806,16.704 ZM52.806,7.309 C51.046,7.309 49.505,8.629 49.505,11.071 C49.505,13.535 51.046,14.856 52.806,14.856 C54.566,14.856 56.106,13.535 56.106,11.071 C56.106,8.629 54.566,7.309 52.806,7.309 ZM45.612,2.314 C44.886,2.314 43.940,2.666 43.940,4.118 L43.940,5.790 L46.492,5.790 L46.492,7.661 L43.940,7.661 L43.940,16.374 L41.805,16.374 L41.805,7.661 L39.847,7.661 L39.847,5.790 L41.805,5.790 L41.805,4.008 C41.805,1.654 43.368,0.378 45.282,0.378 C45.986,0.378 46.426,0.532 46.514,0.598 L46.514,2.446 C46.404,2.402 46.140,2.314 45.612,2.314 ZM37.010,16.484 C35.206,16.484 34.061,15.384 34.061,13.469 L34.061,7.661 L32.037,7.661 L32.037,5.790 L32.609,5.790 C33.753,5.790 34.238,5.086 34.238,4.162 L34.238,2.446 L36.130,2.446 L36.130,5.790 L38.418,5.790 L38.418,7.661 L36.130,7.661 L36.130,13.161 C36.130,14.130 36.526,14.614 37.604,14.614 C37.868,14.614 38.242,14.570 38.418,14.526 L38.418,16.286 C38.242,16.352 37.714,16.484 37.010,16.484 ZM26.802,11.071 L26.802,16.374 L24.734,16.374 L24.734,5.790 L26.758,5.790 L26.758,7.639 C27.528,6.010 28.848,5.614 29.927,5.614 C30.213,5.614 30.499,5.658 30.609,5.680 L30.609,7.881 C30.301,7.837 29.993,7.815 29.706,7.815 C27.968,7.815 26.802,8.739 26.802,11.071 ZM16.683,16.704 C13.514,16.704 11.270,14.306 11.270,11.071 C11.270,7.859 13.514,5.460 16.683,5.460 C19.851,5.460 22.095,7.859 22.095,11.071 C22.095,14.306 19.851,16.704 16.683,16.704 ZM16.683,7.309 C14.922,7.309 13.382,8.629 13.382,11.071 C13.382,13.535 14.922,14.856 16.683,14.856 C18.443,14.856 19.983,13.535 19.983,11.071 C19.983,8.629 18.443,7.309 16.683,7.309 ZM5.793,9.993 L2.272,9.993 L2.272,16.374 L0.116,16.374 L0.116,0.774 L5.793,0.774 C8.675,0.774 10.612,2.776 10.612,5.394 C10.612,8.035 8.675,9.993 5.793,9.993 ZM5.397,2.710 L2.272,2.710 L2.272,8.057 L5.397,8.057 C7.267,8.057 8.411,7.022 8.411,5.416 C8.411,3.766 7.267,2.710 5.397,2.710 ZM68.491,16.374 L66.445,16.374 L66.445,5.790 L68.491,5.790 L68.491,16.374 ZM117.045,16.374 L114.998,16.374 L114.998,5.790 L117.045,5.790 L117.045,16.374 Z" class="cls-1"/>
</svg>
