<svg xmlns="http://www.w3.org/2000/svg" xmlns:xlink="http://www.w3.org/1999/xlink" preserveAspectRatio="xMidYMid" width="170" height="17" viewBox="0 0 170 17">
  <defs>
    <style>
      .cls-1 {
        fill: #fff;
        fill-rule: evenodd;
      }
    </style>
  </defs>
  <path d="M164.449,16.031 C161.281,16.031 159.036,13.633 159.036,10.398 C159.036,7.186 161.281,4.788 164.449,4.788 C167.618,4.788 169.862,7.186 169.862,10.398 C169.862,13.633 167.618,16.031 164.449,16.031 ZM164.449,6.636 C162.689,6.636 161.149,7.956 161.149,10.398 C161.149,12.863 162.689,14.183 164.449,14.183 C166.209,14.183 167.750,12.863 167.750,10.398 C167.750,7.956 166.209,6.636 164.449,6.636 ZM149.269,10.992 C149.313,12.885 150.677,14.205 152.459,14.205 C154.176,14.205 155.034,13.259 155.430,12.071 L157.212,12.687 C156.618,14.557 154.924,16.031 152.459,16.031 C149.621,16.031 147.135,13.963 147.135,10.376 C147.135,7.054 149.533,4.788 152.195,4.788 C155.452,4.788 157.278,7.032 157.278,10.332 C157.278,10.596 157.256,10.860 157.234,10.992 L149.269,10.992 ZM152.217,6.614 C150.479,6.614 149.423,7.956 149.335,9.320 L155.122,9.320 C155.078,7.802 154.088,6.614 152.217,6.614 ZM142.472,14.271 L142.472,14.095 C141.966,15.107 140.844,15.987 139.193,15.987 C136.091,15.987 134.177,13.523 134.177,10.376 C134.177,7.384 136.201,4.832 139.193,4.832 C141.064,4.832 142.076,5.756 142.428,6.614 L142.428,-0.229 L144.474,-0.229 L144.474,13.743 C144.474,14.755 144.562,15.525 144.584,15.701 L142.582,15.701 C142.538,15.459 142.472,14.909 142.472,14.271 ZM139.413,6.658 C137.521,6.658 136.289,8.198 136.289,10.376 C136.289,12.555 137.411,14.161 139.391,14.161 C141.284,14.161 142.450,12.511 142.450,10.332 C142.450,8.154 141.306,6.658 139.413,6.658 ZM130.503,2.587 C129.689,2.587 129.029,1.927 129.029,1.113 C129.029,0.277 129.689,-0.383 130.503,-0.383 C131.339,-0.383 131.999,0.277 131.999,1.113 C131.999,1.927 131.339,2.587 130.503,2.587 ZM121.197,15.701 L116.907,5.118 L119.239,5.118 L122.254,13.281 L125.290,5.118 L127.512,5.118 L123.288,15.701 L121.197,15.701 ZM107.426,14.271 L107.426,14.095 C106.920,15.107 105.798,15.987 104.148,15.987 C101.045,15.987 99.131,13.523 99.131,10.376 C99.131,7.384 101.155,4.832 104.148,4.832 C106.018,4.832 107.030,5.756 107.382,6.614 L107.382,-0.229 L109.428,-0.229 L109.428,13.743 C109.428,14.755 109.516,15.525 109.538,15.701 L107.536,15.701 C107.492,15.459 107.426,14.909 107.426,14.271 ZM104.368,6.658 C102.475,6.658 101.243,8.198 101.243,10.376 C101.243,12.555 102.365,14.161 104.346,14.161 C106.238,14.161 107.404,12.511 107.404,10.332 C107.404,8.154 106.260,6.658 104.368,6.658 ZM89.363,10.992 C89.407,12.885 90.772,14.205 92.554,14.205 C94.270,14.205 95.128,13.259 95.524,12.071 L97.307,12.687 C96.712,14.557 95.018,16.031 92.554,16.031 C89.715,16.031 87.229,13.963 87.229,10.376 C87.229,7.054 89.627,4.788 92.290,4.788 C95.546,4.788 97.373,7.032 97.373,10.332 C97.373,10.596 97.351,10.860 97.329,10.992 L89.363,10.992 ZM92.312,6.614 C90.574,6.614 89.517,7.956 89.429,9.320 L95.216,9.320 C95.172,7.802 94.182,6.614 92.312,6.614 ZM84.040,15.811 C82.235,15.811 81.091,14.711 81.091,12.797 L81.091,6.988 L79.067,6.988 L79.067,5.118 L79.639,5.118 C80.783,5.118 81.267,4.413 81.267,3.489 L81.267,1.773 L83.159,1.773 L83.159,5.118 L85.448,5.118 L85.448,6.988 L83.159,6.988 L83.159,12.489 C83.159,13.457 83.556,13.941 84.634,13.941 C84.898,13.941 85.272,13.897 85.448,13.853 L85.448,15.613 C85.272,15.679 84.744,15.811 84.040,15.811 ZM74.712,9.606 C76.626,10.024 77.638,11.190 77.638,12.753 C77.638,14.249 76.384,16.031 73.766,16.031 C70.861,16.031 69.629,14.161 69.453,12.951 L71.323,12.291 C71.455,13.391 72.291,14.271 73.788,14.271 C74.954,14.271 75.592,13.611 75.592,12.863 C75.592,12.203 75.108,11.697 74.228,11.498 L72.423,11.102 C70.773,10.750 69.783,9.628 69.783,8.132 C69.783,6.328 71.477,4.788 73.546,4.788 C76.450,4.788 77.352,6.680 77.572,7.626 L75.746,8.308 C75.658,7.758 75.218,6.548 73.546,6.548 C72.489,6.548 71.785,7.230 71.785,7.956 C71.785,8.594 72.181,9.056 72.996,9.232 L74.712,9.606 ZM62.392,16.031 C59.224,16.031 56.979,13.633 56.979,10.398 C56.979,7.186 59.224,4.788 62.392,4.788 C65.560,4.788 67.805,7.186 67.805,10.398 C67.805,13.633 65.560,16.031 62.392,16.031 ZM62.392,6.636 C60.632,6.636 59.092,7.956 59.092,10.398 C59.092,12.863 60.632,14.183 62.392,14.183 C64.152,14.183 65.692,12.863 65.692,10.398 C65.692,7.956 64.152,6.636 62.392,6.636 ZM52.492,9.342 C52.492,7.868 51.876,6.680 50.028,6.680 C48.444,6.680 47.608,7.912 47.564,9.474 L47.564,15.701 L45.495,15.701 L45.495,-0.229 L47.564,-0.229 L47.564,6.350 C48.334,5.228 49.566,4.810 50.776,4.810 C53.307,4.810 54.561,6.636 54.561,8.990 L54.561,15.701 L52.492,15.701 L52.492,9.342 ZM36.894,1.641 C36.168,1.641 35.222,1.993 35.222,3.445 L35.222,5.118 L37.774,5.118 L37.774,6.988 L35.222,6.988 L35.222,15.701 L33.088,15.701 L33.088,6.988 L31.130,6.988 L31.130,5.118 L33.088,5.118 L33.088,3.335 C33.088,0.981 34.650,-0.295 36.564,-0.295 C37.268,-0.295 37.708,-0.141 37.797,-0.075 L37.797,1.773 C37.686,1.729 37.422,1.641 36.894,1.641 ZM26.862,-0.229 L28.930,-0.229 L28.930,15.701 L26.862,15.701 L26.862,-0.229 ZM16.214,10.992 C16.258,12.885 17.622,14.205 19.405,14.205 C21.121,14.205 21.979,13.259 22.375,12.071 L24.157,12.687 C23.563,14.557 21.869,16.031 19.405,16.031 C16.566,16.031 14.080,13.963 14.080,10.376 C14.080,7.054 16.478,4.788 19.141,4.788 C22.397,4.788 24.223,7.032 24.223,10.332 C24.223,10.596 24.201,10.860 24.179,10.992 L16.214,10.992 ZM19.163,6.614 C17.424,6.614 16.368,7.956 16.280,9.320 L22.067,9.320 C22.023,7.802 21.033,6.614 19.163,6.614 ZM8.361,7.032 C10.957,7.604 12.410,9.232 12.410,11.410 C12.410,13.831 10.341,16.031 7.019,16.031 C3.256,16.031 1.474,13.611 1.188,11.388 L3.256,10.728 C3.410,12.467 4.642,14.073 6.997,14.073 C9.153,14.073 10.209,12.951 10.209,11.586 C10.209,10.464 9.439,9.496 7.877,9.166 L5.655,8.682 C3.432,8.198 1.848,6.746 1.848,4.413 C1.848,1.971 4.114,-0.229 6.997,-0.229 C10.517,-0.229 11.926,1.949 12.278,3.643 L10.341,4.325 C10.165,3.203 9.219,1.663 7.041,1.663 C5.281,1.663 4.026,2.807 4.026,4.259 C4.026,5.382 4.708,6.240 6.029,6.526 L8.361,7.032 ZM131.537,15.701 L129.491,15.701 L129.491,5.118 L131.537,5.118 L131.537,15.701 Z" class="cls-1"/>
</svg>
