<svg xmlns="http://www.w3.org/2000/svg" xmlns:xlink="http://www.w3.org/1999/xlink" preserveAspectRatio="xMidYMid" width="103" height="137" viewBox="0 0 103 137">
  <defs>
    <style>
      .cls-1 {
        fill: #fff;
        fill-rule: evenodd;
      }
    </style>
  </defs>
  <path d="M100.139,137.000 L2.861,137.000 C1.279,137.000 -0.000,135.724 -0.000,134.146 L-0.000,2.854 C-0.000,1.276 1.279,0.000 2.861,0.000 L65.806,0.000 C65.997,0.000 66.187,0.020 66.372,0.057 C66.505,0.083 66.630,0.129 66.756,0.173 C66.805,0.191 66.857,0.199 66.905,0.219 C67.061,0.284 67.207,0.366 67.348,0.456 C67.363,0.465 67.380,0.471 67.394,0.481 C67.554,0.587 67.702,0.709 67.837,0.845 L102.153,35.077 C102.289,35.212 102.411,35.360 102.518,35.519 C102.528,35.534 102.534,35.551 102.543,35.566 C102.634,35.706 102.715,35.852 102.780,36.008 C102.800,36.056 102.809,36.107 102.826,36.156 C102.871,36.282 102.916,36.407 102.943,36.540 C102.980,36.724 103.000,36.913 103.000,37.104 L103.000,134.146 C103.000,135.724 101.721,137.000 100.139,137.000 ZM68.667,9.744 L68.667,34.250 L93.232,34.250 L68.667,9.744 ZM97.278,39.958 L65.806,39.958 C64.224,39.958 62.944,38.682 62.944,37.104 L62.944,5.708 L5.722,5.708 L5.722,131.292 L97.278,131.292 L97.278,39.958 ZM12.283,80.753 L35.172,57.920 C36.289,56.805 38.100,56.805 39.217,57.920 C40.335,59.034 40.335,60.841 39.217,61.955 L18.351,82.771 L39.217,103.586 C40.335,104.701 40.335,106.507 39.217,107.622 C38.659,108.180 37.926,108.458 37.194,108.458 C36.463,108.458 35.730,108.180 35.172,107.622 L12.283,84.789 C11.165,83.674 11.165,81.868 12.283,80.753 ZM63.783,57.920 C64.900,56.805 66.711,56.805 67.828,57.920 L90.717,80.753 C91.835,81.868 91.835,83.674 90.717,84.789 L67.828,107.622 C67.270,108.180 66.537,108.458 65.806,108.458 C65.074,108.458 64.341,108.180 63.783,107.622 C62.665,106.507 62.665,104.701 63.783,103.586 L84.649,82.771 L63.783,61.955 C62.665,60.841 62.665,59.034 63.783,57.920 Z" class="cls-1"/>
</svg>
