<svg xmlns="http://www.w3.org/2000/svg" xmlns:xlink="http://www.w3.org/1999/xlink" preserveAspectRatio="xMidYMid" width="115" height="78" viewBox="0 0 115 78">
  <defs>
    <style>
      .cls-1 {
        fill: #010000;
      }

      .cls-1, .cls-2, .cls-5 {
        fill-rule: evenodd;
      }

      .cls-2 {
        fill: #dfdfdf;
      }

      .cls-3 {
        fill: #fff;
      }

      .cls-3, .cls-4 {
        opacity: 0.1;
      }

      .cls-4, .cls-5 {
        fill: #000;
      }
    </style>
  </defs>
  <path d="M102.917,61.790 C103.101,61.997 103.352,62.100 103.673,62.100 C103.845,62.100 104.011,62.088 104.171,62.062 C104.331,62.037 104.458,62.010 104.552,61.983 L104.552,62.727 C104.446,62.778 104.291,62.820 104.086,62.853 C103.881,62.886 103.696,62.903 103.532,62.903 C102.290,62.903 101.669,62.249 101.669,60.940 L101.669,57.120 L100.749,57.120 L100.749,56.651 L101.669,56.247 L102.079,54.876 L102.642,54.876 L102.642,56.364 L104.505,56.364 L104.505,57.120 L102.642,57.120 L102.642,60.899 C102.642,61.286 102.733,61.583 102.917,61.790 ZM98.936,55.274 C98.772,55.274 98.635,55.220 98.525,55.113 C98.416,55.005 98.361,54.842 98.361,54.624 C98.361,54.401 98.416,54.238 98.525,54.134 C98.635,54.031 98.772,53.979 98.936,53.979 C99.092,53.979 99.227,54.032 99.340,54.137 C99.453,54.243 99.510,54.405 99.510,54.624 C99.510,54.842 99.453,55.005 99.340,55.113 C99.227,55.220 99.092,55.274 98.936,55.274 ZM95.341,61.924 L95.288,61.924 C94.839,62.577 94.167,62.903 93.273,62.903 C92.433,62.903 91.779,62.616 91.313,62.042 C90.846,61.467 90.613,60.651 90.613,59.592 C90.613,58.534 90.847,57.711 91.316,57.126 C91.784,56.540 92.437,56.247 93.273,56.247 C94.144,56.247 94.812,56.563 95.277,57.196 L95.353,57.196 L95.312,56.733 L95.288,56.282 L95.288,53.669 L96.261,53.669 L96.261,62.786 L95.470,62.786 L95.341,61.924 ZM95.288,59.592 C95.288,58.682 95.137,58.033 94.834,57.644 C94.531,57.255 94.048,57.061 93.384,57.061 C92.814,57.061 92.377,57.283 92.074,57.726 C91.772,58.170 91.620,58.795 91.620,59.604 C91.620,60.424 91.771,61.044 92.072,61.461 C92.372,61.880 92.814,62.088 93.396,62.088 C94.060,62.088 94.541,61.908 94.840,61.546 C95.139,61.185 95.288,60.602 95.288,59.797 L95.288,59.592 ZM84.323,54.219 L89.098,54.219 L89.098,55.104 L85.319,55.104 L85.319,57.864 L88.869,57.864 L88.869,58.743 L85.319,58.743 L85.319,61.895 L89.098,61.895 L89.098,62.786 L84.323,62.786 L84.323,54.219 ZM75.308,61.467 C75.669,61.858 76.178,62.053 76.835,62.053 C77.526,62.053 78.210,61.909 78.885,61.620 L78.885,62.487 C78.542,62.635 78.216,62.742 77.910,62.806 C77.603,62.871 77.233,62.903 76.799,62.903 C75.850,62.903 75.101,62.614 74.552,62.036 C74.003,61.458 73.729,60.655 73.729,59.628 C73.729,58.592 73.984,57.770 74.494,57.161 C75.004,56.551 75.688,56.247 76.547,56.247 C77.352,56.247 77.989,56.511 78.458,57.041 C78.926,57.570 79.161,58.268 79.161,59.135 L79.161,59.751 L74.737,59.751 C74.756,60.504 74.947,61.077 75.308,61.467 ZM78.118,58.960 C78.118,58.346 77.981,57.877 77.708,57.550 C77.434,57.224 77.043,57.061 76.536,57.061 C76.020,57.061 75.609,57.229 75.302,57.565 C74.996,57.901 74.815,58.366 74.760,58.960 L78.118,58.960 ZM70.931,53.669 L71.904,53.669 L71.904,62.786 L70.931,62.786 L70.931,53.669 ZM68.597,57.656 C68.682,57.877 68.725,58.126 68.725,58.403 C68.725,59.032 68.511,59.534 68.081,59.909 C67.651,60.284 67.061,60.471 66.311,60.471 C66.120,60.471 65.940,60.456 65.772,60.424 C65.358,60.643 65.151,60.919 65.151,61.251 C65.151,61.426 65.223,61.556 65.368,61.640 C65.512,61.724 65.761,61.766 66.112,61.766 L67.249,61.766 C67.944,61.766 68.478,61.913 68.851,62.206 C69.224,62.499 69.411,62.924 69.411,63.483 C69.411,64.194 69.126,64.736 68.555,65.109 C67.985,65.482 67.153,65.669 66.059,65.669 C65.219,65.669 64.572,65.512 64.117,65.200 C63.662,64.887 63.434,64.446 63.434,63.876 C63.434,63.485 63.559,63.147 63.809,62.862 C64.059,62.577 64.411,62.383 64.864,62.282 C64.700,62.208 64.562,62.092 64.451,61.936 C64.340,61.780 64.284,61.598 64.284,61.391 C64.284,61.157 64.346,60.952 64.472,60.776 C64.596,60.600 64.794,60.430 65.063,60.266 C64.731,60.129 64.461,59.897 64.252,59.569 C64.043,59.241 63.938,58.866 63.938,58.444 C63.938,57.741 64.149,57.199 64.571,56.818 C64.993,56.437 65.591,56.247 66.364,56.247 C66.700,56.247 67.003,56.286 67.272,56.364 L69.493,56.364 L69.493,56.979 L68.304,57.120 C68.413,57.256 68.511,57.435 68.597,57.656 ZM64.741,62.956 C64.495,63.167 64.372,63.469 64.372,63.864 C64.372,64.211 64.518,64.475 64.811,64.655 C65.104,64.834 65.524,64.924 66.071,64.924 C66.887,64.924 67.492,64.802 67.885,64.558 C68.277,64.314 68.473,63.983 68.473,63.565 C68.473,63.217 68.366,62.976 68.151,62.841 C67.936,62.707 67.532,62.639 66.938,62.639 L65.772,62.639 C65.331,62.639 64.987,62.745 64.741,62.956 ZM66.323,56.956 C65.866,56.956 65.514,57.079 65.268,57.325 C65.022,57.571 64.899,57.936 64.899,58.420 C64.899,58.870 65.026,59.210 65.280,59.440 C65.534,59.671 65.887,59.786 66.341,59.786 C67.290,59.786 67.764,59.325 67.764,58.403 C67.764,57.438 67.284,56.956 66.323,56.956 ZM61.146,58.631 C61.146,58.108 61.027,57.717 60.789,57.460 C60.551,57.202 60.178,57.073 59.670,57.073 C58.998,57.073 58.506,57.254 58.193,57.618 C57.881,57.981 57.725,58.581 57.725,59.417 L57.725,62.786 L56.752,62.786 L56.752,56.364 L57.543,56.364 L57.701,57.243 L57.748,57.243 C57.947,56.926 58.226,56.681 58.586,56.507 C58.945,56.334 59.346,56.247 59.787,56.247 C60.561,56.247 61.143,56.433 61.533,56.806 C61.924,57.179 62.119,57.776 62.119,58.596 L62.119,62.786 L61.146,62.786 L61.146,58.631 ZM54.089,55.274 C53.925,55.274 53.788,55.220 53.679,55.113 C53.569,55.005 53.515,54.842 53.515,54.624 C53.515,54.401 53.569,54.238 53.679,54.134 C53.788,54.031 53.925,53.979 54.089,53.979 C54.245,53.979 54.380,54.032 54.493,54.137 C54.606,54.243 54.663,54.405 54.663,54.624 C54.663,54.842 54.606,55.005 54.493,55.113 C54.380,55.220 54.245,55.274 54.089,55.274 ZM48.318,57.521 C48.577,57.679 48.975,57.854 49.510,58.045 C50.408,58.366 51.027,58.710 51.364,59.077 C51.702,59.444 51.871,59.920 51.871,60.506 C51.871,61.260 51.598,61.848 51.051,62.270 C50.504,62.692 49.762,62.903 48.824,62.903 C47.809,62.903 47.027,62.772 46.481,62.510 L46.481,61.549 C46.832,61.698 47.215,61.815 47.629,61.901 C48.043,61.987 48.453,62.030 48.860,62.030 C49.524,62.030 50.024,61.904 50.360,61.652 C50.695,61.400 50.863,61.049 50.863,60.600 C50.863,60.303 50.804,60.060 50.685,59.871 C50.566,59.681 50.366,59.506 50.087,59.346 C49.808,59.186 49.383,59.004 48.813,58.801 C48.016,58.516 47.446,58.178 47.105,57.788 C46.763,57.397 46.592,56.887 46.592,56.258 C46.592,55.598 46.840,55.073 47.336,54.682 C47.832,54.292 48.488,54.096 49.305,54.096 C50.156,54.096 50.940,54.253 51.654,54.565 L51.344,55.432 C50.637,55.135 49.949,54.987 49.281,54.987 C48.754,54.987 48.342,55.100 48.045,55.327 C47.748,55.553 47.600,55.868 47.600,56.270 C47.600,56.567 47.654,56.810 47.764,57.000 C47.873,57.189 48.058,57.363 48.318,57.521 ZM54.569,62.786 L53.597,62.786 L53.597,56.364 L54.569,56.364 L54.569,62.786 ZM99.416,62.786 L98.443,62.786 L98.443,56.364 L99.416,56.364 L99.416,62.786 Z" class="cls-1"/>
  <path d="M102.917,22.790 C103.101,22.997 103.352,23.100 103.673,23.100 C103.845,23.100 104.011,23.088 104.171,23.062 C104.331,23.037 104.458,23.010 104.552,22.983 L104.552,23.727 C104.446,23.778 104.291,23.820 104.086,23.853 C103.881,23.886 103.696,23.903 103.532,23.903 C102.290,23.903 101.669,23.249 101.669,21.940 L101.669,18.120 L100.749,18.120 L100.749,17.651 L101.669,17.247 L102.079,15.876 L102.642,15.876 L102.642,17.364 L104.505,17.364 L104.505,18.120 L102.642,18.120 L102.642,21.899 C102.642,22.286 102.733,22.583 102.917,22.790 ZM98.936,16.274 C98.772,16.274 98.635,16.220 98.525,16.113 C98.416,16.005 98.361,15.842 98.361,15.624 C98.361,15.401 98.416,15.238 98.525,15.134 C98.635,15.031 98.772,14.979 98.936,14.979 C99.092,14.979 99.227,15.032 99.340,15.137 C99.453,15.243 99.510,15.405 99.510,15.624 C99.510,15.842 99.453,16.005 99.340,16.113 C99.227,16.220 99.092,16.274 98.936,16.274 ZM95.341,22.924 L95.288,22.924 C94.839,23.577 94.167,23.903 93.273,23.903 C92.433,23.903 91.779,23.616 91.313,23.042 C90.846,22.467 90.613,21.651 90.613,20.592 C90.613,19.534 90.847,18.711 91.316,18.126 C91.784,17.540 92.437,17.247 93.273,17.247 C94.144,17.247 94.812,17.563 95.277,18.196 L95.353,18.196 L95.312,17.733 L95.288,17.282 L95.288,14.669 L96.261,14.669 L96.261,23.786 L95.470,23.786 L95.341,22.924 ZM95.288,20.592 C95.288,19.682 95.137,19.033 94.834,18.644 C94.531,18.255 94.048,18.061 93.384,18.061 C92.814,18.061 92.377,18.283 92.074,18.726 C91.772,19.170 91.620,19.795 91.620,20.604 C91.620,21.424 91.771,22.044 92.072,22.461 C92.372,22.880 92.814,23.088 93.396,23.088 C94.060,23.088 94.541,22.908 94.840,22.546 C95.139,22.185 95.288,21.602 95.288,20.797 L95.288,20.592 ZM84.323,15.219 L89.098,15.219 L89.098,16.104 L85.319,16.104 L85.319,18.864 L88.869,18.864 L88.869,19.743 L85.319,19.743 L85.319,22.895 L89.098,22.895 L89.098,23.786 L84.323,23.786 L84.323,15.219 ZM75.308,22.467 C75.669,22.858 76.178,23.053 76.835,23.053 C77.526,23.053 78.210,22.909 78.885,22.620 L78.885,23.487 C78.542,23.635 78.216,23.742 77.910,23.806 C77.603,23.871 77.233,23.903 76.799,23.903 C75.850,23.903 75.101,23.614 74.552,23.036 C74.003,22.458 73.729,21.655 73.729,20.628 C73.729,19.592 73.984,18.770 74.494,18.161 C75.004,17.551 75.688,17.247 76.547,17.247 C77.352,17.247 77.989,17.511 78.458,18.041 C78.926,18.570 79.161,19.268 79.161,20.135 L79.161,20.751 L74.737,20.751 C74.756,21.504 74.947,22.077 75.308,22.467 ZM78.118,19.960 C78.118,19.346 77.981,18.877 77.708,18.550 C77.434,18.224 77.043,18.061 76.536,18.061 C76.020,18.061 75.609,18.229 75.302,18.565 C74.996,18.901 74.815,19.366 74.760,19.960 L78.118,19.960 ZM70.931,14.669 L71.904,14.669 L71.904,23.786 L70.931,23.786 L70.931,14.669 ZM68.597,18.656 C68.682,18.877 68.725,19.126 68.725,19.403 C68.725,20.032 68.511,20.534 68.081,20.909 C67.651,21.284 67.061,21.471 66.311,21.471 C66.120,21.471 65.940,21.456 65.772,21.424 C65.358,21.643 65.151,21.919 65.151,22.251 C65.151,22.426 65.223,22.556 65.368,22.640 C65.512,22.724 65.761,22.766 66.112,22.766 L67.249,22.766 C67.944,22.766 68.478,22.913 68.851,23.206 C69.224,23.499 69.411,23.924 69.411,24.483 C69.411,25.194 69.126,25.736 68.555,26.109 C67.985,26.482 67.153,26.669 66.059,26.669 C65.219,26.669 64.572,26.512 64.117,26.200 C63.662,25.887 63.434,25.446 63.434,24.876 C63.434,24.485 63.559,24.147 63.809,23.862 C64.059,23.577 64.411,23.383 64.864,23.282 C64.700,23.208 64.562,23.092 64.451,22.936 C64.340,22.780 64.284,22.598 64.284,22.391 C64.284,22.157 64.346,21.952 64.472,21.776 C64.596,21.600 64.794,21.430 65.063,21.266 C64.731,21.129 64.461,20.897 64.252,20.569 C64.043,20.241 63.938,19.866 63.938,19.444 C63.938,18.741 64.149,18.199 64.571,17.818 C64.993,17.437 65.591,17.247 66.364,17.247 C66.700,17.247 67.003,17.286 67.272,17.364 L69.493,17.364 L69.493,17.979 L68.304,18.120 C68.413,18.256 68.511,18.435 68.597,18.656 ZM64.741,23.956 C64.495,24.167 64.372,24.469 64.372,24.864 C64.372,25.211 64.518,25.475 64.811,25.655 C65.104,25.834 65.524,25.924 66.071,25.924 C66.887,25.924 67.492,25.802 67.885,25.558 C68.277,25.314 68.473,24.983 68.473,24.565 C68.473,24.217 68.366,23.976 68.151,23.841 C67.936,23.707 67.532,23.639 66.938,23.639 L65.772,23.639 C65.331,23.639 64.987,23.745 64.741,23.956 ZM66.323,17.956 C65.866,17.956 65.514,18.079 65.268,18.325 C65.022,18.571 64.899,18.936 64.899,19.420 C64.899,19.870 65.026,20.210 65.280,20.440 C65.534,20.671 65.887,20.786 66.341,20.786 C67.290,20.786 67.764,20.325 67.764,19.403 C67.764,18.438 67.284,17.956 66.323,17.956 ZM61.146,19.631 C61.146,19.108 61.027,18.717 60.789,18.460 C60.551,18.202 60.178,18.073 59.670,18.073 C58.998,18.073 58.506,18.254 58.193,18.618 C57.881,18.981 57.725,19.581 57.725,20.417 L57.725,23.786 L56.752,23.786 L56.752,17.364 L57.543,17.364 L57.701,18.243 L57.748,18.243 C57.947,17.926 58.226,17.681 58.586,17.507 C58.945,17.334 59.346,17.247 59.787,17.247 C60.561,17.247 61.143,17.433 61.533,17.806 C61.924,18.179 62.119,18.776 62.119,19.596 L62.119,23.786 L61.146,23.786 L61.146,19.631 ZM54.089,16.274 C53.925,16.274 53.788,16.220 53.679,16.113 C53.569,16.005 53.515,15.842 53.515,15.624 C53.515,15.401 53.569,15.238 53.679,15.134 C53.788,15.031 53.925,14.979 54.089,14.979 C54.245,14.979 54.380,15.032 54.493,15.137 C54.606,15.243 54.663,15.405 54.663,15.624 C54.663,15.842 54.606,16.005 54.493,16.113 C54.380,16.220 54.245,16.274 54.089,16.274 ZM48.318,18.521 C48.577,18.679 48.975,18.854 49.510,19.045 C50.408,19.366 51.027,19.710 51.364,20.077 C51.702,20.444 51.871,20.920 51.871,21.506 C51.871,22.260 51.598,22.848 51.051,23.270 C50.504,23.692 49.762,23.903 48.824,23.903 C47.809,23.903 47.027,23.772 46.481,23.510 L46.481,22.549 C46.832,22.698 47.215,22.815 47.629,22.901 C48.043,22.987 48.453,23.030 48.860,23.030 C49.524,23.030 50.024,22.904 50.360,22.652 C50.695,22.400 50.863,22.049 50.863,21.600 C50.863,21.303 50.804,21.060 50.685,20.871 C50.566,20.681 50.366,20.506 50.087,20.346 C49.808,20.186 49.383,20.004 48.813,19.801 C48.016,19.516 47.446,19.178 47.105,18.788 C46.763,18.397 46.592,17.887 46.592,17.258 C46.592,16.598 46.840,16.073 47.336,15.682 C47.832,15.292 48.488,15.096 49.305,15.096 C50.156,15.096 50.940,15.253 51.654,15.565 L51.344,16.432 C50.637,16.135 49.949,15.987 49.281,15.987 C48.754,15.987 48.342,16.100 48.045,16.327 C47.748,16.553 47.600,16.868 47.600,17.270 C47.600,17.567 47.654,17.810 47.764,18.000 C47.873,18.189 48.058,18.363 48.318,18.521 ZM54.569,23.786 L53.597,23.786 L53.597,17.364 L54.569,17.364 L54.569,23.786 ZM99.416,23.786 L98.443,23.786 L98.443,17.364 L99.416,17.364 L99.416,23.786 Z" class="cls-2"/>
  <rect x="35" width="1" height="39" class="cls-3"/>
  <rect x="35" y="39" width="1" height="39" class="cls-4"/>
  <path d="M11.000,13.000 L10.000,13.000 L10.000,10.000 L25.000,10.000 L25.000,13.000 L24.000,13.000 L24.000,11.000 L18.000,11.000 L18.000,28.000 L21.000,28.000 L21.000,29.000 L14.000,29.000 L14.000,28.000 L17.000,28.000 L17.000,11.000 L11.000,11.000 L11.000,13.000 Z" class="cls-2"/>
  <path d="M11.000,52.000 L10.000,52.000 L10.000,49.000 L25.000,49.000 L25.000,52.000 L24.000,52.000 L24.000,50.000 L18.000,50.000 L18.000,67.000 L21.000,67.000 L21.000,68.000 L14.000,68.000 L14.000,67.000 L17.000,67.000 L17.000,50.000 L11.000,50.000 L11.000,52.000 Z" class="cls-5"/>
</svg>
