<svg xmlns="http://www.w3.org/2000/svg" xmlns:xlink="http://www.w3.org/1999/xlink" preserveAspectRatio="xMidYMid" width="138" height="138" viewBox="0 0 138 138">
  <defs>
    <style>
      .cls-1 {
        fill: #fff;
        fill-rule: evenodd;
      }
    </style>
  </defs>
  <path d="M135.000,138.000 L99.000,138.000 C97.342,138.000 96.000,136.658 96.000,135.000 L96.000,99.000 C96.000,97.342 97.342,96.000 99.000,96.000 L135.000,96.000 C136.658,96.000 138.000,97.342 138.000,99.000 L138.000,135.000 C138.000,136.658 136.658,138.000 135.000,138.000 ZM132.000,102.000 L102.000,102.000 L102.000,132.000 L132.000,132.000 L132.000,102.000 ZM135.000,90.000 L99.000,90.000 C97.342,90.000 96.000,88.658 96.000,87.000 L96.000,51.000 C96.000,49.342 97.342,48.000 99.000,48.000 L135.000,48.000 C136.658,48.000 138.000,49.342 138.000,51.000 L138.000,87.000 C138.000,88.658 136.658,90.000 135.000,90.000 ZM132.000,54.000 L102.000,54.000 L102.000,84.000 L132.000,84.000 L132.000,54.000 ZM135.000,42.000 L99.000,42.000 C97.342,42.000 96.000,40.658 96.000,39.000 L96.000,3.000 C96.000,1.342 97.342,0.000 99.000,0.000 L135.000,0.000 C136.658,0.000 138.000,1.342 138.000,3.000 L138.000,39.000 C138.000,40.658 136.658,42.000 135.000,42.000 ZM132.000,6.000 L102.000,6.000 L102.000,36.000 L132.000,36.000 L132.000,6.000 ZM87.000,138.000 L51.000,138.000 C49.342,138.000 48.000,136.658 48.000,135.000 L48.000,99.000 C48.000,97.342 49.342,96.000 51.000,96.000 L87.000,96.000 C88.658,96.000 90.000,97.342 90.000,99.000 L90.000,135.000 C90.000,136.658 88.658,138.000 87.000,138.000 ZM84.000,102.000 L54.000,102.000 L54.000,132.000 L84.000,132.000 L84.000,102.000 ZM87.000,90.000 L51.000,90.000 C49.342,90.000 48.000,88.658 48.000,87.000 L48.000,51.000 C48.000,49.342 49.342,48.000 51.000,48.000 L87.000,48.000 C88.658,48.000 90.000,49.342 90.000,51.000 L90.000,87.000 C90.000,88.658 88.658,90.000 87.000,90.000 ZM84.000,54.000 L54.000,54.000 L54.000,84.000 L84.000,84.000 L84.000,54.000 ZM87.000,42.000 L51.000,42.000 C49.342,42.000 48.000,40.658 48.000,39.000 L48.000,3.000 C48.000,1.342 49.342,0.000 51.000,0.000 L87.000,0.000 C88.658,0.000 90.000,1.342 90.000,3.000 L90.000,39.000 C90.000,40.658 88.658,42.000 87.000,42.000 ZM84.000,6.000 L54.000,6.000 L54.000,36.000 L84.000,36.000 L84.000,6.000 ZM39.000,138.000 L3.000,138.000 C1.342,138.000 0.000,136.658 0.000,135.000 L0.000,99.000 C0.000,97.342 1.342,96.000 3.000,96.000 L39.000,96.000 C40.658,96.000 42.000,97.342 42.000,99.000 L42.000,135.000 C42.000,136.658 40.658,138.000 39.000,138.000 ZM36.000,102.000 L6.000,102.000 L6.000,132.000 L36.000,132.000 L36.000,102.000 ZM39.000,90.000 L3.000,90.000 C1.342,90.000 0.000,88.658 0.000,87.000 L0.000,51.000 C0.000,49.342 1.342,48.000 3.000,48.000 L39.000,48.000 C40.658,48.000 42.000,49.342 42.000,51.000 L42.000,87.000 C42.000,88.658 40.658,90.000 39.000,90.000 ZM36.000,54.000 L6.000,54.000 L6.000,84.000 L36.000,84.000 L36.000,54.000 ZM39.000,42.000 L3.000,42.000 C1.342,42.000 0.000,40.658 0.000,39.000 L0.000,3.000 C0.000,1.342 1.342,0.000 3.000,0.000 L39.000,0.000 C40.658,0.000 42.000,1.342 42.000,3.000 L42.000,39.000 C42.000,40.658 40.658,42.000 39.000,42.000 ZM36.000,6.000 L6.000,6.000 L6.000,36.000 L36.000,36.000 L36.000,6.000 Z" class="cls-1"/>
</svg>
