<svg xmlns="http://www.w3.org/2000/svg" xmlns:xlink="http://www.w3.org/1999/xlink" preserveAspectRatio="xMidYMid" width="120" height="137" viewBox="0 0 120 137">
  <defs>
    <style>
      .cls-1 {
        fill: #fff;
        fill-rule: evenodd;
      }
    </style>
  </defs>
  <path d="M117.143,137.011 L94.286,137.011 C92.706,137.011 91.429,135.735 91.429,134.157 L91.429,2.877 C91.429,1.299 92.706,0.023 94.286,0.023 L117.143,0.023 C118.722,0.023 120.000,1.299 120.000,2.877 L120.000,134.157 C120.000,135.735 118.722,137.011 117.143,137.011 ZM114.286,5.730 L97.143,5.730 L97.143,131.303 L114.286,131.303 L114.286,5.730 ZM79.035,70.652 L4.749,136.292 C4.219,136.766 3.541,137.011 2.857,137.011 C2.461,137.011 2.059,136.928 1.682,136.760 C0.658,136.298 -0.000,135.278 -0.000,134.157 L-0.000,2.877 C-0.000,1.756 0.658,0.736 1.682,0.273 C2.706,-0.183 3.909,-0.005 4.749,0.742 L79.035,66.382 C79.649,66.923 80.000,67.697 80.000,68.517 C80.000,69.336 79.649,70.111 79.035,70.652 ZM5.714,9.214 L5.714,127.819 L72.832,68.517 L5.714,9.214 Z" class="cls-1"/>
</svg>
