<svg xmlns="http://www.w3.org/2000/svg" xmlns:xlink="http://www.w3.org/1999/xlink" preserveAspectRatio="xMidYMid" width="135" height="116" viewBox="0 0 135 116">
  <defs>
    <style>
      .cls-1 {
        fill: #000;
        fill-rule: evenodd;
      }
    </style>
  </defs>
  <path d="M131.250,115.000 L124.229,103.623 L124.150,103.623 L124.199,104.258 C124.290,105.469 124.336,106.576 124.336,107.578 L124.336,115.000 L122.217,115.000 L122.217,100.723 L125.049,100.723 L132.051,112.041 L132.109,112.041 C132.096,111.891 132.070,111.346 132.031,110.405 C131.992,109.465 131.973,108.730 131.973,108.203 L131.973,100.723 L134.111,100.723 L134.111,115.000 L131.250,115.000 ZM116.211,107.939 C116.211,107.230 116.229,106.305 116.265,105.166 C116.300,104.027 116.331,103.337 116.357,103.096 L116.279,103.096 L111.992,115.000 L109.932,115.000 L105.791,103.076 L105.713,103.076 C105.824,104.847 105.879,106.507 105.879,108.057 L105.879,115.000 L103.760,115.000 L103.760,100.723 L107.051,100.723 L111.016,112.080 L111.074,112.080 L115.156,100.723 L118.457,100.723 L118.457,115.000 L116.211,115.000 L116.211,107.939 ZM67.994,79.992 C45.937,79.992 27.994,62.049 27.994,39.995 C27.994,17.939 45.937,-0.006 67.994,-0.006 C90.050,-0.006 107.992,17.937 107.992,39.995 C107.992,62.051 90.048,79.992 67.994,79.992 ZM67.994,2.707 C47.434,2.707 30.707,19.435 30.707,39.995 C30.707,60.553 47.434,77.281 67.994,77.281 C88.552,77.281 105.280,60.553 105.280,39.995 C105.280,19.435 88.552,2.707 67.994,2.707 ZM84.837,41.349 L69.350,41.349 L69.350,56.836 C69.350,57.585 68.743,58.192 67.994,58.192 C67.245,58.192 66.638,57.585 66.638,56.836 L66.638,41.349 L51.150,41.349 C50.401,41.349 49.794,40.742 49.794,39.993 C49.794,39.244 50.401,38.637 51.150,38.637 L66.638,38.637 L66.638,23.150 C66.638,22.402 67.245,21.794 67.994,21.794 C68.743,21.794 69.350,22.402 69.350,23.150 L69.350,38.637 L84.837,38.637 C85.585,38.637 86.193,39.244 86.193,39.993 C86.193,40.742 85.585,41.349 84.837,41.349 ZM19.102,115.000 L15.107,115.000 L15.107,100.723 L19.521,100.723 C21.794,100.723 23.561,101.335 24.824,102.559 C26.087,103.783 26.719,105.505 26.719,107.725 C26.719,110.081 26.064,111.883 24.756,113.130 C23.447,114.377 21.563,115.000 19.102,115.000 ZM19.463,102.676 L17.441,102.676 L17.441,113.037 L19.102,113.037 C22.539,113.037 24.258,111.292 24.258,107.803 C24.258,104.385 22.659,102.676 19.463,102.676 ZM9.316,111.035 L3.857,111.035 L2.461,115.000 L0.000,115.000 L5.342,100.664 L7.881,100.664 L13.223,115.000 L10.742,115.000 L9.316,111.035 ZM7.363,105.137 C7.266,104.876 7.130,104.466 6.958,103.906 C6.785,103.346 6.667,102.936 6.602,102.676 C6.426,103.477 6.169,104.352 5.830,105.303 L4.541,109.023 L8.701,109.023 L7.363,105.137 ZM39.502,102.559 C40.765,103.783 41.396,105.505 41.396,107.725 C41.396,110.081 40.742,111.883 39.434,113.130 C38.125,114.377 36.240,115.000 33.779,115.000 L29.785,115.000 L29.785,100.723 L34.199,100.723 C36.471,100.723 38.239,101.335 39.502,102.559 ZM32.119,102.676 L32.119,113.037 L33.779,113.037 C37.217,113.037 38.936,111.292 38.936,107.803 C38.936,104.385 37.337,102.676 34.141,102.676 L32.119,102.676 ZM52.129,101.406 C53.158,100.814 54.365,100.518 55.752,100.518 C57.210,100.518 58.558,100.824 59.795,101.436 L58.955,103.379 C58.473,103.151 57.964,102.951 57.427,102.778 C56.890,102.606 56.325,102.520 55.732,102.520 C54.391,102.520 53.336,102.995 52.568,103.945 C51.800,104.896 51.416,106.208 51.416,107.881 C51.416,109.632 51.785,110.957 52.524,111.855 C53.263,112.754 54.333,113.203 55.732,113.203 C56.338,113.203 56.924,113.143 57.490,113.022 C58.057,112.902 58.646,112.747 59.258,112.559 L59.258,114.561 C58.138,114.984 56.868,115.195 55.449,115.195 C53.359,115.195 51.754,114.562 50.635,113.296 C49.515,112.030 48.955,110.218 48.955,107.861 C48.955,106.377 49.227,105.078 49.771,103.965 C50.314,102.852 51.100,101.999 52.129,101.406 ZM68.350,100.498 C70.472,100.498 72.113,101.139 73.271,102.422 C74.430,103.705 75.010,105.511 75.010,107.842 C75.010,110.166 74.429,111.973 73.267,113.262 C72.104,114.551 70.459,115.195 68.330,115.195 C66.175,115.195 64.520,114.556 63.364,113.276 C62.209,111.997 61.631,110.179 61.631,107.822 C61.631,105.466 62.212,103.656 63.374,102.393 C64.536,101.130 66.195,100.498 68.350,100.498 ZM65.176,111.841 C65.885,112.749 66.937,113.203 68.330,113.203 C69.717,113.203 70.763,112.754 71.470,111.855 C72.176,110.957 72.529,109.619 72.529,107.842 C72.529,106.091 72.179,104.762 71.479,103.857 C70.780,102.953 69.736,102.500 68.350,102.500 C66.950,102.500 65.894,102.953 65.181,103.857 C64.468,104.762 64.111,106.091 64.111,107.842 C64.111,109.600 64.466,110.933 65.176,111.841 ZM80.410,112.998 L86.455,112.998 L86.455,115.000 L78.076,115.000 L78.076,100.723 L80.410,100.723 L80.410,112.998 ZM91.133,109.756 C91.133,110.934 91.406,111.803 91.953,112.363 C92.500,112.923 93.340,113.203 94.473,113.203 C96.673,113.203 97.773,112.048 97.773,109.736 L97.773,100.723 L100.107,100.723 L100.107,109.961 C100.107,111.016 99.881,111.938 99.429,112.729 C98.976,113.521 98.322,114.129 97.466,114.556 C96.610,114.982 95.586,115.195 94.395,115.195 C92.624,115.195 91.247,114.727 90.264,113.789 C89.281,112.852 88.789,111.562 88.789,109.922 L88.789,100.723 L91.133,100.723 L91.133,109.756 Z" class="cls-1"/>
</svg>
