<svg xmlns="http://www.w3.org/2000/svg" xmlns:xlink="http://www.w3.org/1999/xlink" preserveAspectRatio="xMidYMid" width="24" height="19" viewBox="0 0 24 19">
  <defs>
    <style>
      .cls-1 {
        fill: #000;
        fill-rule: evenodd;
      }
    </style>
  </defs>
  <path d="M23.950,16.500 C23.950,17.878 22.834,19.000 21.461,19.000 L2.539,19.000 C1.166,19.000 0.049,17.878 0.049,16.500 L0.049,12.500 C0.049,12.382 0.068,12.270 0.084,12.156 C0.054,12.067 0.040,11.972 0.066,11.874 L2.551,2.309 C2.887,1.014 4.195,-0.000 5.527,-0.000 L18.473,-0.000 C19.806,-0.000 21.114,1.014 21.449,2.309 L23.934,11.874 C23.960,11.972 23.946,12.067 23.916,12.156 C23.932,12.270 23.950,12.382 23.950,12.500 L23.950,16.500 ZM1.045,16.500 C1.045,17.327 1.715,18.000 2.539,18.000 L21.461,18.000 C22.284,18.000 22.955,17.327 22.955,16.500 L22.955,12.500 C22.955,11.673 22.284,11.000 21.461,11.000 L2.539,11.000 C1.715,11.000 1.045,11.673 1.045,12.500 L1.045,16.500 ZM20.486,2.561 C20.266,1.715 19.344,1.000 18.473,1.000 L5.527,1.000 C4.656,1.000 3.734,1.715 3.513,2.562 L1.523,10.223 C1.834,10.082 2.176,10.000 2.539,10.000 L21.461,10.000 C21.823,10.000 22.166,10.082 22.477,10.223 L20.486,2.561 ZM3.535,15.000 L20.465,15.000 C20.740,15.000 20.963,15.224 20.963,15.500 C20.963,15.776 20.740,16.000 20.465,16.000 L3.535,16.000 C3.260,16.000 3.037,15.776 3.037,15.500 C3.037,15.224 3.260,15.000 3.535,15.000 ZM20.465,14.000 C20.190,14.000 19.967,13.776 19.967,13.500 C19.967,13.224 20.190,13.000 20.465,13.000 C20.740,13.000 20.963,13.224 20.963,13.500 C20.963,13.776 20.740,14.000 20.465,14.000 ZM18.473,14.000 C18.198,14.000 17.976,13.776 17.976,13.500 C17.976,13.224 18.198,13.000 18.473,13.000 C18.748,13.000 18.971,13.224 18.971,13.500 C18.971,13.776 18.748,14.000 18.473,14.000 Z" class="cls-1"/>
</svg>
