<svg xmlns="http://www.w3.org/2000/svg" xmlns:xlink="http://www.w3.org/1999/xlink" preserveAspectRatio="xMidYMid" width="20" height="24" viewBox="0 0 20 24">
  <defs>
    <style>
      .cls-1 {
        fill: #000;
        fill-rule: evenodd;
      }
    </style>
  </defs>
  <path d="M16.500,13.000 L15.000,13.000 L15.000,12.000 L16.500,12.000 C17.878,12.000 19.000,10.878 19.000,9.500 L19.000,3.500 C19.000,2.122 17.878,1.000 16.500,1.000 L3.500,1.000 C2.122,1.000 1.000,2.122 1.000,3.500 L1.000,9.500 C1.000,10.878 2.122,12.000 3.500,12.000 L5.000,12.000 L5.000,13.000 L3.500,13.000 C1.570,13.000 0.000,11.430 0.000,9.500 L0.000,3.500 C0.000,1.570 1.570,-0.000 3.500,-0.000 L16.500,-0.000 C18.430,-0.000 20.000,1.570 20.000,3.500 L20.000,9.500 C20.000,11.430 18.430,13.000 16.500,13.000 ZM4.500,15.000 C5.561,15.000 6.525,15.428 8.000,17.399 L8.000,8.000 C8.000,6.897 8.897,6.000 10.000,6.000 C11.103,6.000 12.000,6.897 12.000,8.000 L12.000,13.640 L16.158,15.026 C17.462,15.445 17.762,16.920 17.487,18.112 L16.418,24.000 L7.732,24.000 L3.584,17.777 C3.212,17.209 3.023,16.295 3.377,15.642 C3.601,15.228 4.000,15.000 4.500,15.000 ZM4.418,17.227 L8.268,23.000 L15.582,23.000 L16.508,17.911 C16.688,17.127 16.555,16.204 15.847,15.976 L11.000,14.360 L11.000,8.000 C11.000,7.449 10.551,7.000 10.000,7.000 C9.458,7.000 9.000,7.458 9.000,8.000 L9.000,20.689 L8.081,19.273 C6.121,16.252 5.237,16.000 4.500,16.000 C4.334,16.000 4.289,16.058 4.256,16.117 C4.123,16.364 4.200,16.893 4.418,17.227 Z" class="cls-1"/>
</svg>
