<svg xmlns="http://www.w3.org/2000/svg" xmlns:xlink="http://www.w3.org/1999/xlink" preserveAspectRatio="xMidYMid" width="24" height="24" viewBox="0 0 24 24">
  <defs>
    <style>
      .cls-1 {
        fill: #fff;
        fill-rule: evenodd;
      }
    </style>
  </defs>
  <path d="M12.000,24.000 C5.373,24.000 -0.000,18.627 -0.000,12.000 C-0.000,5.373 5.373,-0.000 12.000,-0.000 C18.627,-0.000 24.000,5.373 24.000,12.000 C24.000,18.627 18.627,24.000 12.000,24.000 ZM12.000,1.500 C6.201,1.500 1.500,6.201 1.500,12.000 C1.500,17.799 6.201,22.500 12.000,22.500 C17.799,22.500 22.500,17.799 22.500,12.000 C22.500,6.201 17.799,1.500 12.000,1.500 ZM17.036,17.036 C16.750,17.322 16.286,17.322 16.000,17.036 L12.000,13.036 L8.000,17.036 C7.714,17.322 7.250,17.322 6.964,17.036 C6.678,16.750 6.678,16.286 6.964,16.000 L10.964,12.000 L6.964,8.000 C6.678,7.714 6.678,7.250 6.964,6.964 C7.250,6.678 7.714,6.678 8.000,6.964 L12.000,10.964 L16.000,6.964 C16.286,6.678 16.750,6.678 17.036,6.964 C17.322,7.250 17.322,7.714 17.036,8.000 L13.036,12.000 L17.036,16.000 C17.322,16.286 17.322,16.750 17.036,17.036 Z" class="cls-1"/>
</svg>
