<svg xmlns="http://www.w3.org/2000/svg" xmlns:xlink="http://www.w3.org/1999/xlink" preserveAspectRatio="xMidYMid" width="36" height="36" viewBox="0 0 36 36">
  <defs>
    <style>
      .cls-1 {
        fill: #a0a0a0;
        fill-rule: evenodd;
      }
    </style>
  </defs>
  <path d="M18.000,36.000 C8.059,36.000 -0.000,27.941 -0.000,18.000 C-0.000,8.059 8.059,-0.000 18.000,-0.000 C27.941,-0.000 36.000,8.059 36.000,18.000 C36.000,27.941 27.941,36.000 18.000,36.000 ZM18.000,2.250 C9.302,2.250 2.250,9.302 2.250,18.000 C2.250,26.698 9.302,33.750 18.000,33.750 C26.698,33.750 33.750,26.698 33.750,18.000 C33.750,9.302 26.698,2.250 18.000,2.250 ZM25.554,25.554 C25.125,25.983 24.429,25.983 24.000,25.554 L18.000,19.554 L12.000,25.554 C11.571,25.983 10.875,25.983 10.446,25.554 C10.017,25.125 10.017,24.429 10.446,24.000 L16.446,18.000 L10.446,12.000 C10.017,11.571 10.017,10.875 10.446,10.446 C10.875,10.017 11.571,10.017 12.000,10.446 L18.000,16.446 L24.000,10.446 C24.429,10.017 25.125,10.017 25.554,10.446 C25.983,10.875 25.983,11.571 25.554,12.000 L19.554,18.000 L25.554,24.000 C25.983,24.429 25.983,25.125 25.554,25.554 Z" class="cls-1"/>
</svg>
