<svg xmlns="http://www.w3.org/2000/svg" xmlns:xlink="http://www.w3.org/1999/xlink" preserveAspectRatio="xMidYMid" width="23" height="14" viewBox="0 0 23 14">
  <defs>
    <style>
      .cls-1 {
        fill: #000;
        fill-rule: evenodd;
      }
    </style>
  </defs>
  <path d="M7.000,14.000 L7.000,11.000 L23.000,11.000 L23.000,14.000 L7.000,14.000 ZM7.000,6.000 L23.000,6.000 L23.000,9.000 L7.000,9.000 L7.000,6.000 ZM7.000,1.000 L23.000,1.000 L23.000,4.000 L7.000,4.000 L7.000,1.000 ZM3.484,10.290 C3.350,10.490 3.193,10.690 3.012,10.890 C2.830,11.090 2.633,11.302 2.420,11.526 L1.284,12.702 L3.668,12.702 C3.668,12.820 3.657,12.941 3.636,13.066 C3.614,13.192 3.585,13.305 3.548,13.406 L-0.228,13.406 L-0.252,13.302 L1.900,11.030 C2.092,10.822 2.260,10.638 2.404,10.478 C2.548,10.318 2.668,10.166 2.764,10.022 C2.860,9.878 2.932,9.740 2.980,9.606 C3.028,9.473 3.052,9.329 3.052,9.174 C3.052,8.934 2.981,8.742 2.840,8.598 C2.698,8.454 2.476,8.382 2.172,8.382 C2.044,8.382 1.916,8.393 1.788,8.414 C1.660,8.436 1.538,8.464 1.424,8.498 C1.309,8.533 1.201,8.569 1.100,8.606 C0.998,8.644 0.910,8.678 0.836,8.710 C0.777,8.636 0.724,8.538 0.676,8.418 C0.628,8.298 0.601,8.180 0.596,8.062 C0.798,7.956 1.052,7.861 1.356,7.778 C1.660,7.696 1.964,7.654 2.268,7.654 C2.785,7.654 3.188,7.777 3.476,8.022 C3.764,8.268 3.908,8.601 3.908,9.022 C3.908,9.252 3.870,9.470 3.796,9.678 C3.721,9.886 3.617,10.090 3.484,10.290 ZM3.620,5.062 C3.598,5.180 3.569,5.294 3.532,5.406 L0.156,5.406 C0.156,5.294 0.168,5.176 0.192,5.050 C0.216,4.925 0.244,4.814 0.276,4.718 L1.596,4.718 L2.284,0.814 L1.100,1.326 C1.041,1.236 0.994,1.137 0.960,1.030 C0.925,0.924 0.902,0.817 0.892,0.710 L3.148,-0.306 L3.284,-0.306 L2.396,4.718 L3.652,4.718 C3.652,4.830 3.641,4.945 3.620,5.062 Z" class="cls-1"/>
</svg>
