<svg xmlns="http://www.w3.org/2000/svg" xmlns:xlink="http://www.w3.org/1999/xlink" preserveAspectRatio="xMidYMid" width="134" height="115" viewBox="0 0 134 115">
  <defs>
    <style>
      .cls-1 {
        fill: #000;
        fill-rule: evenodd;
      }
    </style>
  </defs>
  <path d="M131.959,114.603 L129.303,114.603 L125.885,108.900 L123.580,108.900 L123.580,114.603 L121.246,114.603 L121.246,100.326 L125.280,100.326 C127.122,100.326 128.486,100.671 129.371,101.361 C130.257,102.051 130.700,103.093 130.700,104.486 C130.700,106.263 129.775,107.529 127.926,108.285 L131.959,114.603 ZM128.297,104.564 C128.297,103.757 128.034,103.177 127.506,102.826 C126.979,102.474 126.185,102.298 125.123,102.298 L123.580,102.298 L123.580,106.966 L125.202,106.966 C126.289,106.966 127.077,106.764 127.565,106.361 C128.053,105.957 128.297,105.358 128.297,104.564 ZM111.500,114.798 C109.345,114.798 107.690,114.159 106.535,112.879 C105.379,111.600 104.801,109.782 104.801,107.425 C104.801,105.068 105.382,103.259 106.544,101.995 C107.706,100.733 109.365,100.101 111.520,100.101 C113.642,100.101 115.283,100.742 116.442,102.025 C117.601,103.307 118.180,105.114 118.180,107.445 C118.180,109.769 117.599,111.576 116.437,112.865 C115.275,114.154 113.629,114.798 111.500,114.798 ZM114.650,103.460 C113.950,102.555 112.907,102.103 111.520,102.103 C110.120,102.103 109.064,102.555 108.351,103.460 C107.638,104.365 107.282,105.693 107.282,107.445 C107.282,109.203 107.636,110.536 108.346,111.444 C109.056,112.352 110.107,112.806 111.500,112.806 C112.887,112.806 113.934,112.357 114.640,111.458 C115.346,110.560 115.700,109.222 115.700,107.445 C115.700,105.693 115.350,104.365 114.650,103.460 ZM99.118,114.603 L96.784,114.603 L96.784,102.328 L92.584,102.328 L92.584,100.326 L103.317,100.326 L103.317,102.328 L99.118,102.328 L99.118,114.603 ZM88.082,100.326 L90.416,100.326 L90.416,114.603 L88.082,114.603 L88.082,100.326 ZM77.399,114.603 L73.405,114.603 L73.405,100.326 L77.819,100.326 C80.091,100.326 81.858,100.938 83.121,102.161 C84.384,103.386 85.016,105.108 85.016,107.328 C85.016,109.684 84.362,111.486 83.053,112.733 C81.745,113.980 79.860,114.603 77.399,114.603 ZM77.760,102.279 L75.739,102.279 L75.739,112.640 L77.399,112.640 C80.836,112.640 82.555,110.895 82.555,107.406 C82.555,103.988 80.957,102.279 77.760,102.279 ZM62.243,100.326 L70.319,100.326 L70.319,102.298 L64.577,102.298 L64.577,106.185 L69.957,106.185 L69.957,108.138 L64.577,108.138 L64.577,112.620 L70.319,112.620 L70.319,114.603 L62.243,114.603 L62.243,100.326 ZM45.885,100.326 L53.961,100.326 L53.961,102.298 L48.219,102.298 L48.219,106.185 L53.600,106.185 L53.600,108.138 L48.219,108.138 L48.219,112.620 L53.961,112.620 L53.961,114.603 L45.885,114.603 L45.885,100.326 ZM35.202,114.603 L31.207,114.603 L31.207,100.326 L35.621,100.326 C37.893,100.326 39.661,100.938 40.924,102.161 C42.187,103.386 42.819,105.108 42.819,107.328 C42.819,109.684 42.164,111.486 40.856,112.733 C39.547,113.980 37.662,114.603 35.202,114.603 ZM35.563,102.279 L33.541,102.279 L33.541,112.640 L35.202,112.640 C38.639,112.640 40.358,110.895 40.358,107.406 C40.358,103.988 38.759,102.279 35.563,102.279 ZM21.461,114.798 C19.306,114.798 17.651,114.159 16.495,112.879 C15.340,111.600 14.762,109.782 14.762,107.425 C14.762,105.068 15.343,103.259 16.505,101.995 C17.667,100.733 19.326,100.101 21.481,100.101 C23.603,100.101 25.244,100.742 26.403,102.025 C27.561,103.307 28.141,105.114 28.141,107.445 C28.141,109.769 27.560,111.576 26.398,112.865 C25.236,114.154 23.590,114.798 21.461,114.798 ZM24.611,103.460 C23.911,102.555 22.868,102.103 21.481,102.103 C20.081,102.103 19.025,102.555 18.312,103.460 C17.599,104.365 17.243,105.693 17.243,107.445 C17.243,109.203 17.597,110.536 18.307,111.444 C19.017,112.352 20.068,112.806 21.461,112.806 C22.848,112.806 23.894,112.357 24.601,111.458 C25.307,110.560 25.661,109.222 25.661,107.445 C25.661,105.693 25.310,104.365 24.611,103.460 ZM10.558,102.381 C10.021,102.209 9.456,102.122 8.864,102.122 C7.522,102.122 6.468,102.598 5.700,103.548 C4.931,104.499 4.547,105.811 4.547,107.484 C4.547,109.235 4.917,110.560 5.656,111.458 C6.394,112.357 7.464,112.806 8.864,112.806 C9.469,112.806 10.055,112.746 10.621,112.625 C11.188,112.505 11.777,112.350 12.389,112.161 L12.389,114.163 C11.269,114.587 10.000,114.798 8.580,114.798 C6.491,114.798 4.886,114.165 3.766,112.899 C2.646,111.633 2.086,109.821 2.086,107.464 C2.086,105.980 2.358,104.681 2.902,103.568 C3.445,102.454 4.231,101.602 5.260,101.009 C6.289,100.417 7.496,100.120 8.883,100.120 C10.341,100.120 11.689,100.427 12.926,101.038 L12.086,102.982 C11.604,102.754 11.095,102.554 10.558,102.381 Z" class="cls-1"/>
  <path d="M68.001,80.000 C45.943,80.000 28.000,62.057 28.000,40.002 C28.000,17.945 45.943,0.000 68.001,0.000 C90.058,0.000 108.000,17.943 108.000,40.002 C108.000,62.059 90.056,80.000 68.001,80.000 ZM68.001,2.713 C47.440,2.713 30.713,19.442 30.713,40.002 C30.713,60.561 47.440,77.289 68.001,77.289 C88.560,77.289 105.288,60.561 105.288,40.002 C105.288,19.442 88.560,2.713 68.001,2.713 Z" class="cls-1"/>
  <path d="M75.547,54.975 L73.344,53.256 L82.223,40.499 L73.344,27.675 L75.547,26.023 L85.980,40.499 L75.547,54.975 ZM61.520,54.975 L51.023,40.499 L61.520,26.023 L63.659,27.675 L54.845,40.499 L63.659,53.256 L61.520,54.975 Z" class="cls-1"/>
</svg>
