<svg xmlns="http://www.w3.org/2000/svg" xmlns:xlink="http://www.w3.org/1999/xlink" preserveAspectRatio="xMidYMid" width="130" height="24" viewBox="0 0 130 24">
  <defs>
    <style>
      .cls-1 {
        fill: #fff;
        fill-rule: evenodd;
      }
    </style>
  </defs>
  <g>
    <path d="M47.000,24.000 C40.373,24.000 35.000,18.627 35.000,12.000 C35.000,5.373 40.373,-0.000 47.000,-0.000 C53.627,-0.000 59.000,5.373 59.000,12.000 C59.000,18.627 53.627,24.000 47.000,24.000 ZM47.000,1.500 C41.201,1.500 36.500,6.201 36.500,12.000 C36.500,17.799 41.201,22.500 47.000,22.500 C52.799,22.500 57.500,17.799 57.500,12.000 C57.500,6.201 52.799,1.500 47.000,1.500 ZM52.036,17.036 C51.750,17.322 51.286,17.322 51.000,17.036 L47.000,13.036 L43.000,17.036 C42.714,17.322 42.250,17.322 41.964,17.036 C41.678,16.750 41.678,16.286 41.964,16.000 L45.964,12.000 L41.964,8.000 C41.678,7.714 41.678,7.250 41.964,6.964 C42.250,6.678 42.714,6.678 43.000,6.964 L47.000,10.964 L51.000,6.964 C51.286,6.678 51.750,6.678 52.036,6.964 C52.322,7.250 52.322,7.714 52.036,8.000 L48.036,12.000 L52.036,16.000 C52.322,16.286 52.322,16.750 52.036,17.036 Z" class="cls-1"/>
    <path d="M93.541,14.513 C92.786,15.351 91.716,15.770 90.332,15.770 C88.931,15.770 87.856,15.355 87.104,14.523 C86.353,13.691 85.978,12.510 85.978,10.978 C85.978,9.446 86.355,8.270 87.111,7.449 C87.866,6.628 88.944,6.217 90.345,6.217 C91.724,6.217 92.791,6.634 93.544,7.468 C94.297,8.301 94.674,9.476 94.674,10.991 C94.674,12.501 94.296,13.676 93.541,14.513 ZM92.379,8.401 C91.924,7.813 91.246,7.518 90.345,7.518 C89.435,7.518 88.748,7.813 88.285,8.401 C87.822,8.989 87.590,9.852 87.590,10.991 C87.590,12.133 87.821,13.000 88.282,13.590 C88.743,14.180 89.427,14.475 90.332,14.475 C91.234,14.475 91.914,14.183 92.373,13.599 C92.832,13.015 93.062,12.146 93.062,10.991 C93.062,9.852 92.834,8.989 92.379,8.401 ZM76.261,8.248 L76.210,8.248 L76.242,8.661 C76.301,9.448 76.331,10.168 76.331,10.819 L76.331,15.643 L74.953,15.643 L74.953,6.363 L76.794,6.363 L81.345,13.720 L81.383,13.720 C81.375,13.623 81.358,13.268 81.333,12.657 C81.307,12.045 81.294,11.568 81.294,11.225 L81.294,6.363 L82.685,6.363 L82.685,15.643 L80.825,15.643 L76.261,8.248 Z" class="cls-1"/>
  </g>
</svg>
