<svg xmlns="http://www.w3.org/2000/svg" xmlns:xlink="http://www.w3.org/1999/xlink" preserveAspectRatio="xMidYMid" width="130" height="24" viewBox="0 0 130 24">
  <defs>
    <style>
      .cls-1 {
        fill: #000;
        fill-rule: evenodd;
      }
    </style>
  </defs>
  <g>
    <path d="M41.000,24.000 C34.373,24.000 29.000,18.627 29.000,12.000 C29.000,5.373 34.373,-0.000 41.000,-0.000 C47.627,-0.000 53.000,5.373 53.000,12.000 C53.000,18.627 47.627,24.000 41.000,24.000 ZM41.000,1.500 C35.201,1.500 30.500,6.201 30.500,12.000 C30.500,17.799 35.201,22.500 41.000,22.500 C46.799,22.500 51.500,17.799 51.500,12.000 C51.500,6.201 46.799,1.500 41.000,1.500 ZM39.732,16.178 C39.708,16.214 39.693,16.254 39.661,16.286 C39.513,16.434 39.318,16.502 39.125,16.497 C38.931,16.502 38.737,16.434 38.589,16.286 C38.557,16.254 38.542,16.214 38.518,16.179 L34.839,12.500 C34.553,12.214 34.553,11.750 34.839,11.464 C35.125,11.178 35.589,11.178 35.875,11.464 L39.125,14.714 L46.125,7.714 C46.411,7.428 46.875,7.428 47.161,7.714 C47.447,8.000 47.447,8.464 47.161,8.750 L39.732,16.178 Z" class="cls-1"/>
    <path d="M101.860,14.743 L101.860,16.031 L96.610,16.031 L96.610,6.751 L101.860,6.751 L101.860,8.033 L98.128,8.033 L98.128,10.560 L101.625,10.560 L101.625,11.829 L98.128,11.829 L98.128,14.743 L101.860,14.743 ZM89.236,16.031 L85.998,6.751 L87.560,6.751 L89.496,12.521 C89.598,12.796 89.705,13.151 89.820,13.584 C89.934,14.018 90.008,14.341 90.042,14.552 C90.097,14.231 90.182,13.858 90.296,13.435 C90.410,13.012 90.503,12.699 90.575,12.496 L92.511,6.751 L94.085,6.751 L90.835,16.031 L89.236,16.031 ZM82.159,13.454 L78.611,13.454 L77.703,16.031 L76.104,16.031 L79.576,6.713 L81.226,6.713 L84.698,16.031 L83.086,16.031 L82.159,13.454 ZM80.890,9.620 C80.826,9.451 80.738,9.184 80.626,8.820 C80.514,8.456 80.437,8.190 80.395,8.021 C80.280,8.541 80.113,9.110 79.893,9.728 L79.055,12.146 L81.759,12.146 L80.890,9.620 ZM70.557,10.191 C70.790,10.344 71.209,10.545 71.814,10.794 C72.495,11.078 72.995,11.343 73.312,11.588 C73.629,11.833 73.862,12.111 74.010,12.419 C74.158,12.728 74.232,13.092 74.232,13.511 C74.232,14.336 73.934,14.984 73.337,15.454 C72.741,15.923 71.918,16.158 70.868,16.158 C69.819,16.158 68.960,15.995 68.291,15.669 L68.291,14.235 C68.714,14.434 69.164,14.590 69.640,14.705 C70.116,14.819 70.559,14.876 70.970,14.876 C71.571,14.876 72.014,14.762 72.300,14.533 C72.585,14.305 72.728,13.998 72.728,13.613 C72.728,13.266 72.597,12.972 72.334,12.730 C72.072,12.489 71.530,12.204 70.709,11.874 C69.863,11.531 69.266,11.139 68.919,10.699 C68.572,10.259 68.399,9.730 68.399,9.112 C68.399,8.338 68.674,7.729 69.224,7.284 C69.774,6.840 70.513,6.618 71.439,6.618 C72.328,6.618 73.213,6.812 74.093,7.202 L73.610,8.439 C72.785,8.093 72.049,7.919 71.401,7.919 C70.910,7.919 70.538,8.026 70.284,8.240 C70.030,8.453 69.903,8.736 69.903,9.087 C69.903,9.328 69.954,9.534 70.056,9.706 C70.157,9.877 70.324,10.039 70.557,10.191 Z" class="cls-1"/>
  </g>
</svg>
