<svg xmlns="http://www.w3.org/2000/svg" xmlns:xlink="http://www.w3.org/1999/xlink" preserveAspectRatio="xMidYMid" width="130" height="24" viewBox="0 0 130 24">
  <defs>
    <style>
      .cls-1 {
        fill: #000;
        fill-rule: evenodd;
      }
    </style>
  </defs>
  <g>
    <path d="M46.000,24.000 C39.373,24.000 34.000,18.627 34.000,12.000 C34.000,5.373 39.373,-0.000 46.000,-0.000 C52.627,-0.000 58.000,5.373 58.000,12.000 C58.000,18.627 52.627,24.000 46.000,24.000 ZM46.000,1.500 C40.201,1.500 35.500,6.201 35.500,12.000 C35.500,17.799 40.201,22.500 46.000,22.500 C51.799,22.500 56.500,17.799 56.500,12.000 C56.500,6.201 51.799,1.500 46.000,1.500 ZM44.732,16.178 C44.708,16.214 44.693,16.254 44.661,16.286 C44.513,16.434 44.318,16.502 44.125,16.497 C43.931,16.502 43.737,16.434 43.589,16.286 C43.557,16.254 43.542,16.214 43.518,16.179 L39.839,12.500 C39.553,12.214 39.553,11.750 39.839,11.464 C40.125,11.178 40.589,11.178 40.875,11.464 L44.125,14.714 L51.125,7.714 C51.411,7.428 51.875,7.428 52.161,7.714 C52.447,8.000 52.447,8.464 52.161,8.750 L44.732,16.178 Z" class="cls-1"/>
    <path d="M93.950,7.919 C93.459,7.919 93.087,8.026 92.833,8.240 C92.579,8.453 92.452,8.736 92.452,9.087 C92.452,9.328 92.503,9.534 92.604,9.706 C92.706,9.877 92.873,10.039 93.106,10.191 C93.339,10.344 93.757,10.545 94.363,10.794 C95.044,11.078 95.543,11.343 95.861,11.588 C96.178,11.833 96.411,12.111 96.559,12.419 C96.707,12.728 96.781,13.092 96.781,13.511 C96.781,14.336 96.483,14.984 95.886,15.454 C95.289,15.923 94.466,16.158 93.417,16.158 C92.367,16.158 91.508,15.995 90.840,15.669 L90.840,14.235 C91.263,14.434 91.713,14.590 92.189,14.705 C92.665,14.819 93.108,14.876 93.518,14.876 C94.119,14.876 94.563,14.762 94.848,14.533 C95.134,14.305 95.277,13.998 95.277,13.613 C95.277,13.266 95.146,12.972 94.883,12.730 C94.621,12.489 94.079,12.204 93.258,11.874 C92.412,11.531 91.815,11.139 91.468,10.699 C91.121,10.259 90.948,9.730 90.948,9.112 C90.948,8.338 91.223,7.729 91.773,7.284 C92.323,6.840 93.061,6.618 93.988,6.618 C94.877,6.618 95.761,6.812 96.642,7.202 L96.159,8.439 C95.334,8.093 94.598,7.919 93.950,7.919 ZM82.875,6.751 L88.124,6.751 L88.124,8.033 L84.392,8.033 L84.392,10.560 L87.889,10.560 L87.889,11.829 L84.392,11.829 L84.392,14.743 L88.124,14.743 L88.124,16.031 L82.875,16.031 L82.875,6.751 ZM77.258,16.031 L75.735,16.031 L75.735,12.483 L72.656,6.751 L74.307,6.751 L76.503,10.985 L78.699,6.751 L80.350,6.751 L77.258,12.432 L77.258,16.031 Z" class="cls-1"/>
  </g>
</svg>
