<svg xmlns="http://www.w3.org/2000/svg" xmlns:xlink="http://www.w3.org/1999/xlink" preserveAspectRatio="xMidYMid" width="130" height="24" viewBox="0 0 130 24">
  <defs>
    <style>
      .cls-1 {
        fill: #fff;
        fill-rule: evenodd;
      }
    </style>
  </defs>
  <g>
    <path d="M30.000,24.000 C23.373,24.000 18.000,18.627 18.000,12.000 C18.000,5.373 23.373,-0.000 30.000,-0.000 C36.627,-0.000 42.000,5.373 42.000,12.000 C42.000,18.627 36.627,24.000 30.000,24.000 ZM30.000,1.500 C24.201,1.500 19.500,6.201 19.500,12.000 C19.500,17.799 24.201,22.500 30.000,22.500 C35.799,22.500 40.500,17.799 40.500,12.000 C40.500,6.201 35.799,1.500 30.000,1.500 ZM35.036,17.036 C34.750,17.322 34.286,17.322 34.000,17.036 L30.000,13.036 L26.000,17.036 C25.714,17.322 25.250,17.322 24.964,17.036 C24.678,16.750 24.678,16.286 24.964,16.000 L28.964,12.000 L24.964,8.000 C24.678,7.714 24.678,7.250 24.964,6.964 C25.250,6.678 25.714,6.678 26.000,6.964 L30.000,10.964 L34.000,6.964 C34.286,6.678 34.750,6.678 35.036,6.964 C35.322,7.250 35.322,7.714 35.036,8.000 L31.036,12.000 L35.036,16.000 C35.322,16.286 35.322,16.750 35.036,17.036 Z" class="cls-1"/>
    <path d="M106.892,16.031 L106.892,6.751 L108.409,6.751 L108.409,14.730 L112.338,14.730 L112.338,16.031 L106.892,16.031 ZM98.336,6.751 L103.586,6.751 L103.586,8.033 L99.853,8.033 L99.853,10.560 L103.351,10.560 L103.351,11.829 L99.853,11.829 L99.853,14.743 L103.586,14.743 L103.586,16.031 L98.336,16.031 L98.336,6.751 ZM93.847,8.087 C93.497,7.975 93.130,7.919 92.745,7.919 C91.873,7.919 91.188,8.228 90.689,8.846 C90.189,9.464 89.940,10.316 89.940,11.404 C89.940,12.542 90.180,13.403 90.660,13.987 C91.140,14.571 91.835,14.863 92.745,14.863 C93.139,14.863 93.520,14.824 93.888,14.746 C94.256,14.668 94.639,14.567 95.037,14.444 L95.037,15.746 C94.309,16.021 93.484,16.158 92.561,16.158 C91.203,16.158 90.160,15.747 89.432,14.924 C88.704,14.101 88.340,12.923 88.340,11.391 C88.340,10.426 88.517,9.582 88.870,8.858 C89.223,8.135 89.734,7.580 90.403,7.195 C91.072,6.810 91.857,6.618 92.758,6.618 C93.706,6.618 94.582,6.817 95.386,7.214 L94.840,8.478 C94.527,8.329 94.196,8.199 93.847,8.087 ZM78.623,8.636 L78.572,8.636 L78.604,9.049 C78.663,9.836 78.693,10.555 78.693,11.207 L78.693,16.031 L77.315,16.031 L77.315,6.751 L79.156,6.751 L83.707,14.108 L83.746,14.108 C83.737,14.011 83.720,13.656 83.695,13.045 C83.669,12.433 83.657,11.956 83.657,11.613 L83.657,6.751 L85.047,6.751 L85.047,16.031 L83.187,16.031 L78.623,8.636 ZM72.251,13.454 L68.703,13.454 L67.795,16.031 L66.196,16.031 L69.668,6.713 L71.318,6.713 L74.790,16.031 L73.178,16.031 L72.251,13.454 ZM70.982,9.620 C70.918,9.451 70.830,9.184 70.718,8.820 C70.606,8.456 70.529,8.190 70.487,8.021 C70.372,8.541 70.205,9.110 69.985,9.728 L69.147,12.146 L71.851,12.146 L70.982,9.620 ZM62.931,8.087 C62.582,7.975 62.215,7.919 61.830,7.919 C60.958,7.919 60.272,8.228 59.773,8.846 C59.274,9.464 59.024,10.316 59.024,11.404 C59.024,12.542 59.264,13.403 59.744,13.987 C60.225,14.571 60.920,14.863 61.830,14.863 C62.223,14.863 62.604,14.824 62.972,14.746 C63.340,14.668 63.723,14.567 64.121,14.444 L64.121,15.746 C63.393,16.021 62.568,16.158 61.646,16.158 C60.287,16.158 59.244,15.747 58.516,14.924 C57.788,14.101 57.424,12.923 57.424,11.391 C57.424,10.426 57.601,9.582 57.954,8.858 C58.308,8.135 58.819,7.580 59.487,7.195 C60.156,6.810 60.941,6.618 61.842,6.618 C62.790,6.618 63.666,6.817 64.470,7.214 L63.924,8.478 C63.611,8.329 63.280,8.199 62.931,8.087 Z" class="cls-1"/>
  </g>
</svg>
