<svg xmlns="http://www.w3.org/2000/svg" xmlns:xlink="http://www.w3.org/1999/xlink" preserveAspectRatio="xMidYMid" width="24" height="24" viewBox="0 0 24 24">
  <defs>
    <style>
      .cls-1 {
        fill: #000;
        fill-rule: evenodd;
      }
    </style>
  </defs>
  <path d="M12.003,23.015 C5.943,23.015 1.014,18.078 1.014,12.010 C1.014,5.941 5.943,1.004 12.003,1.004 C18.062,1.004 22.991,5.941 22.991,12.010 C22.991,18.078 18.062,23.015 12.003,23.015 ZM21.270,13.516 C20.949,13.415 18.365,12.643 15.424,13.114 C16.651,16.493 17.151,19.245 17.247,19.817 C19.353,18.391 20.852,16.132 21.270,13.516 ZM15.669,20.677 C15.529,19.853 14.985,16.978 13.667,13.549 C13.646,13.556 13.625,13.562 13.605,13.570 C8.311,15.417 6.410,19.094 6.241,19.440 C7.833,20.683 9.833,21.424 12.003,21.424 C13.303,21.424 14.542,21.158 15.669,20.677 ZM5.030,18.309 C5.242,17.945 7.818,13.673 12.659,12.106 C12.781,12.066 12.905,12.029 13.029,11.994 C12.793,11.460 12.537,10.926 12.268,10.399 C7.580,11.804 3.032,11.745 2.621,11.737 C2.618,11.832 2.617,11.928 2.617,12.024 C2.617,14.438 3.530,16.643 5.030,18.309 ZM2.815,10.099 C3.235,10.104 7.102,10.121 11.492,8.953 C9.937,6.184 8.260,3.857 8.012,3.517 C5.386,4.757 3.423,7.182 2.815,10.099 ZM9.803,2.885 C10.063,3.233 11.767,5.558 13.305,8.388 C16.643,7.135 18.056,5.233 18.225,4.992 C16.567,3.519 14.388,2.624 12.003,2.624 C11.245,2.624 10.509,2.714 9.803,2.885 ZM19.268,6.079 C19.070,6.347 17.497,8.367 14.027,9.786 C14.245,10.234 14.455,10.689 14.650,11.147 C14.719,11.310 14.786,11.472 14.852,11.633 C17.975,11.239 21.078,11.870 21.388,11.935 C21.367,9.716 20.575,7.679 19.268,6.079 Z" class="cls-1"/>
</svg>
