<svg xmlns="http://www.w3.org/2000/svg" xmlns:xlink="http://www.w3.org/1999/xlink" preserveAspectRatio="xMidYMid" width="17" height="17" viewBox="0 0 17 17">
  <defs>
    <style>
      .cls-1 {
        fill: #000;
        fill-rule: evenodd;
      }
    </style>
  </defs>
  <path d="M16.000,17.000 L6.000,17.000 C5.448,17.000 5.000,16.552 5.000,16.000 L5.000,12.000 L1.000,12.000 C0.448,12.000 -0.000,11.552 -0.000,11.000 L-0.000,1.000 C-0.000,0.448 0.448,-0.000 1.000,-0.000 L11.000,-0.000 C11.552,-0.000 12.000,0.448 12.000,1.000 L12.000,5.000 L16.000,5.000 C16.552,5.000 17.000,5.448 17.000,6.000 L17.000,16.000 C17.000,16.552 16.552,17.000 16.000,17.000 ZM10.000,2.000 L2.000,2.000 L2.000,10.000 L5.000,10.000 L5.000,6.000 C5.000,5.448 5.448,5.000 6.000,5.000 L10.000,5.000 L10.000,2.000 ZM15.000,7.000 L7.000,7.000 L7.000,15.000 L15.000,15.000 L15.000,7.000 Z" class="cls-1"/>
</svg>
