<svg xmlns="http://www.w3.org/2000/svg" xmlns:xlink="http://www.w3.org/1999/xlink" preserveAspectRatio="xMidYMid" width="82" height="29" viewBox="0 0 82 29">
  <defs>
    <style>
      .cls-1 {
        fill: #80e45a;
        fill-rule: evenodd;
      }
    </style>
  </defs>
  <g>
    <path d="M64.084,11.901 C62.681,11.901 61.278,12.920 61.278,14.983 C61.278,16.974 62.645,18.030 64.096,18.030 C65.523,18.030 66.339,17.118 66.627,16.159 L67.946,16.590 C67.562,18.030 66.267,19.409 64.096,19.409 C61.805,19.409 59.802,17.754 59.802,14.983 C59.802,12.213 61.877,10.546 64.084,10.546 C66.243,10.546 67.526,11.817 67.910,13.304 L66.555,13.760 C66.303,12.729 65.511,11.901 64.084,11.901 ZM57.114,10.726 L58.577,10.726 L58.577,19.229 L57.114,19.229 L57.114,10.726 ZM53.942,12.968 L51.291,19.229 L50.044,19.229 L47.417,12.992 L47.417,19.229 L46.014,19.229 L46.014,10.726 L47.933,10.726 L50.692,17.214 L53.414,10.726 L55.369,10.726 L55.369,19.229 L53.942,19.229 L53.942,12.968 ZM42.795,17.094 L39.197,17.094 L38.406,19.229 L36.883,19.229 L40.193,10.726 L41.860,10.726 L45.170,19.229 L43.599,19.229 L42.795,17.094 ZM40.996,12.285 L39.701,15.763 L42.292,15.763 L40.996,12.285 ZM30.341,12.789 L30.341,19.229 L28.902,19.229 L28.902,10.726 L30.737,10.726 L34.599,16.758 L34.599,10.726 L36.038,10.726 L36.038,19.229 L34.539,19.229 L30.341,12.789 ZM25.061,19.229 L23.621,19.229 L23.621,15.631 L20.647,10.726 L22.350,10.726 L24.389,14.288 L26.440,10.726 L28.059,10.726 L25.061,15.631 L25.061,19.229 ZM16.745,19.229 L13.747,19.229 L13.747,10.726 L16.757,10.726 C19.072,10.726 20.895,12.261 20.895,14.995 C20.895,17.718 19.048,19.229 16.745,19.229 ZM16.709,12.045 L15.186,12.045 L15.186,17.910 L16.697,17.910 C18.172,17.910 19.395,16.962 19.395,14.995 C19.395,13.004 18.184,12.045 16.709,12.045 Z" class="cls-1"/>
    <path d="M81.000,29.000 L1.000,29.000 L0.000,29.000 L0.000,0.000 L1.000,0.000 L82.000,0.000 L82.000,1.000 L82.000,29.000 L81.000,29.000 ZM81.000,1.000 L1.000,1.000 L1.000,28.000 L81.000,28.000 L81.000,1.000 Z" class="cls-1"/>
  </g>
</svg>
