<svg version="1.1" id="Ebene_1" xmlns="http://www.w3.org/2000/svg" xmlns:xlink="http://www.w3.org/1999/xlink" x="0px" y="0px"
	 viewBox="0 0 24 24" style="enable-background:new 0 0 24 24;" xml:space="preserve">
<g>
	<g>
		<polygon class="st0" points="24,24 5.5,24 5.5,23 23,23 23,5.5 24,5.5 		"/>
	</g>
	<g>
		<polygon class="st0" points="22,22 2.5,22 2.5,21 21,21 21,2.5 22,2.5 		"/>
	</g>
	<g>
		<path class="st0" d="M20,20H0V0h20V20z M1,19h18V1H1V19z"/>
	</g>
	<g>
		<path class="st0" d="M4.9,15.8l-0.9-0.5l3-5C7.2,10.1,7.3,10,7.5,10c0.2,0,0.3,0.1,0.4,0.2l2.1,2.5l3.6-5.4
			C13.7,7.1,13.9,7,14.1,7c0.2,0,0.3,0.1,0.4,0.3l3,8l-0.9,0.4l-2.7-7.1l-3.5,5.2C10.3,13.9,10.2,14,10,14c-0.2,0-0.3-0.1-0.4-0.2
			l-2-2.5L4.9,15.8z"/>
	</g>
	<g>
		<path class="st0" d="M6,7C4.9,7,4,6.1,4,5s0.9-2,2-2s2,0.9,2,2S7.1,7,6,7z M6,4C5.4,4,5,4.4,5,5s0.4,1,1,1s1-0.4,1-1S6.6,4,6,4z"
			/>
	</g>
	<g>
		<rect x="0.5" y="15" class="st0" width="19" height="1"/>
	</g>
</g>
</svg>
