<svg version="1.1" id="Ebene_1" xmlns="http://www.w3.org/2000/svg" xmlns:xlink="http://www.w3.org/1999/xlink" x="0px" y="0px"
	 viewBox="0 0 24 24" style="enable-background:new 0 0 24 24;" xml:space="preserve">
	<g>
		<g>
			<path class="st0" d="M24,24H0V0h24V24z M1,23h22V1H1V23z"/>
		</g>
		<g>
			<rect x="0.5" y="17" class="st0" width="23" height="1"/>
		</g>
		<g>
			<path class="st0" d="M9.5,9h-3c-1.1,0-2-0.9-2-2c0-1.2,1-2.1,2.2-2c0.4-1.2,1.5-2,2.8-2c1.7,0,3,1.3,3,3S11.2,9,9.5,9z M6.5,6
				c-0.6,0-1,0.4-1,1s0.4,1,1,1h3c1.1,0,2-0.9,2-2s-0.9-2-2-2c-1,0-1.8,0.7-2,1.7L7.4,6.3L6.9,6.1C6.7,6,6.6,6,6.5,6z"/>
		</g>
		<g>
			<path class="st0" d="M21.6,17.7L18,10.7C17.8,10.2,17.4,10,17,10c-0.4,0-0.8,0.2-1,0.6l-3,5.2c-0.1,0.1-0.2,0.2-0.4,0.2
				c-0.2,0-0.3-0.1-0.4-0.2c0,0-1.9-2.8-4.1-2.8c-1.8,0-3.5,3.4-4,4.7L3,17.3C3.3,16.8,5.2,12,8,12c2,0,3.7,1.7,4.4,2.6l2.6-4.5
				C15.5,9.4,16.2,9,17,9c0.8,0,1.6,0.5,1.9,1.2l3.5,7.1L21.6,17.7z"/>
		</g>
	</g>
</svg>