<svg xmlns="http://www.w3.org/2000/svg" xmlns:xlink="http://www.w3.org/1999/xlink" preserveAspectRatio="xMidYMid" width="24" height="24" viewBox="0 0 24 24">
  <defs>
    <style>
      .cls-1 {
        fill: #000;
        fill-rule: evenodd;
      }
    </style>
  </defs>
  <path d="M18.646,24.000 L5.959,24.000 C2.172,24.000 -0.000,22.007 -0.000,18.531 L-0.000,6.062 C-0.000,2.437 2.135,-0.000 5.312,-0.000 L19.104,-0.000 C21.459,-0.000 24.000,2.262 24.000,5.917 L24.000,18.458 C24.000,21.566 21.649,24.000 18.646,24.000 ZM23.000,5.917 C23.000,2.880 20.978,1.000 19.104,1.000 L6.641,1.000 C6.652,1.041 6.666,1.081 6.666,1.125 L6.666,6.000 C6.666,6.276 6.443,6.500 6.167,6.500 C5.890,6.500 5.666,6.276 5.666,6.000 L5.666,1.125 C5.666,1.081 5.681,1.041 5.692,1.000 L5.312,1.000 C5.185,1.000 5.082,1.030 4.962,1.039 C4.967,1.068 4.979,1.094 4.979,1.125 L4.979,6.000 C4.979,6.276 4.756,6.500 4.479,6.500 C4.202,6.500 3.979,6.276 3.979,6.000 L3.979,1.209 C3.736,1.283 3.495,1.358 3.285,1.470 C3.286,1.480 3.292,1.489 3.292,1.500 L3.292,6.000 C3.292,6.276 3.068,6.500 2.791,6.500 C2.515,6.500 2.292,6.276 2.292,6.000 L2.292,2.280 C1.386,3.288 1.000,4.731 1.000,6.062 L1.000,7.475 L7.375,7.475 L7.375,7.553 C8.491,6.233 10.139,5.375 12.000,5.375 C13.817,5.375 15.432,6.192 16.548,7.460 L23.000,7.460 L23.000,5.917 ZM6.916,11.459 C6.916,14.262 9.197,16.542 12.000,16.542 C14.803,16.542 17.083,14.262 17.083,11.459 C17.083,8.656 14.803,6.375 12.000,6.375 C9.197,6.375 6.916,8.656 6.916,11.459 ZM23.000,8.540 L17.304,8.540 C17.785,9.410 18.083,10.396 18.083,11.459 C18.083,14.813 15.354,17.542 12.000,17.542 C8.645,17.542 5.916,14.813 5.916,11.459 C5.916,10.390 6.217,9.399 6.703,8.526 L1.000,8.526 L1.000,18.531 C1.000,22.224 3.697,23.000 5.959,23.000 L18.646,23.000 C21.129,23.000 23.000,21.047 23.000,18.458 L23.000,8.540 ZM12.000,7.625 C14.116,7.625 15.833,9.342 15.833,11.459 C15.833,13.576 14.116,15.292 12.000,15.292 C9.882,15.292 8.166,13.576 8.166,11.459 C8.166,9.342 9.882,7.625 12.000,7.625 ZM12.000,13.375 C13.058,13.375 13.916,12.517 13.916,11.459 C13.916,10.400 13.058,9.541 12.000,9.541 C10.941,9.541 10.082,10.400 10.082,11.459 C10.082,12.517 10.941,13.375 12.000,13.375 ZM17.934,2.333 L19.565,2.333 C20.174,2.333 20.666,2.826 20.666,3.433 L20.666,5.066 C20.666,5.674 20.174,6.167 19.565,6.167 L17.934,6.167 C17.325,6.167 16.833,5.674 16.833,5.066 L16.833,3.433 C16.833,2.826 17.325,2.333 17.934,2.333 Z" class="cls-1"/>
</svg>
