<svg xmlns="http://www.w3.org/2000/svg" xmlns:xlink="http://www.w3.org/1999/xlink" preserveAspectRatio="xMidYMid" width="24" height="24" viewBox="0 0 24 24">
  <defs>
    <style>
      .cls-1 {
        fill: #000;
        fill-rule: evenodd;
      }
    </style>
  </defs>
  <path d="M12.001,24.000 L12.001,23.452 L12.000,24.000 C5.383,24.000 -0.000,18.617 -0.000,12.000 C-0.000,5.383 5.383,-0.000 12.000,-0.000 C18.617,-0.000 24.000,5.383 24.000,12.000 C24.000,18.617 18.617,24.000 12.001,24.000 ZM12.000,1.097 C5.988,1.097 1.097,5.988 1.097,12.000 C1.097,18.012 5.988,22.903 12.000,22.903 L12.001,22.903 C18.012,22.903 22.903,18.012 22.903,12.000 C22.903,5.988 18.012,1.097 12.000,1.097 ZM12.548,12.159 L12.548,13.977 C12.548,14.280 12.303,14.526 12.000,14.526 C11.697,14.526 11.452,14.280 11.452,13.977 L11.452,11.656 C11.452,11.353 11.697,11.108 12.000,11.108 C13.214,11.108 14.201,10.120 14.201,8.906 C14.201,7.692 13.214,6.705 12.000,6.705 C10.786,6.705 9.799,7.692 9.799,8.906 C9.799,9.209 9.553,9.455 9.250,9.455 C8.947,9.455 8.702,9.209 8.702,8.906 C8.702,7.088 10.181,5.608 12.000,5.608 C13.819,5.608 15.298,7.088 15.298,8.906 C15.298,10.538 14.107,11.897 12.548,12.159 ZM12.000,16.106 C12.499,16.106 12.903,16.511 12.903,17.010 C12.903,17.508 12.499,17.913 12.000,17.913 C11.501,17.913 11.097,17.508 11.097,17.010 C11.097,16.511 11.501,16.106 12.000,16.106 Z" class="cls-1"/>
</svg>
