<svg version="1.1" id="Ebene_1" xmlns="http://www.w3.org/2000/svg" xmlns:xlink="http://www.w3.org/1999/xlink" x="0px" y="0px"
	 viewBox="0 0 18 24" style="enable-background:new 0 0 18 24;" xml:space="preserve">
<g>
	<g>
		<path class="st0" d="M17.5,24h-17C0.2,24,0,23.8,0,23.5v-23C0,0.2,0.2,0,0.5,0h11c0.1,0,0.3,0.1,0.4,0.1l6,6
			C17.9,6.2,18,6.4,18,6.5v17C18,23.8,17.8,24,17.5,24z M1,23h16V6.7L11.3,1H1V23z"/>
	</g>
	<g>
		<path class="st0" d="M17.5,7h-6C11.2,7,11,6.8,11,6.5v-6C11,0.2,11.2,0,11.5,0S12,0.2,12,0.5V6h5.5C17.8,6,18,6.2,18,6.5
			S17.8,7,17.5,7z"/>
	</g>
	<g>
		<path class="st0" d="M11.5,19c-0.1,0-0.3,0-0.4-0.1c-0.2-0.2-0.2-0.5,0-0.7l3.6-3.6l-3.6-3.6c-0.2-0.2-0.2-0.5,0-0.7
			s0.5-0.2,0.7,0l4,4c0.2,0.2,0.2,0.5,0,0.7l-4,4C11.8,19,11.6,19,11.5,19z"/>
	</g>
	<g>
		<path class="st0" d="M6.5,19c-0.1,0-0.3,0-0.4-0.1l-4-4c-0.2-0.2-0.2-0.5,0-0.7l4-4c0.2-0.2,0.5-0.2,0.7,0s0.2,0.5,0,0.7l-3.6,3.6
			l3.6,3.6c0.2,0.2,0.2,0.5,0,0.7C6.8,19,6.6,19,6.5,19z"/>
	</g>
</g>
</svg>
