<svg version="1.1" id="Ebene_1" xmlns="http://www.w3.org/2000/svg" xmlns:xlink="http://www.w3.org/1999/xlink" x="0px" y="0px"
	 viewBox="0 0 24 24" style="enable-background:new 0 0 24 24;" xml:space="preserve">
<style type="text/css">
	.st0{fill:#231F20;}
</style>
<g>
	<g>
		<path class="st0" d="M20.5,24h-17C3.2,24,3,23.8,3,23.5v-20C3,3.2,3.2,3,3.5,3h17C20.8,3,21,3.2,21,3.5v20
			C21,23.8,20.8,24,20.5,24z M4,23h16V4H4V23z"/>
	</g>
	<g>
		<path class="st0" d="M16.5,4h-9C7.2,4,7,3.8,7,3.5v-3C7,0.2,7.2,0,7.5,0h9C16.8,0,17,0.2,17,0.5v3C17,3.8,16.8,4,16.5,4z M8,3h8V1
			H8V3z"/>
	</g>
	<g>
		<path class="st0" d="M23.5,4h-23C0.2,4,0,3.8,0,3.5S0.2,3,0.5,3h23C23.8,3,24,3.2,24,3.5S23.8,4,23.5,4z"/>
	</g>
	<g>
		<path class="st0" d="M7.5,19.5C7.2,19.5,7,19.3,7,19V7.5C7,7.2,7.2,7,7.5,7S8,7.2,8,7.5V19C8,19.3,7.8,19.5,7.5,19.5z"/>
	</g>
	<g>
		<path class="st0" d="M12,19.5c-0.3,0-0.5-0.2-0.5-0.5V7.5C11.5,7.2,11.7,7,12,7s0.5,0.2,0.5,0.5V19C12.5,19.3,12.3,19.5,12,19.5z"
			/>
	</g>
	<g>
		<path class="st0" d="M16.5,19c-0.3,0-0.5-0.2-0.5-0.5V7c0-0.3,0.2-0.5,0.5-0.5S17,6.7,17,7v11.5C17,18.8,16.8,19,16.5,19z"/>
	</g>
</g>
</svg>
