<svg xmlns="http://www.w3.org/2000/svg" xmlns:xlink="http://www.w3.org/1999/xlink" preserveAspectRatio="xMidYMid" width="12" height="16" viewBox="0 0 12 16">
  <path d="M-0.000,2.917 L-0.000,1.329 C-0.000,1.050 0.228,0.824 0.508,0.824 L3.998,0.824 L3.998,0.169 C3.998,0.075 4.074,-0.000 4.168,-0.000 L7.832,-0.000 C7.926,-0.000 8.002,0.075 8.002,0.169 L8.002,0.824 L11.492,0.824 C11.772,0.824 12.000,1.050 12.000,1.330 L12.000,2.917 L-0.000,2.917 ZM10.592,15.228 C10.574,15.660 10.216,16.000 9.782,16.000 L2.218,16.000 C1.784,16.000 1.427,15.660 1.408,15.228 L0.868,3.896 L11.132,3.896 L10.592,15.228 ZM4.289,6.711 C4.289,6.530 4.141,6.384 3.960,6.384 L3.433,6.384 C3.252,6.384 3.104,6.530 3.104,6.711 L3.104,13.185 C3.104,13.366 3.252,13.512 3.433,13.512 L3.960,13.512 C4.142,13.512 4.289,13.366 4.289,13.185 L4.289,6.711 ZM6.592,6.711 C6.592,6.530 6.445,6.384 6.263,6.384 L5.737,6.384 C5.555,6.384 5.408,6.530 5.408,6.711 L5.408,13.185 C5.408,13.366 5.555,13.512 5.737,13.512 L6.263,13.512 C6.445,13.512 6.592,13.366 6.592,13.185 L6.592,6.711 ZM8.896,6.711 C8.896,6.530 8.748,6.384 8.567,6.384 L8.040,6.384 C7.859,6.384 7.711,6.530 7.711,6.711 L7.711,13.185 C7.711,13.366 7.859,13.512 8.040,13.512 L8.567,13.512 C8.748,13.512 8.896,13.366 8.896,13.185 L8.896,6.711 Z"/>
</svg>
