<svg xmlns="http://www.w3.org/2000/svg" xmlns:xlink="http://www.w3.org/1999/xlink" preserveAspectRatio="xMidYMid" width="12" height="16" viewBox="0 0 12 16">
  <defs>
    <style>
      .cls-1 {
        fill: #000;
        fill-rule: evenodd;
      }
    </style>
  </defs>
  <path d="M11.250,6.545 L0.750,6.545 C0.547,6.545 0.371,6.473 0.223,6.330 C0.074,6.186 -0.000,6.015 -0.000,5.818 C-0.000,5.621 0.074,5.451 0.223,5.307 L5.473,0.216 C5.621,0.072 5.797,0.000 6.000,0.000 C6.203,0.000 6.379,0.072 6.527,0.216 L11.777,5.307 C11.926,5.451 12.000,5.621 12.000,5.818 C12.000,6.015 11.926,6.186 11.777,6.330 C11.629,6.473 11.453,6.545 11.250,6.545 ZM0.750,9.455 L11.250,9.455 C11.453,9.455 11.629,9.527 11.777,9.670 C11.926,9.814 12.000,9.985 12.000,10.182 C12.000,10.379 11.926,10.549 11.777,10.693 L6.527,15.784 C6.379,15.928 6.203,16.000 6.000,16.000 C5.797,16.000 5.621,15.928 5.473,15.784 L0.223,10.693 C0.074,10.549 -0.000,10.379 -0.000,10.182 C-0.000,9.985 0.074,9.814 0.223,9.670 C0.371,9.527 0.547,9.455 0.750,9.455 Z" class="cls-1"/>
</svg>
