<svg xmlns="http://www.w3.org/2000/svg" xmlns:xlink="http://www.w3.org/1999/xlink" preserveAspectRatio="xMidYMid" width="36" height="36" viewBox="0 0 36 36">
  <defs>
    <style>
      .cls-1 {
        fill: #ffd300;
        fill-rule: evenodd;
      }
    </style>
  </defs>
  <path d="M18.000,36.000 C8.059,36.000 -0.000,27.941 -0.000,18.000 C-0.000,8.059 8.059,-0.000 18.000,-0.000 C27.941,-0.000 36.000,8.059 36.000,18.000 C36.000,27.941 27.941,36.000 18.000,36.000 ZM18.000,2.250 C9.302,2.250 2.250,9.302 2.250,18.000 C2.250,26.698 9.302,33.750 18.000,33.750 C26.698,33.750 33.750,26.698 33.750,18.000 C33.750,9.302 26.698,2.250 18.000,2.250 ZM16.098,24.267 C16.062,24.321 16.039,24.381 15.992,24.429 C15.769,24.651 15.477,24.753 15.187,24.746 C14.897,24.753 14.606,24.651 14.383,24.429 C14.336,24.381 14.313,24.321 14.277,24.268 L8.758,18.750 C8.329,18.321 8.329,17.625 8.758,17.196 C9.187,16.767 9.883,16.767 10.312,17.196 L15.187,22.071 L25.688,11.571 C26.117,11.142 26.813,11.142 27.242,11.571 C27.671,12.000 27.671,12.696 27.242,13.125 L16.098,24.267 Z" class="cls-1"/>
</svg>
