<svg xmlns="http://www.w3.org/2000/svg" xmlns:xlink="http://www.w3.org/1999/xlink" preserveAspectRatio="xMidYMid" width="24" height="24" viewBox="0 0 24 24">
  <defs>
    <style>
      .cls-1 {
        fill: #fff;
        fill-rule: evenodd;
      }
    </style>
  </defs>
  <path d="M12.000,24.000 C5.373,24.000 -0.000,18.627 -0.000,12.000 C-0.000,5.373 5.373,-0.000 12.000,-0.000 C18.627,-0.000 24.000,5.373 24.000,12.000 C24.000,18.627 18.627,24.000 12.000,24.000 ZM12.000,1.500 C6.201,1.500 1.500,6.201 1.500,12.000 C1.500,17.799 6.201,22.500 12.000,22.500 C17.799,22.500 22.500,17.799 22.500,12.000 C22.500,6.201 17.799,1.500 12.000,1.500 ZM10.732,16.178 C10.708,16.214 10.693,16.254 10.661,16.286 C10.513,16.434 10.318,16.502 10.125,16.497 C9.931,16.502 9.737,16.434 9.589,16.286 C9.557,16.254 9.542,16.214 9.518,16.179 L5.839,12.500 C5.553,12.214 5.553,11.750 5.839,11.464 C6.125,11.178 6.589,11.178 6.875,11.464 L10.125,14.714 L17.125,7.714 C17.411,7.428 17.875,7.428 18.161,7.714 C18.447,8.000 18.447,8.464 18.161,8.750 L10.732,16.178 Z" class="cls-1"/>
</svg>
